<?xml version="1.0" encoding="UTF-8" standalone="no"?>
<svg
   xmlns:dc="http://purl.org/dc/elements/1.1/"
   xmlns:cc="http://creativecommons.org/ns#"
   xmlns:rdf="http://www.w3.org/1999/02/22-rdf-syntax-ns#"
   xmlns:svg="http://www.w3.org/2000/svg"
   xmlns="http://www.w3.org/2000/svg"
   xmlns:sodipodi="http://sodipodi.sourceforge.net/DTD/sodipodi-0.dtd"
   xmlns:inkscape="http://www.inkscape.org/namespaces/inkscape"
   width="37.006001"
   height="26.374001"
   viewBox="0 0 37.006001 26.374001"
   version="1.1"
   xml:space="preserve"
   style="clip-rule:evenodd;fill-rule:evenodd;stroke-linejoin:round;stroke-miterlimit:2"
   id="svg1163"
   sodipodi:docname="logo.svg"
   inkscape:version="1.0.1 (3bc2e813f5, 2020-09-07)"><metadata
     id="metadata1169"><rdf:RDF><cc:Work
         rdf:about=""><dc:format>image/svg+xml</dc:format><dc:type
           rdf:resource="http://purl.org/dc/dcmitype/StillImage" /><dc:title></dc:title></cc:Work></rdf:RDF></metadata><defs
     id="defs1167" /><sodipodi:namedview
     pagecolor="#ffffff"
     bordercolor="#666666"
     borderopacity="1"
     objecttolerance="10"
     gridtolerance="10"
     guidetolerance="10"
     inkscape:pageopacity="0"
     inkscape:pageshadow="2"
     inkscape:window-width="1317"
     inkscape:window-height="712"
     id="namedview1165"
     showgrid="false"
     inkscape:zoom="12.571429"
     inkscape:cx="18.503"
     inkscape:cy="13.187"
     inkscape:window-x="49"
     inkscape:window-y="28"
     inkscape:window-maximized="1"
     inkscape:current-layer="svg1163" /><g
     id="g1161"
     transform="translate(-2.497,-7.813)"><path
       d="m 28.235,18.079 4.011,-2.995 c 0,0 0.891,0.723 1.193,1.328 l -4.787,2.363 c -0.127,-0.239 -0.267,-0.471 -0.417,-0.696 z"
       style="fill:#848688"
       id="path1099" /><path
       d="m 13.471,18.122 c -0.162,0.228 -0.279,0.367 -0.43,0.603 L 8.377,16.384 9.522,15.148 Z"
       style="fill:#848688"
       id="path1101" /><path
       d="m 26.358,15.824 4.221,-5.653 c 0.51,0.408 0.998,0.842 1.461,1.301 l -5.09,4.927 c -0.186,-0.175 -0.39,-0.415 -0.592,-0.575 z"
       style="fill:#848688"
       id="path1103" /><path
       d="m 15.225,15.927 c -0.198,0.145 -0.39,0.299 -0.574,0.46 l -4.968,-5.138 1.486,-0.825 z"
       style="fill:#848688"
       id="path1105" /><path
       d="m 23.741,14.659 1.262,-4.194 c 0.712,0.225 0.805,0.265 1.426,0.593 l -2.049,3.847 c -0.209,-0.089 -0.422,-0.171 -0.639,-0.246 z"
       style="fill:#848688"
       id="path1107" /><path
       d="m 18.008,14.709 c -0.217,0.066 -0.363,0.125 -0.572,0.206 l -2.168,-3.808 1.32,-0.544 z"
       style="fill:#848688"
       id="path1109" /><path
       d="M 20.561,14.472 19.741,7.85 c 0.39,-0.025 0.783,-0.037 1.179,-0.037 0.396,0 0.79,0.012 1.179,0.037 l -0.673,6.609 C 21.19,14.46 20.64,14.47 20.561,14.472 Z"
       style="fill:#848688"
       id="path1111" /><path
       d="M 39.007,22.527 H 2.832 c 0,-0.508 0.021,-1.01 0.062,-1.507 l 11.972,0.487 c 0.036,-0.214 0.082,-0.424 0.14,-0.63 h 0.012 c 0.72,-2.581 3.091,-4.478 5.902,-4.478 2.81,0 5.181,1.897 5.902,4.478 h 0.012 c 0.057,0.206 0.104,0.416 0.14,0.63 L 38.945,21.02 c 0.041,0.497 0.062,0.999 0.062,1.507 z"
       style="fill:#848688"
       id="path1113" /><path
       d="m 20.872,30.787 c 6.993,-0.021 13.014,-1.304 18.135,-3.758 -4.167,4.882 -10.371,7.031 -18.083,7.157 v 10e-4 c -0.017,0 -0.034,0 -0.052,0 -0.018,0 -0.035,0 -0.052,0 V 34.186 C 13.108,34.06 6.904,31.911 2.737,27.029 c 5.121,2.454 11.142,3.737 18.135,3.758 z"
       style="fill:#bf3237"
       id="path1115" /><g
       id="g1155"><path
         d="M 3.343,24.405 H 3.959 V 24.097 H 3.336 c -0.574,0 -0.839,0.296 -0.839,0.931 0,0.325 0.089,0.56 0.273,0.708 0.173,0.14 0.34,0.157 0.556,0.157 H 3.959 V 25.58 H 3.343 c -0.315,0 -0.437,-0.135 -0.437,-0.537 0,-0.445 0.122,-0.638 0.437,-0.638 z"
         style="fill:#465e89;fill-rule:nonzero"
         id="path1117" /><path
         d="m 5.035,24.368 c 0.33,0 0.482,0.203 0.482,0.626 0,0.424 -0.152,0.626 -0.482,0.626 -0.336,0 -0.48,-0.202 -0.48,-0.641 0,-0.408 0.157,-0.611 0.48,-0.611 z m -0.889,0.609 c 0,0.654 0.275,0.954 0.889,0.954 0.606,0 0.889,-0.3 0.889,-0.937 0,-0.636 -0.283,-0.934 -0.889,-0.934 -0.599,0 -0.889,0.298 -0.889,0.917 z"
         style="fill:#465e89;fill-rule:nonzero"
         id="path1119" /><path
         d="m 6.205,24.097 v 1.796 h 0.374 v -0.706 h 0.443 l 0.392,0.706 H 7.836 L 7.392,25.142 c 0.23,-0.05 0.36,-0.228 0.36,-0.505 0,-0.377 -0.201,-0.54 -0.624,-0.54 z m 0.834,0.321 c 0.224,0 0.333,0.04 0.333,0.224 0,0.182 -0.109,0.227 -0.333,0.227 h -0.46 v -0.451 z"
         style="fill:#465e89;fill-rule:nonzero"
         id="path1121" /><path
         d="m 8.092,24.097 v 1.796 h 0.375 v -0.706 h 0.442 l 0.393,0.706 H 9.723 L 9.279,25.142 c 0.231,-0.05 0.36,-0.228 0.36,-0.505 0,-0.377 -0.201,-0.54 -0.623,-0.54 z m 0.834,0.321 c 0.224,0 0.333,0.04 0.333,0.224 0,0.182 -0.109,0.227 -0.333,0.227 H 8.467 v -0.451 z"
         style="fill:#465e89;fill-rule:nonzero"
         id="path1123" /><path
         d="m 10.714,24.41 h 0.616 v -0.313 h -0.623 c -0.574,0 -0.839,0.296 -0.839,0.93 0,0.325 0.089,0.561 0.273,0.709 0.174,0.14 0.34,0.157 0.556,0.157 H 11.33 V 25.58 h -0.616 c -0.295,0 -0.422,-0.117 -0.424,-0.441 h 1.04 v -0.313 h -1.038 c 0.015,-0.281 0.152,-0.416 0.422,-0.416 z"
         style="fill:#465e89;fill-rule:nonzero"
         id="path1125" /><path
         d="m 11.683,24.097 v 1.796 h 0.827 c 0.216,0 0.383,-0.017 0.556,-0.157 0.184,-0.148 0.273,-0.383 0.273,-0.708 0,-0.635 -0.265,-0.931 -0.839,-0.931 z m 0.81,0.313 c 0.333,0 0.437,0.145 0.437,0.585 0,0.443 -0.104,0.585 -0.437,0.585 h -0.435 v -1.17 z"
         style="fill:#465e89;fill-rule:nonzero"
         id="path1127" /><path
         d="m 14.398,24.368 c 0.33,0 0.482,0.203 0.482,0.626 0,0.424 -0.152,0.626 -0.482,0.626 -0.336,0 -0.48,-0.202 -0.48,-0.641 0,-0.408 0.157,-0.611 0.48,-0.611 z m -0.889,0.609 c 0,0.654 0.275,0.954 0.889,0.954 0.606,0 0.889,-0.3 0.889,-0.937 0,-0.636 -0.283,-0.934 -0.889,-0.934 -0.599,0 -0.889,0.298 -0.889,0.917 z"
         style="fill:#465e89;fill-rule:nonzero"
         id="path1129" /><path
         d="m 15.567,24.097 v 1.796 h 0.375 v -0.706 h 0.442 l 0.393,0.706 h 0.422 l -0.444,-0.751 c 0.23,-0.05 0.359,-0.228 0.359,-0.505 0,-0.377 -0.201,-0.54 -0.623,-0.54 z m 0.835,0.321 c 0.223,0 0.333,0.04 0.333,0.224 0,0.182 -0.11,0.227 -0.333,0.227 h -0.46 v -0.451 z"
         style="fill:#465e89;fill-rule:nonzero"
         id="path1131" /><path
         d="m 18.19,24.41 h 0.616 v -0.313 h -0.624 c -0.573,0 -0.839,0.296 -0.839,0.93 0,0.325 0.09,0.561 0.273,0.709 0.174,0.14 0.34,0.157 0.556,0.157 h 0.634 V 25.58 H 18.19 c -0.296,0 -0.422,-0.117 -0.425,-0.441 h 1.041 v -0.313 h -1.038 c 0.014,-0.281 0.151,-0.416 0.422,-0.416 z"
         style="fill:#465e89;fill-rule:nonzero"
         id="path1133" /><path
         d="m 20.666,24.418 v -0.321 h -0.981 c -0.425,0 -0.626,0.161 -0.626,0.55 0,0.36 0.186,0.515 0.594,0.515 h 0.442 c 0.181,0 0.266,0.047 0.266,0.208 0,0.155 -0.092,0.203 -0.291,0.203 h -0.939 v 0.32 h 0.999 c 0.422,0 0.623,-0.16 0.623,-0.538 0,-0.376 -0.171,-0.509 -0.569,-0.509 h -0.497 c -0.156,0 -0.236,-0.064 -0.236,-0.194 0,-0.165 0.092,-0.234 0.289,-0.234 z"
         style="fill:#465e89;fill-rule:nonzero"
         id="path1135" /><path
         d="m 22.044,24.097 v 1.796 h 0.827 c 0.216,0 0.383,-0.017 0.557,-0.157 0.183,-0.148 0.273,-0.383 0.273,-0.708 0,-0.635 -0.266,-0.931 -0.84,-0.931 z m 0.81,0.313 c 0.333,0 0.437,0.145 0.437,0.585 0,0.443 -0.104,0.585 -0.437,0.585 h -0.435 v -1.17 z"
         style="fill:#465e89;fill-rule:nonzero"
         id="path1137" /><path
         d="m 24.719,24.41 h 0.616 v -0.313 h -0.624 c -0.573,0 -0.839,0.296 -0.839,0.93 0,0.325 0.09,0.561 0.273,0.709 0.174,0.14 0.34,0.157 0.557,0.157 h 0.633 V 25.58 h -0.616 c -0.296,0 -0.422,-0.117 -0.425,-0.441 h 1.041 v -0.313 h -1.038 c 0.015,-0.281 0.151,-0.416 0.422,-0.416 z"
         style="fill:#465e89;fill-rule:nonzero"
         id="path1139" /><path
         d="M 28.181,24.418 V 24.097 H 27.2 c -0.425,0 -0.626,0.161 -0.626,0.55 0,0.36 0.187,0.515 0.594,0.515 h 0.442 c 0.181,0 0.266,0.047 0.266,0.208 0,0.155 -0.092,0.203 -0.291,0.203 h -0.939 v 0.32 h 0.999 c 0.422,0 0.623,-0.16 0.623,-0.538 0,-0.376 -0.171,-0.509 -0.569,-0.509 h -0.496 c -0.157,0 -0.236,-0.064 -0.236,-0.194 0,-0.165 0.091,-0.234 0.288,-0.234 z"
         style="fill:#465e89;fill-rule:nonzero"
         id="path1141" /><path
         d="m 29.308,24.41 h 0.616 v -0.313 h -0.623 c -0.574,0 -0.839,0.296 -0.839,0.93 0,0.325 0.089,0.561 0.273,0.709 0.174,0.14 0.34,0.157 0.556,0.157 h 0.633 V 25.58 h -0.616 c -0.295,0 -0.422,-0.117 -0.424,-0.441 h 1.04 v -0.313 h -1.038 c 0.015,-0.281 0.152,-0.416 0.422,-0.416 z"
         style="fill:#465e89;fill-rule:nonzero"
         id="path1143" /><path
         d="m 30.925,25.144 h 0.502 v 0.424 h -0.422 c -0.303,0 -0.422,-0.176 -0.422,-0.559 0,-0.409 0.121,-0.601 0.422,-0.601 h 0.807 v -0.311 h -0.807 c -0.571,0 -0.839,0.296 -0.839,0.93 0,0.325 0.089,0.561 0.273,0.709 0.178,0.145 0.35,0.157 0.566,0.157 h 0.807 v -1.067 h -0.887 z"
         style="fill:#465e89;fill-rule:nonzero"
         id="path1145" /><path
         d="M 32.512,24.097 H 32.14 v 1.086 c 0,0.227 0.02,0.385 0.102,0.483 0.146,0.175 0.362,0.247 0.673,0.247 0.31,0 0.524,-0.072 0.67,-0.247 0.08,-0.096 0.104,-0.253 0.104,-0.483 v -1.086 h -0.374 v 1.076 c 0,0.317 -0.09,0.45 -0.4,0.45 -0.311,0 -0.403,-0.133 -0.403,-0.45 z"
         style="fill:#465e89;fill-rule:nonzero"
         id="path1147" /><path
         d="m 34.077,24.097 v 1.796 h 0.375 v -0.706 h 0.442 l 0.393,0.706 h 0.421 l -0.444,-0.751 c 0.231,-0.05 0.36,-0.228 0.36,-0.505 0,-0.377 -0.201,-0.54 -0.623,-0.54 z m 0.834,0.321 c 0.224,0 0.333,0.04 0.333,0.224 0,0.182 -0.109,0.227 -0.333,0.227 h -0.459 v -0.451 z"
         style="fill:#465e89;fill-rule:nonzero"
         id="path1149" /><path
         d="m 36.739,24.368 c 0.331,0 0.482,0.203 0.482,0.626 0,0.424 -0.151,0.626 -0.482,0.626 -0.335,0 -0.479,-0.202 -0.479,-0.641 0,-0.408 0.156,-0.611 0.479,-0.611 z m -0.889,0.609 c 0,0.654 0.276,0.954 0.889,0.954 0.606,0 0.889,-0.3 0.889,-0.937 0,-0.636 -0.283,-0.934 -0.889,-0.934 -0.598,0 -0.889,0.298 -0.889,0.917 z"
         style="fill:#465e89;fill-rule:nonzero"
         id="path1151" /><path
         d="m 39.416,24.418 v -0.321 h -0.981 c -0.424,0 -0.625,0.161 -0.625,0.55 0,0.36 0.186,0.515 0.593,0.515 h 0.442 c 0.182,0 0.266,0.047 0.266,0.208 0,0.155 -0.092,0.203 -0.29,0.203 h -0.939 v 0.32 h 0.998 c 0.422,0 0.623,-0.16 0.623,-0.538 0,-0.376 -0.171,-0.509 -0.568,-0.509 h -0.497 c -0.157,0 -0.236,-0.064 -0.236,-0.194 0,-0.165 0.092,-0.234 0.288,-0.234 z"
         style="fill:#465e89;fill-rule:nonzero"
         id="path1153" /></g><path
       d="M 24.65,20.734 H 21 v 0.731 h 3.65 z m 0,-2.554 -2.707,0.016 C 21.436,18.187 21.013,18.415 21,18.911 v 0.532 c 0.098,0.43 0.357,0.705 0.963,0.743 1.113,0.069 1.539,-0.154 1.603,0.366 h 1.084 v -0.269 c -0.057,-0.511 -0.364,-0.778 -0.916,-0.808 l -1.355,-0.007 c -0.424,-0.005 -0.383,-0.551 -0.007,-0.557 h 2.278 z"
       style="fill:#465e89"
       id="path1157" /><path
       d="m 18.292,19.317 c 10e-4,0.051 0.02,0.084 0.04,0.105 0.02,0.023 0.055,0.046 0.116,0.049 h 2.027 v 0.722 h -2.041 c -0.054,0.007 -0.133,0.07 -0.142,0.154 v 1.118 h -1.091 v -2.364 h 1.091 z m 2.58,-1.121 h -3.671 v 0.715 h 3.671 z"
       style="fill:#465e89"
       id="path1159" /></g></svg>
