<svg xmlns="http://www.w3.org/2000/svg" viewBox="0 0 99.29 71.78"><defs><style>.cls-1{fill:#838587;}.cls-1,.cls-2,.cls-3{fill-rule:evenodd;}.cls-2{fill:#e6353b;}.cls-3{fill:#465e88;}.cls-4{font-size:6.72px;fill:#475f8a;font-family:HandelGothic, Handel Gothic;}</style></defs><g id="Capa_2" data-name="Capa 2"><g id="Logo"><path id="path1099" class="cls-1" d="M70,27.94l10.92-8.15a15.25,15.25,0,0,1,3.25,3.61l-13,6.43Q70.59,28.86,70,27.94Z"/><path id="path1101" class="cls-1" d="M29.79,28.06c-.44.62-.76,1-1.17,1.64L15.93,23.33,19,20Z"/><path id="path1103" class="cls-1" d="M64.86,21.8,76.35,6.42a49.55,49.55,0,0,1,4,3.54L66.48,23.37C66,22.89,65.41,22.24,64.86,21.8Z"/><path id="path1105" class="cls-1" d="M34.56,22.08c-.53.4-1.06.82-1.56,1.26l-13.52-14,4.05-2.24Z"/><path id="path1107" class="cls-1" d="M57.74,18.63,61.18,7.22a16.84,16.84,0,0,1,3.88,1.61L59.48,19.3C58.91,19.06,58.33,18.84,57.74,18.63Z"/><path id="path1109" class="cls-1" d="M42.14,18.77c-.59.18-1,.34-1.56.56L34.68,9l3.59-1.48Z"/><path id="path1111" class="cls-1" d="M49.09,18.12,46.86.1C47.92,0,49,0,50.06,0s2.15,0,3.21.1l-1.83,18Z"/><path id="path1113" class="cls-1" d="M99.29,40.05H.84c0-1.39.05-2.75.16-4.11l32.59,1.33A16.27,16.27,0,0,1,34,35.56h0a16.68,16.68,0,0,1,32.13,0h0c.15.56.28,1.13.38,1.71l32.58-1.33C99.23,37.3,99.29,38.66,99.29,40.05Z"/><path id="path1115" class="cls-2" d="M49.93,62.53C69,62.47,85.35,59,99.29,52.3,88,65.59,71.06,71.43,50.07,71.78h-.28C28.8,71.43,11.92,65.59.58,52.3,14.51,59,30.9,62.47,49.93,62.53Z"/><path id="path1157" class="cls-3" d="M60.22,35.17H50.28v2h9.94Zm0-7-7.37.05c-1.38,0-2.53.59-2.57,1.94v1.45a2.46,2.46,0,0,0,2.62,2c3,.19,4.19-.41,4.37,1h2.95v-.73a2.33,2.33,0,0,0-2.5-2.2l-3.69,0a.76.76,0,1,1,0-1.52h6.2Z"/><path id="path1159" class="cls-3" d="M42.91,31.31a.41.41,0,0,0,.43.42h5.51v2H43.3a.51.51,0,0,0-.39.42v3h-3V30.72h3Zm7-3h-10V30.2h10Z"/><text class="cls-4" transform="translate(0 49.25)">CORREDORES DE SEGUROS</text></g></g></svg>