<?xml version="1.0" encoding="UTF-8" standalone="no"?>
<svg
   xmlns:dc="http://purl.org/dc/elements/1.1/"
   xmlns:cc="http://creativecommons.org/ns#"
   xmlns:rdf="http://www.w3.org/1999/02/22-rdf-syntax-ns#"
   xmlns:svg="http://www.w3.org/2000/svg"
   xmlns="http://www.w3.org/2000/svg"
   xmlns:sodipodi="http://sodipodi.sourceforge.net/DTD/sodipodi-0.dtd"
   xmlns:inkscape="http://www.inkscape.org/namespaces/inkscape"
   width="80mm"
   height="80mm"
   viewBox="0 0 80 80"
   version="1.1"
   id="svg8"
   inkscape:version="1.0.1 (3bc2e813f5, 2020-09-07)"
   sodipodi:docname="mision.svg">
  <defs
     id="defs2" />
  <sodipodi:namedview
     id="base"
     pagecolor="#ffffff"
     bordercolor="#666666"
     borderopacity="1.0"
     inkscape:pageopacity="0.0"
     inkscape:pageshadow="2"
     inkscape:zoom="1.4"
     inkscape:cx="102.29728"
     inkscape:cy="115.60394"
     inkscape:document-units="mm"
     inkscape:current-layer="layer1"
     inkscape:document-rotation="0"
     showgrid="false"
     inkscape:window-width="1317"
     inkscape:window-height="712"
     inkscape:window-x="49"
     inkscape:window-y="28"
     inkscape:window-maximized="1"
     fit-margin-top="0"
     fit-margin-left="0"
     fit-margin-right="0"
     fit-margin-bottom="0" />
  <metadata
     id="metadata5">
    <rdf:RDF>
      <cc:Work
         rdf:about="">
        <dc:format>image/svg+xml</dc:format>
        <dc:type
           rdf:resource="http://purl.org/dc/dcmitype/StillImage" />
        <dc:title></dc:title>
      </cc:Work>
    </rdf:RDF>
  </metadata>
  <g
     inkscape:label="Layer 1"
     inkscape:groupmode="layer"
     id="layer1"
     style="display:inline"
     transform="translate(-79.01544,-121.34877)">
    <g
       id="g1191"
       transform="matrix(0.5905512,0,0,0.5905512,56.515438,73.848771)">
      <g
         id="Circle_Grid"
         data-name="Circle Grid"
         transform="matrix(1.0583333,0,0,1.0583333,38.100002,80.433335)"
         style="fill:#465e89;fill-opacity:1">
        <circle
           cx="64"
           cy="64"
           fill="#3b5059"
           r="64"
           id="circle227"
           style="fill:#465e89;fill-opacity:1" />
      </g>
      <path
         d="m 100.71312,135.01899 3.25966,3.25967 -1.71344,4.45558 20.57083,20.56659 a 3.0956249,3.0956249 0 0 1 -3.556,4.96888 3.0310666,3.0310666 0 0 1 -0.81915,-0.58632 l 0.6731,0.6731 c 0.0212,0.0212 0.0444,0.0444 0.0635,0.0677 a 3.1890672,3.1890672 0 0 1 -4.57412,4.445 l -0.62018,-0.62018 a 3.2289749,3.2289749 0 0 1 0.46672,0.58843 3.1834666,3.1834666 0 0 1 -0.46461,3.91584 l -0.0444,0.0445 a 3.1845249,3.1845249 0 0 1 -4.50215,0 l -1.00541,-1.00859 a 3.0532916,3.0532916 0 0 1 0,4.3254 l -0.0974,0.0974 a 3.0585832,3.0585832 0 0 1 -4.32541,0 L 80.952976,157.14027 a 9.557808,9.557808 0 0 1 -2.799292,-6.82942 l 0.02328,-3.2258 -5.327649,-5.32765 13.193182,-13.18366 5.221817,5.22182 5.865283,-0.19368 a 4.8439915,4.8439915 0 0 1 3.583523,1.41711 z"
         fill="#f4bb87"
         id="path230"
         style="stroke-width:1.05833" />
      <path
         d="m 122.5931,128.62666 -5.85893,5.11598 -6.56167,0.0815 a 5.1085748,5.1085748 0 0 0 -3.36233,1.31763 l -12.673536,11.45751 a 0.87841664,0.87841664 0 0 0 -0.03175,1.27 l 0.776816,0.77682 a 6.1002331,6.1002331 0 0 0 8.10366,0.46673 l 3.1242,-2.47756 15.58713,15.59031 6.06954,-6.06955 a 7.9374997,7.9374997 0 0 0 2.3114,-6.09705 l -0.20531,-3.39408 5.8547,-4.90537 z"
         fill="#fed19a"
         id="path232"
         style="stroke-width:1.05833" />
      <path
         d="m 95.856425,160.22637 a 3.1093832,3.1093832 0 0 1 -0.916516,2.20451 l -5.25145,5.25463 a 3.120639,3.120639 0 1 1 -4.41325,-4.41325 l 5.25145,-5.25463 a 3.1199666,3.1199666 0 0 1 5.328708,2.20769 z"
         fill="#f4c795"
         id="path234"
         style="stroke-width:1.05833" />
      <path
         d="m 95.772817,159.50353 a 3.1284332,3.1284332 0 0 1 -0.832908,1.48167 l -5.25145,5.25145 a 3.1199666,3.1199666 0 0 1 -5.241925,-1.48167 3.1030332,3.1030332 0 0 1 0.829733,-1.48166 l 5.25145,-5.25463 a 3.1241999,3.1241999 0 0 1 5.2451,1.48167 z"
         fill="#fed19a"
         id="path236"
         style="stroke-width:1.05833" />
      <path
         d="m 102.75147,162.1536 a 3.1125582,3.1125582 0 0 1 -0.91335,2.20768 l -7.736411,7.73642 a 3.120639,3.120639 0 0 1 -4.41325,-4.41325 l 7.736416,-7.73642 a 3.1189082,3.1189082 0 0 1 5.325535,2.20451 z"
         fill="#f4c795"
         id="path238"
         style="stroke-width:1.05833" />
      <path
         d="m 102.68056,161.48791 a 3.1019749,3.1019749 0 0 1 -0.84667,1.53987 l -7.736415,7.73642 a 3.1199666,3.1199666 0 0 1 -5.250391,-1.5367 3.1019749,3.1019749 0 0 1 0.846666,-1.53988 l 7.736417,-7.73641 a 3.1199666,3.1199666 0 0 1 5.254623,1.53987 z"
         fill="#fed19a"
         id="path240"
         style="stroke-width:1.05833" />
      <path
         d="m 104.68187,169.05182 a 3.1093832,3.1093832 0 0 1 -0.91652,2.2045 l -5.25145,5.25463 a 3.1199666,3.1199666 0 0 1 -5.325533,-2.20345 3.2808332,3.2808332 0 0 1 0.05927,-0.61489 3.1114999,3.1114999 0 0 1 0.853016,-1.5875 l 5.25145,-5.25463 a 3.1252582,3.1252582 0 0 1 5.269437,1.59279 3.2808332,3.2808332 0 0 1 0.0603,0.60855 z"
         fill="#f4c795"
         id="path242"
         style="stroke-width:1.05833" />
      <path
         d="m 104.6226,168.43692 a 3.1506582,3.1506582 0 0 1 -0.85619,1.5875 l -5.251452,5.25145 a 3.1220832,3.1220832 0 0 1 -5.266266,-1.5875 3.1114999,3.1114999 0 0 1 0.853017,-1.5875 l 5.251449,-5.25462 a 3.1252582,3.1252582 0 0 1 5.269442,1.59279 z"
         fill="#fed19a"
         id="path244"
         style="stroke-width:1.05833" />
      <rect
         fill="#2cbfae"
         height="26.327354"
         rx="0.8952148"
         transform="rotate(-45)"
         width="9.8558283"
         x="-4.9138131"
         y="173.9782"
         id="rect246"
         style="fill:#ffffff;stroke-width:1.05817" />
      <circle
         cx="126.44543"
         cy="126.1491"
         fill="#eeefee"
         r="1.8277416"
         id="circle248"
         style="stroke-width:1.05833" />
      <rect
         fill="#69b0ee"
         height="26.327354"
         rx="0.8952148"
         transform="rotate(45)"
         width="9.8558283"
         x="146.79214"
         y="26.390373"
         id="rect250"
         style="fill:#ffffff;stroke-width:1.05817" />
      <circle
         cx="85.477348"
         cy="129.35162"
         fill="#eeefee"
         r="1.8277416"
         id="circle252"
         style="stroke-width:1.05833" />
      <g
         fill="#e6b17d"
         id="g260"
         transform="matrix(1.0583333,0,0,1.0583333,38.100002,80.433335)">
        <path
           d="m 67.806,73.865 8.8,8.8 a 0.354,0.354 0 0 1 0.094,0.333 2.864,2.864 0 0 1 -0.774,-0.554 l 0.636,0.636 c 0.02,0.02 0.042,0.042 0.06,0.064 a 0.078,0.078 0 0 1 -0.016,0.02 0.353,0.353 0 0 1 -0.5,0 l -8.8,-8.8 a 0.35355339,0.35355339 0 0 1 0.5,-0.5 z"
           id="path254" />
        <path
           d="m 65.3,88.555 1.806,1.806 a 0.348,0.348 0 0 1 0.052,0.431 L 66.47,90.1 a 2.877,2.877 0 0 1 0.572,0.811 0.348,0.348 0 0 1 -0.431,-0.052 l -1.806,-1.806 z"
           id="path256" />
        <path
           d="m 63.335,78.037 8.8,8.8 a 0.351,0.351 0 0 1 0.066,0.4 l -0.486,-0.486 a 3.051,3.051 0 0 1 0.441,0.556 0.105,0.105 0 0 1 -0.02,0.024 0.353,0.353 0 0 1 -0.5,0 l -8.8,-8.8 a 0.35355339,0.35355339 0 0 1 0.5,-0.5 z"
           id="path258" />
      </g>
      <path
         d="m 107.89602,174.66416 a 3.1019749,3.1019749 0 0 1 -0.91651,2.20451 l -2.43417,2.43416 a 3.1199666,3.1199666 0 0 1 -5.325532,-2.20768 3.0173082,3.0173082 0 0 1 0.06562,-0.635 3.1051499,3.1051499 0 0 1 0.846662,-1.57268 l 2.43417,-2.43417 a 3.1231416,3.1231416 0 0 1 4.41325,0 3.0860999,3.0860999 0 0 1 0.84666,1.57586 3.0151916,3.0151916 0 0 1 0.0698,0.635 z"
         fill="#f4c795"
         id="path262"
         style="stroke-width:1.05833" />
      <path
         d="m 107.83041,174.03233 a 3.1019749,3.1019749 0 0 1 -0.84667,1.56951 l -2.43417,2.43417 a 3.1189082,3.1189082 0 0 1 -5.259912,-1.57269 3.1051499,3.1051499 0 0 1 0.846672,-1.57268 l 2.43416,-2.43417 a 3.1231416,3.1231416 0 0 1 4.41325,0 3.0860999,3.0860999 0 0 1 0.84667,1.57586 z"
         fill="#fed19a"
         id="path264"
         style="stroke-width:1.05833" />
      <path
         d="m 106.11062,146.63843 2.09232,-2.09232 c 0,0 7.55121,4.5974 13.52973,-1.31022 0,0 -2.82151,6.68973 -13.18683,3.05964 l -1.38959,1.38959 z"
         fill="#f4bb87"
         id="path266"
         style="stroke-width:1.05833" />
    </g>
  </g>
</svg>
