<?xml version="1.0" encoding="utf-8"?>
<!-- Generator: Adobe Illustrator 25.0.0, SVG Export Plug-In . SVG Version: 6.00 Build 0)  -->
<svg version="1.1"
	 id="svg260" xmlns:cc="http://creativecommons.org/ns#" xmlns:dc="http://purl.org/dc/elements/1.1/" xmlns:inkscape="http://www.inkscape.org/namespaces/inkscape" xmlns:rdf="http://www.w3.org/1999/02/22-rdf-syntax-ns#" xmlns:sodipodi="http://sodipodi.sourceforge.net/DTD/sodipodi-0.dtd" xmlns:svg="http://www.w3.org/2000/svg"
	 xmlns="http://www.w3.org/2000/svg" xmlns:xlink="http://www.w3.org/1999/xlink" x="0px" y="0px" viewBox="0 0 1065 605.5"
	 style="enable-background:new 0 0 1065 605.5;" xml:space="preserve">
<style type="text/css">
	.st0{fill:white;}
	.st1{fill-rule:evenodd;clip-rule:evenodd;fill:white;}
	.st2{fill:white;}
</style>
<sodipodi:namedview  bordercolor="#666666" borderopacity="1" fit-margin-bottom="0" fit-margin-left="0" fit-margin-right="0" fit-margin-top="0" gridtolerance="10" guidetolerance="10" id="namedview262" inkscape:current-layer="svg260" inkscape:cx="670.26876" inkscape:cy="524.11327" inkscape:document-rotation="0" inkscape:pageopacity="0" inkscape:pageshadow="2" inkscape:window-height="712" inkscape:window-maximized="1" inkscape:window-width="1317" inkscape:window-x="49" inkscape:window-y="28" inkscape:zoom="0.25335893" objecttolerance="10" pagecolor="#ffffff" showgrid="false" showguides="false">
	</sodipodi:namedview>
<path id="path183" class="st0" d="M703.1,195.6L531.7,367L361.9,197.2L534.1,25L703.1,195.6z M526.8,308.3
	c23.7-23.7,47.4-47.4,71.1-71.1c32-32,13.2-80.3-14.3-107.9L465.2,247.7C485.8,267.9,506.3,288.1,526.8,308.3L526.8,308.3z
	 M540.9,33.5l-71.1,71.1c-32,32-13.2,80.3,14.3,107.9L602.5,94.1C581.9,73.9,561.4,53.7,540.9,33.5L540.9,33.5z"/>
<path id="path185" class="st1" d="M534.1,0L361.9,172.2L531.7,342l171.4-171.4L534.1,0z M526.8,308.3c23.7-23.7,47.4-47.4,71.1-71.1
	c32-32,13.2-80.3-14.3-107.9L465.2,247.7C485.8,267.9,506.3,288.1,526.8,308.3L526.8,308.3z M540.9,33.5l-71.1,71.1
	c-32,32-13.2,80.3,14.3,107.9L602.5,94.1C581.9,73.9,561.4,53.7,540.9,33.5z"/>
<path id="path187" class="st2" d="M4,496.3l-4-16.5c8,6.7,16.5,10.1,25.4,10.1c4.1,0,7.5-1,10.4-3c2.9-2,4.3-4.5,4.3-7.4
	c0-2.6-1.1-4.9-3.2-6.8c-2.2-1.9-6.6-4.4-13.4-7.5c-7-3.2-11.9-6.1-14.8-8.7c-3.8-3.5-5.7-7.9-5.7-13.1c0-6.2,2.5-11.1,7.4-14.8
	c4.9-3.7,11.5-5.6,19.6-5.6c5.4,0,11.3,0.9,17.5,2.7v15c-5.4-5.6-11.4-8.4-18.1-8.4c-3.6,0-6.6,0.9-9,2.7c-2.4,1.8-3.6,4.1-3.6,6.9
	c0,2.3,1,4.3,3,6c2,1.7,6.1,4,12.3,6.9c7.6,3.6,12.8,6.5,15.6,8.8c4,3.3,6,7.5,6,12.6c0,6.7-2.8,12.4-8.5,16.9
	c-5.7,4.5-12.7,6.8-21.1,6.8C17.5,499.9,10.8,498.7,4,496.3"/>
<path id="path189" class="st2" d="M116.6,497.9v-6.4c-5.2,5.6-12.1,8.4-20.6,8.4c-5.4,0-10.2-1.2-14.5-3.8c-4.9-2.9-8.3-6.9-10-12
	c-0.9-2.7-1.3-7-1.3-13v-31.4c0-4.6-0.3-7.7-0.8-9.2c-0.5-1.5-1.9-3.4-4.3-5.5h22.7c-2.3,2.1-3.8,4-4.3,5.5
	c-0.5,1.5-0.8,4.6-0.8,9.2v31.4c0,5.9,1.2,10.2,3.5,12.9c3.3,3.9,7.7,5.8,13.1,5.8c2.9,0,6-0.8,9.1-2.4c3.2-1.6,5.4-3.7,6.7-6.4
	c0.7-1.4,1-3.5,1-6.2v-35c0-4.6-0.3-7.7-0.8-9.2c-0.5-1.5-1.9-3.4-4.3-5.5h22.7c-2.3,2.1-3.8,4-4.3,5.5c-0.5,1.5-0.8,4.6-0.8,9.2
	v43.4c0,4.6,0.3,7.7,0.8,9.2c0.5,1.5,1.9,3.4,4.3,5.5H116.6z"/>
<path id="path191" class="st2" d="M163.6,435.2v48c0,4.7,0.3,7.8,0.8,9.3c0.5,1.5,1.9,3.3,4.3,5.4H146c2.4-2.2,3.9-4,4.3-5.5
	c0.5-1.4,0.7-4.5,0.7-9.2v-43.4c0-4.6-0.3-7.7-0.8-9.2c-0.5-1.5-1.9-3.4-4.3-5.5h11.4c0.9,0,2.7,0,5.4-0.1h10.6
	c5.8,0,10.5,0.8,14.2,2.5c3.7,1.6,6.6,4,8.8,7.2c2.2,3.2,3.3,6.6,3.3,10.3c0,5.7-2.4,10.6-7.3,14.9c-4.8,4.2-10.5,6.4-16.9,6.4
	c-3.4,0-6.6-1-9.6-3c5.8-0.9,9.7-1.9,11.8-3c5.4-2.9,8-7.3,8-13.1c0-8.3-5.1-12.4-15.4-12.4C168.1,434.5,165.8,434.7,163.6,435.2"/>
<path id="path193" class="st2" d="M226.8,463.2v23.7c4.1,0.7,8.6,1,13.4,1c8.2,0,15.6-1.5,22-4.5l-5.5,14.5h-47.6
	c2.3-2.2,3.8-4.1,4.3-5.6c0.5-1.5,0.8-4.6,0.8-9.3v-43.2c0-4.6-0.3-7.7-0.8-9.2c-0.5-1.5-1.9-3.4-4.3-5.5h37.7c1.8,0,3.5-0.3,4.9-1
	v13.3c-3.1-1.7-7.8-2.6-14-2.6c-4.8,0-8.5,0.2-11,0.6v18.2h14.1c1.4,0,2.9-0.3,4.5-1v12.9c-2.2-1.4-5.3-2.2-9.5-2.2L226.8,463.2z"/>
<path id="path195" class="st2" d="M286,434.5v48.7c0,4.6,0.3,7.7,0.8,9.2c0.5,1.5,1.9,3.4,4.3,5.5h-22.7c2.4-2.2,3.9-4,4.3-5.5
	c0.5-1.4,0.7-4.5,0.7-9.2v-43.4c0-4.6-0.3-7.7-0.8-9.2c-0.5-1.5-1.9-3.4-4.3-5.5h22c0.8,0,1.7,0,2.7-0.1h2.1
	c7.1,0,12.7,1.4,16.7,4.3c5.1,3.6,7.6,8.4,7.6,14.6c0,4.6-2.2,9-6.5,13.2c-2.3,2.2-5.7,4.1-10.1,5.6c8,11.2,14.3,19.1,18.7,23.8
	c4.5,4.7,9.3,8.4,14.5,11.2c-6.2,0.6-10.2,0.9-11.9,0.9c-3.1,0-5.8-0.7-7.9-2c-2.2-1.3-5-4.1-8.6-8.4c-6.7-8-13.2-17.6-19.7-28.8
	c11.8-2.1,17.6-7,17.6-14.6c0-3.3-1.2-5.9-3.6-8c-2.4-2-5.5-3-9.4-3C290.5,433.7,288.3,434,286,434.5"/>
<path id="path197" class="st2" d="M364.5,497.9h-22.7c2.4-2.2,3.9-4,4.3-5.5c0.5-1.4,0.7-4.5,0.7-9.2v-43.4c0-4.6-0.3-7.7-0.8-9.2
	c-0.5-1.5-1.9-3.4-4.3-5.5h22.7c-2.3,2.1-3.8,4-4.3,5.5c-0.5,1.5-0.8,4.6-0.8,9.2v43.4c0,4.6,0.3,7.7,0.8,9.2
	C360.7,494,362.1,495.8,364.5,497.9"/>
<path id="path199" class="st2" d="M391.8,443v40.2c0,4.6,0.3,7.7,0.8,9.2c0.5,1.5,1.9,3.4,4.3,5.5h-19.7c2.4-2.2,3.9-4,4.3-5.5
	c0.5-1.4,0.7-4.5,0.7-9.2v-43.4c0-4.6-0.3-7.7-0.8-9.2c-0.5-1.5-1.9-3.4-4.3-5.5h17c0.3,0.5,0.6,1.2,1.2,2l0.4,0.6l1.3,1.7
	l36.7,49.6v-39.2c0-4.6-0.3-7.7-0.8-9.2c-0.5-1.5-1.9-3.4-4.3-5.5h19.7c-2.3,2.1-3.8,4-4.3,5.5c-0.5,1.5-0.8,4.6-0.8,9.2v61.9
	c-6.7-2.1-12.2-6.1-16.6-12L391.8,443z"/>
<path id="path201" class="st2" d="M514.4,423.9l-4.3,14.7c-1.6-1.7-3.3-2.8-5.3-3.2c-1.1-0.3-3.2-0.4-6.1-0.4l-2.2,0.1
	c-1.9,0-3.9,0-6.1,0.1V483c0,4.7,0.3,7.9,0.8,9.4c0.5,1.5,1.9,3.4,4.3,5.5h-22.7c2.3-2.2,3.8-4.1,4.3-5.6c0.5-1.5,0.8-4.6,0.8-9.3
	v-47.7c-2.1-0.2-4.8-0.3-8.2-0.3c-6,0-11,1.4-14.8,4.2l4-15c1.5,0.6,3.5,0.9,6.1,0.9h41.7c0.9,0,1.8,0,2.7-0.1h1.3
	C511.7,424.8,512.9,424.5,514.4,423.9"/>
<path id="path203" class="st2" d="M539.8,463.2v23.7c4.2,0.7,8.6,1,13.4,1c8.2,0,15.6-1.5,22-4.5l-5.4,14.5h-47.6
	c2.3-2.2,3.8-4.1,4.3-5.6c0.5-1.5,0.8-4.6,0.8-9.3v-43.2c0-4.6-0.3-7.7-0.8-9.2c-0.5-1.5-1.9-3.4-4.3-5.5h37.7c1.8,0,3.5-0.3,4.9-1
	v13.3c-3.1-1.7-7.8-2.6-14-2.6c-4.8,0-8.5,0.2-11,0.6v18.2h14.1c1.4,0,2.9-0.3,4.5-1v12.9c-2.2-1.4-5.3-2.2-9.5-2.2L539.8,463.2z"/>
<path id="path205" class="st2" d="M596,443v40.2c0,4.6,0.3,7.7,0.8,9.2c0.5,1.5,1.9,3.4,4.3,5.5h-19.7c2.4-2.2,3.9-4,4.3-5.5
	c0.5-1.4,0.7-4.5,0.7-9.2v-43.4c0-4.6-0.3-7.7-0.8-9.2c-0.5-1.5-1.9-3.4-4.3-5.5h17c0.3,0.5,0.6,1.2,1.2,2l0.4,0.6l1.3,1.7
	l36.7,49.6v-39.2c0-4.6-0.3-7.7-0.8-9.2c-0.5-1.5-1.9-3.4-4.3-5.5h19.7c-2.3,2.1-3.8,4-4.3,5.5c-0.5,1.5-0.8,4.6-0.8,9.2v61.9
	c-6.7-2.1-12.2-6.1-16.6-12L596,443z"/>
<path id="path207" class="st2" d="M682.1,435.2v52c2.5,0.5,5,0.7,7.4,0.7c8,0,14.2-1.5,18.4-4.6c6.7-4.9,10.1-12,10.1-21.4
	c0-8.5-2.4-15.2-7.2-20.2c-4.8-5-11.3-7.5-19.4-7.5C689,434.2,685.9,434.5,682.1,435.2 M683.2,497.9h-18.7c2.4-2.2,3.9-4,4.3-5.5
	c0.5-1.4,0.7-4.5,0.7-9.2v-43.4c0-4.6-0.3-7.7-0.8-9.2c-0.5-1.5-1.9-3.4-4.3-5.5h19.3c1.4,0,3,0,4.9-0.1h3.4
	c11.3,0,20.5,2.8,27.5,8.5c8.4,6.8,12.6,15.9,12.6,27.3c0,7.3-1.9,14-5.6,20.2c-3.8,6.1-8.8,10.6-15,13.4
	C706.3,496.7,696.8,497.9,683.2,497.9"/>
<path id="path209" class="st2" d="M760.3,463.2v23.7c4.2,0.7,8.6,1,13.4,1c8.2,0,15.6-1.5,22-4.5l-5.4,14.5h-47.6
	c2.3-2.2,3.8-4.1,4.3-5.6c0.5-1.5,0.8-4.6,0.8-9.3v-43.2c0-4.6-0.3-7.7-0.8-9.2c-0.5-1.5-1.9-3.4-4.3-5.5h37.7c1.8,0,3.5-0.3,4.9-1
	v13.3c-3.1-1.7-7.8-2.6-14-2.6c-4.8,0-8.5,0.2-11,0.6v18.2h14.1c1.4,0,2.9-0.3,4.5-1v12.9c-2.2-1.4-5.3-2.2-9.5-2.2L760.3,463.2z"/>
<path id="path211" class="st2" d="M816.6,443v40.2c0,4.6,0.3,7.7,0.8,9.2c0.5,1.5,1.9,3.4,4.3,5.5h-19.7c2.4-2.2,3.9-4,4.3-5.5
	c0.5-1.4,0.7-4.5,0.7-9.2v-43.4c0-4.6-0.3-7.7-0.8-9.2c-0.5-1.5-1.9-3.4-4.3-5.5h17c0.3,0.5,0.6,1.2,1.2,2l0.4,0.6l1.3,1.7
	l36.7,49.6v-39.2c0-4.6-0.3-7.7-0.8-9.2c-0.5-1.5-1.9-3.4-4.3-5.5h19.7c-2.3,2.1-3.8,4-4.3,5.5c-0.5,1.5-0.8,4.6-0.8,9.2v61.9
	c-6.7-2.1-12.2-6.1-16.6-12L816.6,443z"/>
<path id="path213" class="st2" d="M948.9,481l-6.9,15.3c-5.5,2.4-11.4,3.6-17.5,3.6c-13.4,0-23.8-4.2-31.2-12.7
	c-6.6-7.5-9.9-16.2-9.9-26.2c0-10.8,3.7-19.8,11-27.1c7.3-7.3,16.5-10.9,27.4-10.9c5.8,0,12.6,1.1,20.5,3.2V441
	c-7.4-4.6-14.3-6.9-20.6-6.9c-7,0-12.9,2.6-17.6,7.8c-4.2,4.5-6.2,10.5-6.2,18.1c0,8.1,2.5,15,7.5,20.8c5,5.8,11,8.7,18.1,8.7
	C930.2,489.4,938.7,486.6,948.9,481"/>
<path id="path215" class="st2" d="M979.3,497.9h-22.7c2.4-2.2,3.9-4,4.3-5.5c0.5-1.4,0.7-4.5,0.7-9.2v-43.4c0-4.6-0.3-7.7-0.8-9.2
	c-0.5-1.5-1.9-3.4-4.3-5.5h22.7c-2.3,2.1-3.8,4-4.3,5.5c-0.5,1.5-0.8,4.6-0.8,9.2v43.4c0,4.6,0.3,7.7,0.8,9.2
	C975.6,494,977,495.8,979.3,497.9"/>
<path id="path217" class="st2" d="M1033.8,462.8l-9.3-27.6l-9.6,27.6H1033.8z M1036.6,471.3h-24.4l-6.1,15.8c-0.8,2-1.2,3.7-1.2,4.9
	c0,1.5,1.3,3.5,4,5.9h-21.5c3.6-2.2,7-7.5,10.1-15.8l18-47.3c0.8-2,1.2-3.5,1.2-4.5c0-1.4-1.3-3.2-3.8-5.3h19.3l22.2,57.1
	c1.9,4.9,3.5,8.3,4.7,10.2c1.3,1.9,3.2,3.7,5.8,5.6h-24c0.7-0.8,1.1-1.2,1.3-1.3c1.6-1.5,2.5-2.8,2.5-3.9c0-0.8-0.6-2.6-1.8-5.6
	L1036.6,471.3z"/>
<path id="path219" class="st2" d="M65.7,552.7v35c1.7,0.3,3.3,0.5,5,0.5c5.4,0,9.6-1,12.4-3.1c4.5-3.3,6.8-8.1,6.8-14.4
	c0-5.7-1.6-10.3-4.8-13.6c-3.2-3.4-7.6-5.1-13.1-5.1C70.3,552,68.2,552.2,65.7,552.7 M66.4,594.9H53.9c1.6-1.5,2.6-2.7,2.9-3.7
	c0.3-1,0.5-3.1,0.5-6.2v-29.2c0-3.1-0.2-5.2-0.5-6.2c-0.3-1-1.3-2.3-2.9-3.7h13c0.9,0,2,0,3.3-0.1h2.3c7.6,0,13.8,1.9,18.5,5.7
	c5.6,4.6,8.5,10.7,8.5,18.4c0,4.9-1.3,9.5-3.8,13.6c-2.5,4.1-5.9,7.1-10.1,9C82,594.1,75.6,594.9,66.4,594.9"/>
<path id="path221" class="st2" d="M118.4,571.6v16c2.8,0.5,5.8,0.7,9,0.7c5.5,0,10.5-1,14.8-3l-3.7,9.7h-32.1
	c1.6-1.5,2.5-2.7,2.9-3.7c0.3-1,0.5-3.1,0.5-6.3v-29.1c0-3.1-0.2-5.2-0.5-6.2c-0.3-1-1.3-2.3-2.9-3.7H132c1.2,0,2.3-0.2,3.3-0.7v9
	c-2.1-1.2-5.2-1.8-9.4-1.8c-3.3,0-5.7,0.1-7.4,0.4V565h9.5c0.9,0,1.9-0.2,3.1-0.7v8.7c-1.5-1-3.6-1.5-6.4-1.5L118.4,571.6z"/>
<path id="path223" class="st2" d="M181.4,570.9v17.3c2.3,0.5,4.3,0.7,6,0.7c7.2,0,10.8-2.9,10.8-8.8c0-6.4-4-9.5-12.1-9.5
	C184.9,570.6,183.3,570.7,181.4,570.9 M181.4,565.4h1.9c3.2,0,5.8-0.6,7.7-1.9c1.9-1.3,2.9-3.1,2.9-5.3c0-2.1-0.7-3.7-2.2-5
	c-1.5-1.2-3.5-1.8-6.1-1.8c-1,0-2.4,0.1-4.2,0.3V565.4z M180.9,594.9h-11.2c1.6-1.5,2.6-2.7,2.9-3.7c0.3-1,0.5-3.1,0.5-6.2v-29.2
	c0-3.1-0.2-5.2-0.5-6.2c-0.4-1-1.3-2.3-2.9-3.7h11.2c5.8,0,9.4,0.1,10.6,0.2c3.4,0.3,6.1,1.5,8.2,3.6c2.1,2,3.1,4.5,3.1,7.4
	c0,3.9-2.2,7-6.5,9.2c3.6,1.2,6.1,2.5,7.6,4.1c2.4,2.5,3.6,5.5,3.6,9c0,2.9-0.9,5.5-2.6,8c-1.7,2.5-4.1,4.4-7.1,5.7
	c-1.9,0.8-3.7,1.4-5.4,1.6C190.5,594.8,186.6,594.9,180.9,594.9"/>
<path id="path225" class="st2" d="M242.6,571.3l-6.3-18.6l-6.5,18.6H242.6z M244.5,577h-16.4l-4.1,10.6c-0.5,1.4-0.8,2.5-0.8,3.3
	c0,1,0.9,2.4,2.7,4h-14.5c2.4-1.5,4.7-5,6.8-10.6l12.1-31.8c0.5-1.4,0.8-2.4,0.8-3c0-1-0.8-2.2-2.5-3.6h13l14.9,38.5
	c1.3,3.3,2.3,5.6,3.2,6.9c0.8,1.3,2.1,2.5,3.9,3.8h-16.2c0.5-0.5,0.8-0.8,0.9-0.9c1.1-1,1.7-1.9,1.7-2.6c0-0.5-0.4-1.8-1.2-3.8
	L244.5,577z"/>
<path id="path227" class="st2" d="M277.3,557.9V585c0,3.1,0.2,5.2,0.5,6.2c0.4,1,1.3,2.3,2.9,3.7h-13.3c1.6-1.5,2.6-2.7,2.9-3.7
	c0.3-1,0.5-3,0.5-6.2v-29.2c0-3.1-0.2-5.2-0.5-6.2c-0.4-1-1.3-2.3-2.9-3.7h11.4c0.2,0.3,0.4,0.8,0.8,1.4l0.3,0.4l0.9,1.2l24.7,33.4
	v-26.4c0-3.1-0.2-5.2-0.5-6.2c-0.3-1-1.3-2.3-2.9-3.7h13.3c-1.6,1.4-2.5,2.7-2.9,3.7c-0.4,1-0.5,3.1-0.5,6.2v41.7
	c-4.5-1.4-8.2-4.1-11.2-8.1L277.3,557.9z"/>
<path id="path229" class="st2" d="M366.4,583.5l-4.6,10.3c-3.7,1.6-7.7,2.4-11.8,2.4c-9,0-16-2.9-21.1-8.6
	c-4.4-5.1-6.6-10.9-6.6-17.6c0-7.3,2.5-13.4,7.4-18.3c5-4.9,11.1-7.3,18.4-7.3c3.9,0,8.5,0.7,13.8,2.1v9.9c-5-3.1-9.6-4.7-13.9-4.7
	c-4.7,0-8.7,1.8-11.9,5.3c-2.8,3-4.2,7.1-4.2,12.2c0,5.5,1.7,10.1,5,14c3.4,3.9,7.4,5.8,12.2,5.8
	C353.9,589.2,359.6,587.3,366.4,583.5"/>
<path id="path231" class="st2" d="M398.7,571.3l-6.3-18.6l-6.5,18.6H398.7z M400.6,577h-16.4l-4.1,10.6c-0.5,1.4-0.8,2.5-0.8,3.3
	c0,1,0.9,2.4,2.7,4h-14.5c2.5-1.5,4.7-5,6.8-10.6l12.1-31.8c0.5-1.4,0.8-2.4,0.8-3c0-1-0.8-2.2-2.5-3.6h13l14.9,38.5
	c1.3,3.3,2.3,5.6,3.2,6.9c0.8,1.3,2.1,2.5,3.9,3.8h-16.2c0.5-0.5,0.8-0.8,0.9-0.9c1.1-1,1.7-1.9,1.7-2.6c0-0.5-0.4-1.8-1.2-3.8
	L400.6,577z"/>
<path id="path233" class="st2" d="M424.7,605.3c4.5-4.6,6.8-7.8,6.8-9.5c0-0.6-0.6-1-1.9-1.4c-2.5-0.7-3.8-2.5-3.8-5.5
	c0-1.7,0.5-3.1,1.6-4.2c1.1-1.1,2.4-1.7,4-1.7c1.7,0,3.1,0.7,4.1,2c1.1,1.4,1.6,3.1,1.6,5.2c0,4.5-2.1,9.1-6.2,13.6
	c-1,1.2-2,1.8-2.9,1.8C427,605.5,425.9,605.5,424.7,605.3"/>
<path id="path235" class="st2" d="M471.3,593.9l-2.7-11.1c5.4,4.5,11.1,6.8,17.1,6.8c2.7,0,5.1-0.7,7-2c1.9-1.4,2.9-3,2.9-5
	c0-1.8-0.7-3.3-2.2-4.6c-1.5-1.3-4.5-3-9-5.1c-4.7-2.1-8-4.1-10-5.8c-2.6-2.3-3.8-5.3-3.8-8.9c0-4.2,1.7-7.5,5-10
	c3.3-2.5,7.7-3.8,13.2-3.8c3.7,0,7.6,0.6,11.8,1.8v10.1c-3.6-3.8-7.7-5.6-12.2-5.6c-2.4,0-4.5,0.6-6.1,1.8c-1.6,1.2-2.4,2.7-2.4,4.6
	c0,1.6,0.7,2.9,2,4c1.3,1.1,4.1,2.7,8.3,4.6c5.1,2.4,8.6,4.4,10.5,5.9c2.7,2.2,4,5,4,8.5c0,4.5-1.9,8.3-5.7,11.4
	c-3.8,3.1-8.5,4.6-14.2,4.6C480.4,596.3,475.9,595.5,471.3,593.9"/>
<path id="path237" class="st2" d="M523.7,571.6v16c2.8,0.5,5.8,0.7,9,0.7c5.5,0,10.5-1,14.9-3l-3.7,9.7h-32.1
	c1.6-1.5,2.5-2.7,2.9-3.7c0.3-1,0.5-3.1,0.5-6.3v-29.1c0-3.1-0.2-5.2-0.5-6.2c-0.3-1-1.3-2.3-2.9-3.7h25.4c1.2,0,2.3-0.2,3.3-0.7v9
	c-2.1-1.2-5.2-1.8-9.4-1.8c-3.3,0-5.7,0.1-7.4,0.4V565h9.5c0.9,0,2-0.2,3.1-0.7v8.7c-1.5-1-3.6-1.5-6.4-1.5L523.7,571.6z"/>
<path id="path239" class="st2" d="M592.3,546.1v10.1c-3.6-3.3-8-5-13.2-5c-5.2,0-9.6,1.7-13,5.2c-3.4,3.5-5.1,7.9-5.1,13.3
	c0,5.4,1.9,10,5.6,14c3.7,3.9,8.2,5.9,13.4,5.9c3.3,0,6.3-0.4,9.1-1.3v-9.1c0-3.3-0.2-5.4-0.5-6.3c-0.3-0.9-1.3-2.1-2.9-3.5
	l12.5-0.2c-0.4,1.4-0.6,3-0.6,5v15.4c0,1.9,0.2,3.3,0.7,4.3c-0.8,0.1-1.6,0.2-2.5,0.4c-0.2,0-1.2,0.2-3,0.6c-4.5,1-8.7,1.5-12.6,1.5
	c-8.5,0-15.4-2.4-20.7-7.1c-5.3-4.7-8-10.9-8-18.5c0-7.5,2.7-13.8,8.2-18.7c5.4-5,12.3-7.4,20.7-7.4
	C583.4,544.5,587.4,545,592.3,546.1"/>
<path id="path241" class="st2" d="M641.6,594.9v-4.3c-3.5,3.8-8.1,5.6-13.9,5.6c-3.6,0-6.9-0.8-9.8-2.5c-3.3-2-5.6-4.6-6.7-8.1
	c-0.6-1.8-0.9-4.7-0.9-8.8v-21.1c0-3.1-0.2-5.2-0.5-6.2c-0.3-1-1.3-2.3-2.9-3.7h15.3c-1.6,1.4-2.5,2.7-2.9,3.7
	c-0.3,1-0.5,3.1-0.5,6.2v21.1c0,4,0.8,6.8,2.4,8.7c2.2,2.6,5.2,3.9,8.8,3.9c2,0,4-0.5,6.2-1.6c2.1-1.1,3.6-2.5,4.5-4.3
	c0.5-1,0.7-2.4,0.7-4.2v-23.6c0-3.1-0.2-5.2-0.5-6.2c-0.3-1-1.3-2.3-2.9-3.7h15.3c-1.6,1.4-2.5,2.7-2.9,3.7c-0.3,1-0.5,3.1-0.5,6.2
	V585c0,3.1,0.2,5.2,0.5,6.2c0.3,1,1.3,2.3,2.9,3.7H641.6z"/>
<path id="path243" class="st2" d="M673.8,552.2V585c0,3.1,0.2,5.2,0.5,6.2c0.3,1,1.3,2.3,2.9,3.7h-15.3c1.6-1.5,2.6-2.7,2.9-3.7
	c0.3-1,0.5-3,0.5-6.2v-29.2c0-3.1-0.2-5.2-0.5-6.2c-0.3-1-1.3-2.3-2.9-3.7h14.9c0.5,0,1.1,0,1.8-0.1h1.4c4.8,0,8.5,1,11.3,2.9
	c3.4,2.4,5.2,5.7,5.2,9.8c0,3.1-1.5,6.1-4.4,8.9c-1.6,1.5-3.8,2.8-6.8,3.8c5.4,7.5,9.6,12.9,12.6,16c3,3.2,6.2,5.7,9.7,7.5
	c-4.2,0.4-6.9,0.6-8,0.6c-2.1,0-3.9-0.5-5.3-1.4c-1.5-0.9-3.4-2.8-5.8-5.6c-4.5-5.4-8.9-11.8-13.3-19.4c7.9-1.4,11.9-4.7,11.9-9.8
	c0-2.2-0.8-4-2.4-5.4c-1.6-1.4-3.7-2-6.3-2C676.8,551.7,675.3,551.9,673.8,552.2"/>
<path id="path245" class="st2" d="M731.8,551.2c-4.9,0-8.9,1.7-11.9,5.1c-3,3.4-4.5,7.8-4.5,13.2c0,5.7,1.7,10.6,5.2,14.8
	c2.9,3.5,6.6,5.3,11.2,5.3c4.8,0,8.7-1.7,11.7-5.1c3-3.4,4.5-7.8,4.5-13.3c0-5.6-1.6-10.3-4.7-14.2
	C740.1,553.2,736.3,551.2,731.8,551.2 M732.2,544.4c7.1,0,13.1,2.5,17.9,7.4c4.8,4.9,7.3,11,7.3,18.3c0,7.3-2.5,13.5-7.6,18.6
	c-5,5.1-11.2,7.6-18.4,7.6c-7.2,0-13.2-2.5-18.2-7.5c-5-5-7.4-11-7.4-18.3c0-7.5,2.5-13.7,7.6-18.7
	C718.5,546.9,724.8,544.4,732.2,544.4"/>
<path id="path247" class="st2" d="M766.2,593.9l-2.7-11.1c5.4,4.5,11.1,6.8,17.1,6.8c2.7,0,5.1-0.7,7-2c1.9-1.4,2.9-3,2.9-5
	c0-1.8-0.7-3.3-2.2-4.6c-1.5-1.3-4.5-3-9-5.1c-4.7-2.1-8-4.1-10-5.8c-2.6-2.3-3.8-5.3-3.8-8.9c0-4.2,1.7-7.5,5-10
	c3.3-2.5,7.7-3.8,13.2-3.8c3.7,0,7.6,0.6,11.8,1.8v10.1c-3.6-3.8-7.7-5.6-12.2-5.6c-2.4,0-4.5,0.6-6.1,1.8c-1.6,1.2-2.4,2.7-2.4,4.6
	c0,1.6,0.7,2.9,2,4c1.3,1.1,4.1,2.7,8.3,4.6c5.1,2.4,8.6,4.4,10.5,5.9c2.7,2.2,4,5,4,8.5c0,4.5-1.9,8.3-5.7,11.4
	c-3.8,3.1-8.5,4.6-14.2,4.6C775.3,596.3,770.8,595.5,766.2,593.9"/>
<path id="path249" class="st2" d="M853.7,573.6V585c0,3.1,0.2,5.2,0.5,6.2c0.3,1,1.3,2.3,2.9,3.7h-15.3c1.6-1.5,2.5-2.7,2.9-3.7
	c0.3-1,0.5-3,0.5-6.2v-11.4l-12.8-20c-2.2-3.4-4.6-5.9-7.2-7.7l9.4-0.4c1.3,0,2.2,0.2,2.6,0.5c0.5,0.4,1.3,1.5,2.4,3.3l10.8,17.1
	l9-13.2c0.9-1.4,1.4-2.4,1.4-3c0-1.3-1-2.8-3-4.4h14.8L853.7,573.6z"/>
<path id="path251" class="st2" d="M926.6,571.3l-6.3-18.6l-6.5,18.6H926.6z M928.5,577h-16.4l-4.1,10.6c-0.5,1.4-0.8,2.5-0.8,3.3
	c0,1,0.9,2.4,2.7,4h-14.5c2.5-1.5,4.7-5,6.8-10.6l12.1-31.8c0.5-1.4,0.8-2.4,0.8-3c0-1-0.8-2.2-2.5-3.6h13l14.9,38.5
	c1.3,3.3,2.3,5.6,3.2,6.9c0.8,1.3,2.1,2.5,3.9,3.8h-16.2c0.5-0.5,0.8-0.8,0.9-0.9c1.1-1,1.7-1.9,1.7-2.6c0-0.5-0.4-1.8-1.2-3.8
	L928.5,577z"/>
<path id="path253" class="st2" d="M963.4,571.6v13.3c0,3.2,0.2,5.3,0.5,6.3c0.3,1,1.3,2.3,2.9,3.7h-15.3c1.6-1.5,2.5-2.7,2.9-3.7
	c0.3-1,0.5-3.1,0.5-6.3v-29.1c0-3.1-0.2-5.2-0.5-6.2c-0.3-1-1.3-2.3-2.9-3.7h25.4c1.3,0,2.4-0.2,3.3-0.7v9c-2.7-1.2-5.9-1.8-9.5-1.8
	c-3.2,0-5.7,0.1-7.3,0.4V565h9.5c1,0,2.1-0.2,3.1-0.7v8.8c-1.3-1-3.5-1.6-6.4-1.6L963.4,571.6z"/>
<path id="path255" class="st2" d="M998.4,552.7V585c0,3.2,0.2,5.3,0.5,6.3c0.3,1,1.3,2.2,2.9,3.7h-15.3c1.6-1.5,2.6-2.7,2.9-3.7
	c0.3-1,0.5-3.1,0.5-6.2v-29.2c0-3.1-0.2-5.2-0.5-6.2c-0.3-1-1.3-2.3-2.9-3.7h7.7c0.6,0,1.8,0,3.7-0.1h7.2c3.9,0,7.1,0.5,9.6,1.7
	c2.5,1.1,4.5,2.7,5.9,4.9c1.5,2.1,2.2,4.5,2.2,6.9c0,3.8-1.6,7.2-4.9,10c-3.3,2.9-7,4.3-11.4,4.3c-2.3,0-4.4-0.7-6.5-2
	c3.9-0.6,6.6-1.3,8-2c3.6-1.9,5.4-4.9,5.4-8.9c0-5.6-3.5-8.4-10.4-8.4C1001.4,552.2,999.9,552.4,998.4,552.7"/>
<path id="path257" class="st2" d="M61.9,522.3c0,0,15.4-0.3,42.4-1c27-0.4,65.5-1.4,111.7-1.8c46.2-0.4,100.2-1.3,157.9-1.5
	c28.9-0.1,58.7-0.3,89.1-0.4c30.3,0,61.1-0.1,92-0.1c61.6,0,123.3,0.2,181,0.6c28.9,0.3,56.8,0.5,83.3,0.7
	c26.5,0.3,51.5,0.5,74.6,0.8c46.2,0.5,84.7,1.3,111.7,1.7c27,0.6,42.4,0.9,42.4,0.9v0.3c0,0-15.4,0.3-42.4,0.9
	c-27,0.4-65.5,1.2-111.7,1.7c-23.1,0.2-48.2,0.5-74.6,0.8c-26.5,0.2-54.4,0.5-83.3,0.7c-57.8,0.4-119.4,0.5-181,0.6
	c-30.8,0-61.6-0.1-92-0.1c-30.3-0.1-60.2-0.3-89.1-0.4c-57.8-0.2-111.7-1.1-157.9-1.5c-46.2-0.4-84.7-1.4-111.7-1.8
	C77.3,522.7,61.9,522.4,61.9,522.3L61.9,522.3z"/>
</svg>
