<?xml version="1.0" encoding="UTF-8" standalone="no"?>
<svg
   xmlns:dc="http://purl.org/dc/elements/1.1/"
   xmlns:cc="http://creativecommons.org/ns#"
   xmlns:rdf="http://www.w3.org/1999/02/22-rdf-syntax-ns#"
   xmlns:svg="http://www.w3.org/2000/svg"
   xmlns="http://www.w3.org/2000/svg"
   xmlns:sodipodi="http://sodipodi.sourceforge.net/DTD/sodipodi-0.dtd"
   xmlns:inkscape="http://www.inkscape.org/namespaces/inkscape"
   width="80mm"
   height="80mm"
   viewBox="0 0 80 80"
   version="1.1"
   id="svg8"
   inkscape:version="1.0.1 (3bc2e813f5, 2020-09-07)"
   sodipodi:docname="vision.svg">
  <defs
     id="defs2" />
  <sodipodi:namedview
     id="base"
     pagecolor="#ffffff"
     bordercolor="#666666"
     borderopacity="1.0"
     inkscape:pageopacity="0.0"
     inkscape:pageshadow="2"
     inkscape:zoom="0.7"
     inkscape:cx="60.462667"
     inkscape:cy="235.39258"
     inkscape:document-units="mm"
     inkscape:current-layer="layer1"
     inkscape:document-rotation="0"
     showgrid="false"
     inkscape:window-width="1317"
     inkscape:window-height="712"
     inkscape:window-x="49"
     inkscape:window-y="28"
     inkscape:window-maximized="1"
     fit-margin-top="0"
     fit-margin-left="0"
     fit-margin-right="0"
     fit-margin-bottom="0"
     showguides="true"
     inkscape:guide-bbox="true"
     inkscape:snap-nodes="true"
     inkscape:snap-bbox="true"
     inkscape:bbox-paths="true"
     inkscape:snap-bbox-midpoints="true"
     inkscape:snap-bbox-edge-midpoints="true">
    <sodipodi:guide
       position="90.476699,72.049931"
       orientation="-1,0"
       id="guide1687"
       inkscape:label=""
       inkscape:locked="false"
       inkscape:color="rgb(0,0,255)" />
  </sodipodi:namedview>
  <metadata
     id="metadata5">
    <rdf:RDF>
      <cc:Work
         rdf:about="">
        <dc:format>image/svg+xml</dc:format>
        <dc:type
           rdf:resource="http://purl.org/dc/dcmitype/StillImage" />
        <dc:title></dc:title>
      </cc:Work>
    </rdf:RDF>
  </metadata>
  <g
     inkscape:label="Layer 1"
     inkscape:groupmode="layer"
     id="layer1"
     style="display:inline"
     transform="translate(-79.01544,-121.34877)">
    <path
       d="m 25.650805,143.13135 1.925,1.925 -1.01188,2.63125 12.14813,12.14562 a 1.828125,1.828125 0 0 1 -2.1,2.93438 1.79,1.79 0 0 1 -0.48375,-0.34625 l 0.3975,0.3975 c 0.0125,0.0125 0.0262,0.0262 0.0375,0.04 a 1.8833075,1.8833075 0 0 1 -2.70125,2.625 l -0.36625,-0.36625 a 1.906875,1.906875 0 0 1 0.27562,0.3475 1.88,1.88 0 0 1 -0.27437,2.3125 l -0.0262,0.0263 a 1.880625,1.880625 0 0 1 -2.65875,0 l -0.59375,-0.59562 a 1.803125,1.803125 0 0 1 0,2.55437 l -0.0575,0.0575 a 1.80625,1.80625 0 0 1 -2.55437,0 l -13.62501,-13.62503 a 5.644375,5.644375 0 0 1 -1.65313,-4.03313 l 0.0138,-1.905 -3.1462519,-3.14625 7.7912519,-7.78562 3.08375,3.08375 3.46375,-0.11438 a 2.860625,2.860625 0 0 1 2.11625,0.83688 z"
       fill="#f4bb87"
       id="path230"
       style="stroke-width:0.624998" />
    <path
       d="m 38.572055,139.35635 -3.46,3.02125 -3.875,0.0481 a 3.016875,3.016875 0 0 0 -1.98563,0.77813 l -7.48437,6.76624 a 0.51875,0.51875 0 0 0 -0.0187,0.75 l 0.45875,0.45875 a 3.6025,3.6025 0 0 0 4.78563,0.27563 l 1.845,-1.46312 9.20499,9.20687 3.58438,-3.58438 a 4.6875,4.6875 0 0 0 1.365,-3.60062 l -0.12125,-2.00438 3.4575,-2.89687 z"
       fill="#fed19a"
       id="path232"
       style="stroke-width:0.624998" />
    <path
       d="m 22.782675,158.0176 a 1.83625,1.83625 0 0 1 -0.54124,1.30187 l -3.10125,3.10313 a 1.8428971,1.8428971 0 1 1 -2.60625,-2.60625 l 3.10125,-3.10313 a 1.8425,1.8425 0 0 1 3.14687,1.30376 z"
       fill="#f4c795"
       id="path234"
       style="stroke-width:0.624998" />
    <path
       d="m 22.733305,157.59072 a 1.8475,1.8475 0 0 1 -0.49187,0.875 l -3.10125,3.10125 a 1.8425,1.8425 0 0 1 -3.09563,-0.875 1.8325,1.8325 0 0 1 0.49,-0.87499 l 3.10125,-3.10313 a 1.845,1.845 0 0 1 3.0975,0.875 z"
       fill="#fed19a"
       id="path236"
       style="stroke-width:0.624998" />
    <path
       d="m 26.854555,159.15572 a 1.838125,1.838125 0 0 1 -0.53938,1.30375 l -4.56874,4.56875 a 1.8428971,1.8428971 0 0 1 -2.60625,-2.60625 l 4.56874,-4.56875 a 1.841875,1.841875 0 0 1 3.14501,1.30188 z"
       fill="#f4c795"
       id="path238"
       style="stroke-width:0.624998" />
    <path
       d="m 26.812685,158.7626 a 1.831875,1.831875 0 0 1 -0.50001,0.90937 l -4.56875,4.56875 a 1.8425,1.8425 0 0 1 -3.10062,-0.9075 1.831875,1.831875 0 0 1 0.5,-0.90937 l 4.56875,-4.56875 a 1.8425,1.8425 0 0 1 3.10312,0.90937 z"
       fill="#fed19a"
       id="path240"
       style="stroke-width:0.624998" />
    <path
       d="m 27.994555,163.22948 a 1.83625,1.83625 0 0 1 -0.54125,1.30187 l -3.10125,3.10312 a 1.8425,1.8425 0 0 1 -3.145,-1.30125 1.9375,1.9375 0 0 1 0.035,-0.36312 1.8375,1.8375 0 0 1 0.50375,-0.9375 l 3.10125,-3.10313 a 1.845625,1.845625 0 0 1 3.11187,0.94063 1.9375,1.9375 0 0 1 0.0356,0.35938 z"
       fill="#f4c795"
       id="path242"
       style="stroke-width:0.624998" />
    <path
       d="m 27.959555,162.86635 a 1.860625,1.860625 0 0 1 -0.50562,0.9375 l -3.10126,3.10125 a 1.84375,1.84375 0 0 1 -3.11,-0.9375 1.8375,1.8375 0 0 1 0.50376,-0.9375 l 3.10124,-3.10313 a 1.845625,1.845625 0 0 1 3.11188,0.94063 z"
       fill="#fed19a"
       id="path244"
       style="stroke-width:0.624998" />
    <rect
       fill="#2cbfae"
       height="15.547651"
       rx="0.52867019"
       transform="rotate(-45)"
       width="5.8203712"
       x="-71.647606"
       y="123.65237"
       id="rect246"
       style="fill:#ffffff;stroke-width:0.624904" />
    <circle
       cx="40.847057"
       cy="137.89322"
       fill="#eeefee"
       r="1.079375"
       id="circle248"
       style="stroke-width:0.624998" />
    <rect
       fill="#69b0ee"
       height="15.547651"
       rx="0.52867019"
       transform="rotate(45)"
       width="5.8203712"
       x="107.59761"
       y="84.330612"
       id="rect250"
       style="fill:#ffffff;stroke-width:0.624904" />
    <circle
       cx="16.653301"
       cy="139.78448"
       fill="#eeefee"
       r="1.079375"
       id="circle252"
       style="stroke-width:0.624998" />
    <g
       fill="#e6b17d"
       id="g260"
       transform="matrix(0.625,0,0,0.625,-11.325445,110.89572)">
      <path
         d="m 67.806,73.865 8.8,8.8 a 0.354,0.354 0 0 1 0.094,0.333 2.864,2.864 0 0 1 -0.774,-0.554 l 0.636,0.636 c 0.02,0.02 0.042,0.042 0.06,0.064 a 0.078,0.078 0 0 1 -0.016,0.02 0.353,0.353 0 0 1 -0.5,0 l -8.8,-8.8 a 0.35355339,0.35355339 0 0 1 0.5,-0.5 z"
         id="path254" />
      <path
         d="m 65.3,88.555 1.806,1.806 a 0.348,0.348 0 0 1 0.052,0.431 L 66.47,90.1 a 2.877,2.877 0 0 1 0.572,0.811 0.348,0.348 0 0 1 -0.431,-0.052 l -1.806,-1.806 z"
         id="path256" />
      <path
         d="m 63.335,78.037 8.8,8.8 a 0.351,0.351 0 0 1 0.066,0.4 l -0.486,-0.486 a 3.051,3.051 0 0 1 0.441,0.556 0.105,0.105 0 0 1 -0.02,0.024 0.353,0.353 0 0 1 -0.5,0 l -8.8,-8.8 a 0.35355339,0.35355339 0 0 1 0.5,-0.5 z"
         id="path258" />
    </g>
    <path
       d="m 29.892675,166.54385 a 1.831875,1.831875 0 0 1 -0.54124,1.30188 l -1.43751,1.43749 a 1.8425,1.8425 0 0 1 -3.145,-1.30375 1.781875,1.781875 0 0 1 0.0388,-0.375 1.83375,1.83375 0 0 1 0.49999,-0.92874 l 1.43751,-1.43751 a 1.844375,1.844375 0 0 1 2.60625,0 1.8225,1.8225 0 0 1 0.49999,0.93063 1.780625,1.780625 0 0 1 0.0412,0.375 z"
       fill="#f4c795"
       id="path262"
       style="stroke-width:0.624998" />
    <path
       d="m 29.853935,166.17072 a 1.831875,1.831875 0 0 1 -0.50001,0.92688 l -1.4375,1.4375 a 1.841875,1.841875 0 0 1 -3.10625,-0.92875 1.83375,1.83375 0 0 1 0.50001,-0.92875 l 1.43749,-1.4375 a 1.844375,1.844375 0 0 1 2.60625,0 1.8225,1.8225 0 0 1 0.50001,0.93062 z"
       fill="#fed19a"
       id="path264"
       style="stroke-width:0.624998" />
    <path
       d="m 28.838305,149.99322 1.23562,-1.23562 c 0,0 4.45938,2.715 7.99,-0.77375 0,0 -1.66624,3.95063 -7.7875,1.80687 l -0.82062,0.82063 z"
       fill="#f4bb87"
       id="path266"
       style="stroke-width:0.624998" />
    <g
       id="g1727">
      <g
         id="Circle_Grid"
         data-name="Circle Grid"
         transform="matrix(0.625,0,0,0.625,79.01544,121.34877)"
         style="fill:#465e89;fill-opacity:1">
        <circle
           cx="64"
           cy="64"
           fill="#3b5059"
           r="64"
           id="circle227"
           style="fill:#465e89;fill-opacity:1" />
      </g>
      <g
         id="g1685"
         transform="matrix(0.05787758,0,0,0.05787758,104.19879,146.53211)">
        <path
           style="fill:#415a6b"
           d="m 342.058,0 v 0 c -7.467,0 -13.867,6.4 -13.867,13.867 v 268.8 h 26.667 V 13.867 C 354.858,6.4 349.525,0 342.058,0 Z"
           id="path1573" />
        <path
           style="fill:#e8eae9"
           d="m 119.125,391.467 -6.4,17.067 22.4,8.533 12.8,-12.8 c -6.4,-7.467 -7.467,-19.2 -6.4,-30.933 z"
           id="path1575" />
        <path
           style="fill:#344a5e"
           d="m 82.858,508.8 c 0,0 2.133,-1.067 2.133,-2.133 0,-1.067 -4.267,-4.267 -13.867,-6.4 -9.6,-2.133 -22.4,-10.667 -25.6,-16 -3.2,-5.333 -3.2,-5.333 -3.2,-5.333 l -32,1.067 c 0,0 -11.733,6.4 -7.467,21.333 l 1.067,2.133 c 0,0 12.8,0 22.4,3.2 9.6,3.2 29.867,6.4 43.733,4.267 13.866,-2.133 12.801,-2.134 12.801,-2.134 z"
           id="path1577" />
        <path
           style="fill:#415a6b"
           d="m 115.925,397.867 c 0,0 24.533,-4.267 33.067,-3.2 8.533,1.067 18.133,1.067 18.133,1.067 0,0 4.267,-84.267 7.467,-104.533 3.2,-20.266 -17.067,-29.867 -22.4,-34.133 -5.333,-3.2 -60.8,-35.2 -60.8,-35.2 l -66.133,55.467 c 0,0 -4.267,48 0,57.6 0,0 -2.133,6.4 -2.133,11.733 0,5.333 -1.067,19.2 -4.267,29.867 -3.2,10.667 -6.4,39.467 -8.533,65.067 C 8.193,467.202 8.192,480 8.192,480 c 0,0 5.333,7.467 19.2,6.4 13.867,-1.067 22.4,-2.133 24.533,-6.4 2.133,-3.2 -2.133,-30.933 3.2,-56.533 5.333,-25.6 4.267,-50.133 4.267,-50.133 0,0 12.8,-34.133 13.867,-48 1.067,-13.867 8.533,-39.467 8.533,-39.467 0,0 28.8,5.333 36.267,6.4 7.467,1.067 11.733,3.2 11.733,3.2 0,0 -2.133,8.533 0,11.733 2.133,3.2 -3.2,11.733 -5.333,23.467 -2.133,11.733 -2.133,36.267 -4.267,46.933 -4.267,12.8 -4.267,20.267 -4.267,20.267 z"
           id="path1579" />
        <path
           style="fill:#344a5e"
           d="m 118.058,426.667 h -5.333 c 0,0 -6.4,-6.4 -1.067,-18.133 0,0 7.467,2.133 16,0 8.533,-2.133 17.067,-12.8 17.067,-12.8 0,0 14.933,11.733 22.4,12.8 7.467,2.133 28.8,-2.133 28.8,1.067 0,3.2 -4.267,4.267 -4.267,4.267 0,0 -22.4,9.6 -37.333,9.6 -14.933,0 -10.667,-1.067 -18.133,1.067 -9.6,2.132 -18.134,2.132 -18.134,2.132 z"
           id="path1581" />
        <g
           id="g1587">
	<path
   style="fill:#ffd15c"
   d="m 131.925,177.067 5.333,-2.133 5.333,-4.267 c 1.067,-1.067 3.2,-1.067 4.267,-1.067 l 4.267,2.133 3.2,-1.067 1.067,1.067 c 0,0 4.267,-1.067 5.333,2.133 1.067,2.133 -1.067,4.267 -1.067,4.267 0,0 3.2,1.067 2.133,3.2 0,2.133 -2.133,3.2 -2.133,3.2 0,0 4.267,1.067 3.2,3.2 -1.067,2.133 -4.267,2.133 -4.267,2.133 0,0 0,1.067 1.067,1.067 1.067,0 5.333,3.2 4.267,6.4 -2.133,3.2 -5.333,0 -6.4,-1.067 -1.067,-1.067 -11.733,2.133 -20.267,-2.133 C 125.525,192 125.525,192 125.525,192 Z"
   id="path1583" />

	<path
   style="fill:#ffd15c"
   d="m 71.125,13.867 3.2,4.267 c 0,0 6.4,8.533 6.4,11.733 0,3.2 0,3.2 1.067,4.267 1.067,2.133 6.4,7.467 7.467,8.533 1.067,1.067 0,2.133 -1.067,3.2 -2.133,2.133 -3.2,2.133 -3.2,3.2 0,1.067 3.2,3.2 0,4.267 0,0 2.133,0 1.067,2.133 -1.067,2.133 0,5.333 1.067,8.533 1.067,3.2 -4.267,6.4 -10.667,5.333 -6.4,-1.067 -17.067,24.533 -17.067,24.533 l -25.6,-19.2 2.133,-12.8 c 0,10e-4 -4.267,-54.399 35.2,-47.999 z"
   id="path1585" />

</g>
        <path
           style="fill:#415a6b"
           d="m 57.258,44.8 5.333,-2.133 c 0,0 -1.067,-5.333 0,-9.6 1.067,-5.333 -1.067,-12.8 -4.267,-16 -3.2,-3.2 14.933,-1.067 16,1.067 0,0 3.2,-10.667 -3.2,-14.933 C 64.724,-1.065 49.792,0 40.192,3.2 c -9.6,3.2 -16,14.933 -17.067,23.467 -1.067,8.534 12.8,35.2 12.8,35.2 0,0 7.467,-1.067 7.467,-3.2 0,-2.133 -2.133,-8.533 0,-16 3.2,-7.467 11.733,-5.334 13.866,2.133 z"
           id="path1589" />
        <ellipse
           transform="matrix(-0.5181,-0.8553,0.8553,-0.5181,39.192,111.5612)"
           style="fill:#ffd15c"
           cx="51.022999"
           cy="44.740002"
           rx="9.6000004"
           ry="6.4000001"
           id="ellipse1591" />
        <path
           style="fill:#f7b64c"
           d="m 75.392,69.333 c 0,0 -9.6,-2.133 -18.133,-11.733 0,0 2.133,8.533 12.8,17.067 1.066,-2.134 3.199,-4.267 5.333,-5.334 z"
           id="path1593" />
        <path
           style="fill:#e8eae9"
           d="m 34.858,65.067 c 0,0 16,2.133 22.4,7.467 6.4,5.334 11.734,17.066 11.734,17.066 l -3.2,12.8 -33.067,-29.867 z"
           id="path1595" />
        <path
           style="fill:#344a5e"
           d="m 92.458,166.4 c 0,0 -2.133,19.2 -1.067,29.867 1.067,10.667 13.867,48 18.133,58.667 4.266,10.667 -2.133,19.2 -11.733,24.533 -8.533,5.333 -57.6,16 -73.6,10.667 -16,-5.333 -20.266,-8.534 -20.266,-8.534 0,0 2.133,-66.133 2.133,-78.933 0,-12.8 -7.466,-74.667 -5.333,-85.334 2.133,-10.667 20.267,-37.333 28.8,-38.4 9.6,-1.067 9.6,-1.067 9.6,-1.067 0,0 22.4,8.533 35.2,28.8 12.8,20.267 18.133,26.667 18.133,59.734 z"
           id="path1597" />
        <g
           id="g1607">
	<path
   style="fill:#415a6b"
   d="m 33.792,70.4 c 0,0 10.667,1.067 17.067,6.4 6.4,5.333 22.4,26.667 28.8,36.267 7.467,9.6 11.733,19.2 11.733,29.867 0,10.667 0,25.6 0,25.6 0,0 0,-20.267 -3.2,-27.733 -3.2,-7.467 -10.667,-22.4 -16,-29.867 -5.333,-7.467 -17.067,-21.333 -24.533,-25.6 -6.4,-6.4 -18.133,-6.4 -18.133,-6.4 z"
   id="path1599" />

	<path
   style="fill:#415a6b"
   d="m 139.392,206.933 -58.667,2.133 c 0,0 -19.2,1.067 -26.667,-6.4 -6.4,-6.4 -19.2,-51.2 -21.333,-59.733 v 0 0 c 0,0 0,0 0,-1.067 v 0 c 0,-2.133 -1.067,-5.333 -1.067,-8.533 -1.067,-18.133 8.533,-32 20.267,-32 11.734,0 21.333,12.8 23.467,29.867 0,2.133 0,4.267 1.067,6.4 1.067,7.467 3.2,21.333 3.2,25.6 0,5.333 2.133,10.667 2.133,12.8 0,2.133 2.133,-1.067 3.2,0 1.067,1.067 6.4,3.2 11.733,3.2 5.333,0 36.267,-4.267 36.267,-4.267 0,0 10.666,17.067 6.4,32 z"
   id="path1601" />

	<path
   style="fill:#415a6b"
   d="m 112.725,426.667 c 0,0 11.733,-2.133 23.467,-3.2 11.733,-2.133 21.333,0 33.067,-3.2 11.734,-3.2 24.533,-9.6 25.6,-10.667 0,0 2.133,1.067 0,3.2 -2.133,2.133 -17.067,8.533 -30.933,11.733 -13.867,3.2 -26.667,2.133 -26.667,2.133 l 1.067,3.2 -24.533,5.333 c -0.001,-2.132 -2.135,-6.399 -1.068,-8.532 z"
   id="path1603" />

	<path
   style="fill:#415a6b"
   d="m 1.792,500.267 c 0,0 13.867,2.133 21.333,3.2 7.466,1.067 7.467,5.333 22.4,5.333 14.933,0 37.333,0 39.467,-3.2 0,0 2.133,2.133 -1.067,3.2 -4.267,3.2 -22.4,3.2 -34.133,3.2 -12.8,0 -21.333,-3.2 -25.6,-5.333 v 3.2 l -22.4,-2.133 c -2.134,-3.201 0,-7.467 0,-7.467 z"
   id="path1605" />

</g>
        <polygon
           style="fill:#e8eae9"
           points="312.192,279.467 511.658,279.467 511.658,512 102.058,512 102.058,433.067 207.658,433.067 207.658,356.267 312.192,356.267 "
           id="polygon1609" />
        <path
           style="fill:#66c6b9"
           d="m 511.658,146.133 c -52.267,-33.067 -104.533,33.067 -156.8,0 0,-39.467 0,-78.933 0,-118.4 52.267,33.067 104.533,-33.067 156.8,0 0,39.467 0,78.934 0,118.4 z"
           id="path1611" />
        <g
           id="g1613">
</g>
        <g
           id="g1615">
</g>
        <g
           id="g1617">
</g>
        <g
           id="g1619">
</g>
        <g
           id="g1621">
</g>
        <g
           id="g1623">
</g>
        <g
           id="g1625">
</g>
        <g
           id="g1627">
</g>
        <g
           id="g1629">
</g>
        <g
           id="g1631">
</g>
        <g
           id="g1633">
</g>
        <g
           id="g1635">
</g>
        <g
           id="g1637">
</g>
        <g
           id="g1639">
</g>
        <g
           id="g1641">
</g>
      </g>
    </g>
  </g>
</svg>
