<?xml version="1.0" encoding="UTF-8" standalone="no"?>
<svg
   xmlns:serif="http://www.serif.com/"
   xmlns:dc="http://purl.org/dc/elements/1.1/"
   xmlns:cc="http://creativecommons.org/ns#"
   xmlns:rdf="http://www.w3.org/1999/02/22-rdf-syntax-ns#"
   xmlns:svg="http://www.w3.org/2000/svg"
   xmlns="http://www.w3.org/2000/svg"
   xmlns:sodipodi="http://sodipodi.sourceforge.net/DTD/sodipodi-0.dtd"
   xmlns:inkscape="http://www.inkscape.org/namespaces/inkscape"
   width="440.578"
   height="80"
   viewBox="0 0 440.57798 80"
   version="1.1"
   xml:space="preserve"
   style="clip-rule:evenodd;fill-rule:evenodd;stroke-linejoin:round;stroke-miterlimit:2"
   id="svg159"
   sodipodi:docname="rimac.svg"
   inkscape:version="1.0.1 (3bc2e813f5, 2020-09-07)"><metadata
     id="metadata165"><rdf:RDF><cc:Work
         rdf:about=""><dc:format>image/svg+xml</dc:format><dc:type
           rdf:resource="http://purl.org/dc/dcmitype/StillImage" /><dc:title /></cc:Work></rdf:RDF></metadata><defs
     id="defs163" /><sodipodi:namedview
     pagecolor="#ffffff"
     bordercolor="#666666"
     borderopacity="1"
     objecttolerance="10"
     gridtolerance="10"
     guidetolerance="10"
     inkscape:pageopacity="0"
     inkscape:pageshadow="2"
     inkscape:window-width="1317"
     inkscape:window-height="712"
     id="namedview161"
     showgrid="false"
     inkscape:zoom="0.21281741"
     inkscape:cx="719.66401"
     inkscape:cy="226.49169"
     inkscape:window-x="49"
     inkscape:window-y="28"
     inkscape:window-maximized="1"
     inkscape:current-layer="svg159"
     inkscape:document-rotation="0" /><g
     id="Layer-1"
     serif:id="Layer 1"
     transform="matrix(0.30490396,0,0,0.30490396,-315.37314,-309.17515)"><path
       d="m 1856.43,1014.2 c -13.254,-0.345 -22.871,4.359 -34.221,19.705 l -133.666,181.279 -51.45,-177.359 c -5.313,-17.929 -17.005,-23.891 -27.775,-23.816 -16.279,0.096 -24.509,6.879 -33.067,22.154 l -117.779,236.446 h 65.842 l 79.741,-163.004 49.8,163.004 h 55 l 120.384,-162.092 -0.617,162.092 h 56.537 l -0.42,-227.167 c 0,-21.996 -14.184,-30.867 -28.309,-31.242"
       style="fill:#e32018;fill-rule:nonzero"
       id="path148" /><path
       d="m 1379.18,1056.18 -53.113,216.413 h 60.196 l 52.354,-216.413 z"
       style="fill:#e32018;fill-rule:nonzero"
       id="path150" /><path
       d="m 1276.52,1117.85 c 3.262,-28.708 -13.446,-61.662 -73.484,-61.662 h -116.287 l -52.413,216.416 h 59.584 l 19.683,-81.266 h 30.617 l 52.858,81.266 h 64.967 l -59.271,-86.162 c 52.604,-13.059 70.475,-39.871 73.746,-68.592 m -111.48,36.704 h -42.533 l 15.854,-65.283 h 44.967 c 23.833,0 36.25,11.15 33.917,31.642 -2.409,21.154 -23.267,33.641 -52.205,33.641"
       style="fill:#e32018;fill-rule:nonzero"
       id="path152" /><path
       d="m 2132.94,1272.6 h 57.133 l -54.387,-199.363 c -7.18,-22.758 -21.259,-28.754 -35.955,-27.558 -9.183,0.746 -18.75,4.683 -28.666,17.783 L 1928.061,1272.6 h 58.525 l 29.033,-44.125 106.287,-0.109 z m -92.729,-80.479 52.554,-79.084 19.971,79.084 z"
       style="fill:#e32018;fill-rule:nonzero"
       id="path154" /><path
       d="m 2371.63,1232.59 c -48.363,-0.716 -75.954,-28.008 -72.017,-62.646 5.325,-46.82 48.121,-75.32 107.954,-74.883 17.646,0.138 40.325,1.358 61.192,6.683 l 10.55,-43.379 c -16.85,-4.046 -45.75,-7.133 -64.642,-7.133 -102.641,0 -167.796,47.383 -175.812,117.771 -7.1,62.433 37.079,107.383 132.229,107.383 19.104,0 35.767,-1.629 59.233,-5.408 l 11.513,-47.325 c -22.85,6.116 -41.121,9.366 -70.2,8.937"
       style="fill:#e32018;fill-rule:nonzero"
       id="path156" /></g></svg>
