<?xml version="1.0" encoding="UTF-8" standalone="no"?>
<svg
   xmlns:dc="http://purl.org/dc/elements/1.1/"
   xmlns:cc="http://creativecommons.org/ns#"
   xmlns:rdf="http://www.w3.org/1999/02/22-rdf-syntax-ns#"
   xmlns:svg="http://www.w3.org/2000/svg"
   xmlns="http://www.w3.org/2000/svg"
   xmlns:sodipodi="http://sodipodi.sourceforge.net/DTD/sodipodi-0.dtd"
   xmlns:inkscape="http://www.inkscape.org/namespaces/inkscape"
   width="179.19917"
   height="80"
   viewBox="0 0 179.19917 80"
   version="1.1"
   xml:space="preserve"
   style="clip-rule:evenodd;fill-rule:evenodd;stroke-linejoin:round;stroke-miterlimit:2"
   id="svg551"
   sodipodi:docname="lapositivaseguros.svg"
   inkscape:version="1.0.1 (3bc2e813f5, 2020-09-07)"><metadata
     id="metadata557"><rdf:RDF><cc:Work
         rdf:about=""><dc:format>image/svg+xml</dc:format><dc:type
           rdf:resource="http://purl.org/dc/dcmitype/StillImage" /><dc:title></dc:title></cc:Work></rdf:RDF></metadata><defs
     id="defs555" /><sodipodi:namedview
     pagecolor="#ffffff"
     bordercolor="#666666"
     borderopacity="1"
     objecttolerance="10"
     gridtolerance="10"
     guidetolerance="10"
     inkscape:pageopacity="0"
     inkscape:pageshadow="2"
     inkscape:window-width="1317"
     inkscape:window-height="712"
     id="namedview553"
     showgrid="false"
     inkscape:zoom="0.96058269"
     inkscape:cx="125.89795"
     inkscape:cy="184.29058"
     inkscape:window-x="49"
     inkscape:window-y="28"
     inkscape:window-maximized="1"
     inkscape:current-layer="svg551"
     inkscape:document-rotation="0" /><g
     id="g549"
     transform="scale(0.07679975)"><rect
       x="0"
       y="0"
       width="2333.3301"
       height="1041.67"
       style="fill:#ff6d46"
       id="rect507" /><path
       d="m 1723.53,877.638 c 111.666,1.662 210.416,-0.421 295.416,-5.834 l 29.167,-170.833 C 1582.28,775.554 1161.03,776.388 784.363,703.054 651.446,677.638 531.446,643.471 423.53,601.804 345.196,571.388 285.196,541.8 243.946,513.471 c 222.084,169.167 555.417,280 1001.25,332.917 153.334,17.916 312.5,28.333 478.334,31.25 z"
       style="fill:#ffffff;fill-rule:nonzero"
       id="path509" /><path
       d="m 2095.62,249.721 c -4.167,-15.833 -15.833,-23.333 -35,-23.333 -31.667,0 -51.25,0 -59.167,0.416 -20.833,0.834 -37.083,3.75 -49.166,7.917 l -20.834,37.5 29.584,-10.833 c 22.5,-6.667 40.833,-9.584 55.833,-7.917 17.083,1.25 26.25,6.667 26.667,16.25 0,9.167 -7.917,18.333 -24.167,26.246 -7.083,3.754 -15.833,6.671 -27.083,8.333 -13.334,1.671 -22.917,3.338 -30,4.167 -25.834,3.754 -47.5,12.921 -64.584,27.504 -8.333,7.5 -14.583,15.833 -19.166,25 -5,10.833 -6.667,20.413 -4.167,29.167 5.417,22.083 33.333,31.666 82.083,27.5 l 25,-29.167 c -8.75,2.917 -17.916,4.167 -26.666,4.167 -17.917,0.833 -27.084,-5.004 -27.5,-16.667 -0.417,-12.083 5.416,-21.671 17.083,-28.333 6.25,-3.334 18.333,-7.921 37.083,-12.917 17.084,-5.421 32.084,-9.587 45.417,-13.333 l -15.833,42.916 c -11.667,29.58 -20,45.834 -25,49.167 h 56.25 c 22.083,-56.25 38.333,-95 47.5,-116.25 7.916,-18.333 10,-34.587 5.833,-47.5 z"
       style="fill:#ffffff;fill-rule:nonzero"
       id="path511" /><path
       d="m 1764.78,226.388 h -54.167 c 3.75,126.25 6.667,188.75 8.333,187.083 0.834,-0.837 10.834,-1.25 30,-0.837 9.584,0.42 19.167,0.42 28.334,0.837 l 145.833,-187.083 h -54.167 L 1764.78,371.804 Z"
       style="fill:#ffffff;fill-rule:nonzero"
       id="path513" /><path
       d="m 1712.28,198.888 14.166,-35.417 h -55.833 l -11.667,35.417 z"
       style="fill:#ffffff;fill-rule:nonzero"
       id="path515" /><path
       d="m 1487.28,198.888 14.166,-35.417 h -55.833 l -11.667,35.417 z"
       style="fill:#ffffff;fill-rule:nonzero"
       id="path517" /><path
       d="m 1531.45,226.388 h -29.166 l -15.834,39.583 h 27.917 l -8.333,22.5 c -6.25,17.5 -11.667,31.667 -16.667,43.333 -9.583,24.167 -15.417,38.75 -16.667,43.75 -4.166,16.246 -2.083,28.334 6.667,35.417 6.667,5.417 21.25,7.083 43.75,5.417 11.667,-1.25 22.083,-2.917 32.083,-5 l 19.584,-35.417 c -7.5,3.329 -17.917,6.25 -30,7.496 -8.75,1.254 -13.334,-4.579 -14.167,-16.667 -1.25,-10.829 0.833,-23.746 6.25,-37.912 3.75,-10.417 9.583,-24.167 17.083,-41.254 l 10.417,-22.496 h 50 l 12.917,-38.75 h -50 l 16.666,-41.667 -53.75,12.083 z"
       style="fill:#ffffff;fill-rule:nonzero"
       id="path519" /><path
       d="m 1379.78,245.554 2.083,-13.333 c -4.167,-0.837 -9.583,-1.667 -16.667,-2.921 -13.333,-1.662 -27.083,-2.496 -40.416,-2.496 -17.917,0 -33.75,3.334 -46.667,10 -16.25,7.917 -28.333,20 -35.833,37.084 -5.834,13.333 -4.584,27.083 4.583,40.416 4.583,7.084 15.833,18.75 33.75,33.746 7.5,7.088 8.75,15.421 3.75,25.421 -5.417,10.833 -15,16.667 -29.167,17.5 -15,0.829 -28.333,-1.254 -40,-6.667 l -13.75,-7.916 -8.75,35.416 20.417,5.417 c 15.417,3.746 28.333,5.417 39.167,4.583 20.833,-1.25 38.75,-5.416 53.333,-12.083 22.917,-10 35.833,-25.833 38.333,-47.087 2.5,-17.08 -5.833,-32.913 -23.75,-47.496 -9.583,-7.5 -15.416,-12.921 -17.5,-15.417 -5,-6.25 -6.25,-12.5 -4.583,-19.167 3.333,-13.754 15.417,-20.416 35.833,-20.416 18.334,0 31.25,3.75 39.167,12.083 2.5,-7.504 4.583,-16.25 6.667,-26.667 z"
       style="fill:#ffffff;fill-rule:nonzero"
       id="path521" /><path
       d="m 1421.45,226.388 c -1.25,10 -10.416,37.916 -26.25,82.916 -17.5,49.163 -32.083,84.167 -42.5,104.167 h 55.834 l 68.75,-187.083 z"
       style="fill:#ffffff;fill-rule:nonzero"
       id="path523" /><path
       d="m 1702.28,226.388 h -55.834 c -1.25,10 -10.416,37.916 -26.25,82.916 -17.5,49.163 -32.083,84.167 -42.5,104.167 h 55.834 z"
       style="fill:#ffffff;fill-rule:nonzero"
       id="path525" /><path
       d="m 1135.2,226.388 c -25.416,0 -46.666,2.912 -62.916,9.583 -21.667,8.333 -41.25,24.167 -58.334,47.083 -24.166,31.25 -33.75,61.25 -29.166,89.584 5.416,32.916 30.833,49.166 75.833,49.166 45,0 81.25,-15 109.583,-45 23.334,-25 35.417,-53.333 36.25,-83.75 0.834,-44.583 -22.916,-66.666 -71.25,-66.666 z m -48.75,41.666 c 10,-4.583 21.667,-7.083 35.417,-7.083 12.083,0 21.25,3.333 26.667,9.583 5.416,6.663 7.916,18.334 6.666,34.167 -1.666,19.583 -10,37.5 -24.583,55.417 -17.5,20 -37.5,30 -60.417,30 -22.5,0 -34.166,-11.25 -35.833,-32.917 -1.667,-19.587 4.167,-38.75 17.5,-58.75 10,-14.583 21.25,-24.583 34.583,-30.417 z"
       style="fill:#ffffff;fill-rule:nonzero"
       id="path527" /><path
       d="m 843.95,163.888 c -1.25,10.833 -17.083,55.833 -47.083,134.583 -15,39.583 -29.583,77.917 -44.583,115 h 58.333 c 0,-2.921 9.167,-30.417 27.5,-82.917 20.833,-59.166 33.75,-100.833 39.583,-125.833 l 53.75,0.833 c 13.75,0 22.5,2.913 25.834,9.584 2.5,5.416 2.083,12.916 -2.5,23.333 -5,11.25 -12.917,20.833 -24.584,27.917 -10.833,6.662 -21.25,10 -32.083,10 H 868.95 l -4.166,33.333 13.75,2.083 c 11.25,1.25 23.333,2.084 36.25,2.084 24.166,0 46.666,-11.671 67.083,-35 16.667,-18.338 27.083,-37.088 32.083,-55.838 3.75,-14.583 1.25,-27.912 -7.5,-39.996 -9.166,-12.916 -21.666,-19.166 -37.5,-19.166 z"
       style="fill:#ffffff;fill-rule:nonzero"
       id="path529" /><path
       d="m 361.034,258.054 c 11.666,-32.5 22.5,-64.17 32.916,-94.166 h -59.583 c -18.333,56.666 -40.833,115 -66.25,175.829 -12.5,30.004 -23.75,55.004 -32.5,73.754 H 418.95 l 16.667,-37.5 H 314.784 c 7.5,-12.917 22.5,-52.083 46.25,-117.917 z"
       style="fill:#ffffff;fill-rule:nonzero"
       id="path531" /><path
       d="m 576.45,226.804 c -20.833,0.834 -37.5,3.75 -49.166,7.917 l -20.834,37.5 29.167,-10.833 c 22.917,-6.667 41.667,-9.584 56.25,-7.917 17.5,1.25 26.25,6.667 26.25,16.25 0.417,9.167 -7.5,18.333 -23.333,26.246 -7.5,3.754 -16.25,6.671 -27.5,8.333 -12.917,1.671 -22.917,3.338 -29.584,4.167 -26.25,3.754 -47.916,12.921 -65,27.504 -8.333,7.5 -14.583,15.833 -19.166,25 -5.417,10.833 -6.667,20.413 -4.167,29.167 5.417,22.083 33.333,31.666 82.083,27.5 l 25,-29.167 c -9.166,2.917 -17.916,4.167 -27.083,4.167 -17.5,0.833 -27.083,-5.004 -27.083,-16.667 -0.417,-12.083 5.416,-21.671 17.5,-28.333 5.416,-3.334 17.916,-7.921 36.666,-12.917 16.667,-5.421 32.084,-9.587 45.834,-13.333 l -16.25,42.916 c -11.667,29.58 -20,45.834 -25,49.167 h 55.833 c 22.917,-56.25 38.75,-95 47.917,-116.25 7.5,-18.333 9.583,-34.587 5.833,-47.5 -4.583,-15.833 -15.833,-23.333 -35,-23.333 -31.25,0 -51.25,0 -59.167,0.416 z"
       style="fill:#ffffff;fill-rule:nonzero"
       id="path533" /><path
       d="m 1600.62,550.971 c 4.167,-8.333 8.333,-16.25 12.5,-23.754 -11.25,-1.246 -25,-2.083 -40.833,-2.496 -24.584,-0.417 -47.084,10.417 -67.084,32.917 -10.833,12.083 -15.416,25 -13.75,38.75 1.25,13.333 7.084,20 17.917,20 19.583,0 35.833,-5.838 48.333,-17.5 -9.166,19.166 -16.666,31.25 -22.916,35.833 -4.167,3.333 -13.334,4.996 -26.25,5.417 -8.75,0 -17.084,-0.834 -23.75,-2.917 l -7.5,-2.917 -2.917,14.584 7.5,2.916 c 6.25,2.084 14.167,3.334 22.917,3.334 10.416,0 17.916,-0.417 21.666,-1.25 7.5,-1.25 15,-4.584 22.917,-9.584 7.5,-5 14.583,-13.75 20.833,-26.25 5.834,-15 10,-25 12.5,-30.833 3.334,-6.667 8.75,-18.75 17.917,-36.25 z m -36.25,-8.333 c 5.417,0 10.417,0 15.417,0.833 -6.25,15.833 -12.5,29.579 -20,40.833 -5.834,7.917 -14.167,12.5 -25.834,13.334 -11.25,1.25 -17.5,-1.671 -19.583,-8.334 -2.083,-5.837 0,-13.333 5.417,-21.666 5,-7.5 11.25,-13.75 19.166,-19.167 5.417,-3.75 13.75,-5.833 25.417,-5.833 z"
       style="fill:#ffffff;fill-rule:nonzero"
       id="path535" /><path
       d="m 1666.03,525.971 h -29.167 c -7.083,19.167 -15,37.083 -24.583,53.75 -6.667,12.079 -7.917,22.083 -3.334,28.746 4.167,6.671 12.5,9.587 25,9.587 10.417,0 20,-2.916 30,-10 4.584,-3.754 8.75,-7.083 11.667,-10.416 l -7.083,17.5 26.25,0.416 c 1.25,-14.583 3.75,-27.083 7.083,-36.666 1.667,-6.25 7.083,-16.667 15.833,-32.084 4.584,-7.5 8.334,-14.166 12.084,-20.833 h -25.834 l -1.25,7.496 c -2.083,7.087 -5.416,15.421 -11.25,25.837 -8.75,15.83 -13.75,25 -15.416,27.084 -6.667,8.75 -15.834,13.333 -26.25,13.333 -7.917,0 -12.5,-2.917 -13.75,-8.75 -0.834,-4.583 0,-11.671 3.333,-21.25 2.5,-7.087 7.917,-16.667 15.417,-28.333 4.166,-5.838 7.5,-10.834 11.25,-15.417 z"
       style="fill:#ffffff;fill-rule:nonzero"
       id="path537" /><path
       d="m 1453.95,523.888 c -25,0 -44.166,10 -58.333,30.412 -6.25,8.334 -9.583,17.088 -11.667,25.838 -1.666,9.166 -0.833,15.829 2.084,21.666 4.166,8.334 12.083,13.334 22.916,14.996 7.5,0.838 20,0.838 37.5,-1.246 l 14.167,-17.916 c -7.083,1.666 -14.583,2.496 -22.5,3.333 -15.417,1.246 -25,0 -28.333,-5.004 -3.75,-4.579 -4.167,-10.417 -2.084,-17.496 l 4.167,-9.587 69.167,0.837 c 3.75,-7.917 5,-15.421 5,-22.917 -0.834,-15.42 -11.667,-22.916 -32.084,-22.916 z m -27.916,25 c 9.166,-6.667 18.333,-10.417 26.25,-10.417 7.916,0 12.083,3.329 12.916,10.417 0.834,3.329 0,6.666 -0.833,10 l -49.583,0.416 z"
       style="fill:#ffffff;fill-rule:nonzero"
       id="path539" /><path
       d="m 1385.62,517.638 8.333,-20.834 c -8.75,-2.083 -18.75,-2.92 -29.583,-2.083 -20.833,0.833 -35.833,7.496 -44.167,20.833 -6.25,10.417 -8.75,18.75 -7.083,25.417 1.667,5.417 7.5,12.083 17.083,19.167 7.917,6.25 11.667,12.912 11.25,20.833 0,9.583 -7.5,14.996 -22.916,17.5 -9.584,1.25 -17.917,0.833 -25.417,-1.667 l -8.333,-4.583 -8.334,20 17.084,3.75 c 13.333,2.5 24.583,2.5 34.166,0.829 11.25,-2.496 20,-7.079 27.084,-13.746 7.083,-7.087 11.25,-15.833 12.5,-26.25 1.25,-7.083 -4.167,-15.416 -15.417,-25.833 -10.417,-9.583 -14.583,-17.917 -12.083,-25 3.333,-8.75 10.833,-13.337 22.916,-13.75 10.417,0 18.334,1.667 22.917,5.417 z"
       style="fill:#ffffff;fill-rule:nonzero"
       id="path541" /><path
       d="m 1974.78,540.554 c 7.916,0.834 13.333,2.917 17.5,5.834 l 7.5,-17.5 c -7.917,-2.5 -16.667,-4.167 -26.25,-4.167 -19.167,-0.833 -32.084,4.579 -38.75,15.833 -5,8.334 -6.25,15.417 -4.167,20.834 1.25,3.329 5,7.916 10.833,13.333 6.25,5.833 9.167,10.829 8.75,14.996 -0.416,6.25 -6.25,10.004 -18.333,12.5 -7.5,1.671 -14.583,0.837 -20.417,-2.083 l -6.666,-4.167 -6.667,17.087 14.583,2.5 c 10.834,1.667 20.417,1.667 28.334,0 9.583,-2.083 17.083,-5.416 22.083,-10.416 5.833,-4.584 9.167,-11.667 10.417,-20 0.833,-5.838 -2.5,-12.5 -9.584,-19.167 -7.083,-6.667 -9.166,-12.5 -7.083,-18.333 2.083,-5.838 8.333,-8.334 17.917,-7.084 z"
       style="fill:#ffffff;fill-rule:nonzero"
       id="path543" /><path
       d="m 1778.53,525.971 h -24.584 c -0.833,8.333 -4.166,18.333 -10.416,30 -3.334,6.25 -8.334,15.833 -15,29.579 -7.084,14.584 -11.25,23.754 -13.75,27.921 h 29.166 c 1.25,-9.583 2.917,-17.504 5.417,-24.167 2.5,-6.666 6.25,-14.17 10.833,-21.666 6.25,-10.417 12.5,-16.667 17.917,-19.588 5,-2.496 11.25,-3.329 18.333,-2.496 3.75,0.413 6.667,1.25 9.167,2.084 l 7.5,-22.917 c -4.167,0 -9.167,0.413 -15,2.083 -11.25,2.496 -20,7.5 -25.833,14.996 z"
       style="fill:#ffffff;fill-rule:nonzero"
       id="path545" /><path
       d="m 1841.45,529.3 c -8.333,3.754 -17.083,10.417 -27.5,20.421 -13.333,13.333 -19.166,27.496 -16.666,43.333 2.083,16.25 12.5,24.584 31.25,24.584 14.583,0 27.083,-3.334 37.5,-9.584 9.583,-5.837 18.75,-15.416 27.5,-29.166 8.333,-13.334 10.833,-25.834 6.666,-37.088 -4.583,-11.246 -13.75,-17.079 -27.916,-17.079 -12.917,0 -22.917,1.667 -30.834,4.579 z m -9.583,27.504 c 7.083,-7.083 12.917,-12.083 18.333,-14.166 3.75,-1.25 10,-2.084 18.75,-2.084 5.834,0 8.75,3.75 10,11.25 1.25,7.5 0,14.996 -4.166,22.084 -10.417,18.75 -23.334,27.916 -38.75,27.916 -11.25,0 -16.667,-5.837 -16.25,-17.083 0.416,-10 4.583,-19.167 12.083,-27.917 z"
       style="fill:#ffffff;fill-rule:nonzero"
       id="path547" /></g></svg>
