<?xml version="1.0" encoding="utf-8"?>
<!-- Generator: Adobe Illustrator 25.0.0, SVG Export Plug-In . SVG Version: 6.00 Build 0)  -->
<svg version="1.1"
	 id="svg551" inkscape:version="1.0.1 (3bc2e813f5, 2020-09-07)" xmlns:cc="http://creativecommons.org/ns#" xmlns:dc="http://purl.org/dc/elements/1.1/" xmlns:inkscape="http://www.inkscape.org/namespaces/inkscape" xmlns:rdf="http://www.w3.org/1999/02/22-rdf-syntax-ns#" xmlns:sodipodi="http://sodipodi.sourceforge.net/DTD/sodipodi-0.dtd" xmlns:svg="http://www.w3.org/2000/svg"
	 xmlns="http://www.w3.org/2000/svg" xmlns:xlink="http://www.w3.org/1999/xlink" x="0px" y="0px" viewBox="0 0 179.2 80"
	 style="enable-background:new 0 0 179.2 80;" xml:space="preserve">
<style type="text/css">
	.st0{display:none;fill-rule:evenodd;clip-rule:evenodd;fill:#FF6D46;}
	.st1{fill:#FF6D46;}
</style>
<sodipodi:namedview  bordercolor="#666666" borderopacity="1" gridtolerance="10" guidetolerance="10" id="namedview553" inkscape:current-layer="svg551" inkscape:cx="125.89795" inkscape:cy="184.29058" inkscape:document-rotation="0" inkscape:pageopacity="0" inkscape:pageshadow="2" inkscape:window-height="712" inkscape:window-maximized="1" inkscape:window-width="1317" inkscape:window-x="49" inkscape:window-y="28" inkscape:zoom="0.96058269" objecttolerance="10" pagecolor="#ffffff" showgrid="false">
	</sodipodi:namedview>
<g id="g549" transform="scale(0.07679975)">
	<rect id="rect507" class="st0" width="2333.3" height="1041.7"/>
	<path id="path509" class="st1" d="M1723.5,877.6c111.7,1.7,210.4-0.4,295.4-5.8l29.2-170.8c-465.8,74.6-887.1,75.4-1263.7,2.1
		c-132.9-25.4-252.9-59.6-360.8-101.2c-78.3-30.4-138.3-60-179.6-88.3c222.1,169.2,555.4,280,1001.2,332.9
		C1398.5,864.3,1557.7,874.7,1723.5,877.6z"/>
	<path id="path511" class="st1" d="M2095.6,249.7c-4.2-15.8-15.8-23.3-35-23.3c-31.7,0-51.2,0-59.2,0.4c-20.8,0.8-37.1,3.7-49.2,7.9
		l-20.8,37.5l29.6-10.8c22.5-6.7,40.8-9.6,55.8-7.9c17.1,1.2,26.2,6.7,26.7,16.2c0,9.2-7.9,18.3-24.2,26.2
		c-7.1,3.8-15.8,6.7-27.1,8.3c-13.3,1.7-22.9,3.3-30,4.2c-25.8,3.8-47.5,12.9-64.6,27.5c-8.3,7.5-14.6,15.8-19.2,25
		c-5,10.8-6.7,20.4-4.2,29.2c5.4,22.1,33.3,31.7,82.1,27.5l25-29.2c-8.8,2.9-17.9,4.2-26.7,4.2c-17.9,0.8-27.1-5-27.5-16.7
		c-0.4-12.1,5.4-21.7,17.1-28.3c6.2-3.3,18.3-7.9,37.1-12.9c17.1-5.4,32.1-9.6,45.4-13.3l-15.8,42.9c-11.7,29.6-20,45.8-25,49.2
		h56.2c22.1-56.2,38.3-95,47.5-116.2C2097.7,278.9,2099.8,262.6,2095.6,249.7z"/>
	<path id="path513" class="st1" d="M1764.8,226.4h-54.2c3.8,126.2,6.7,188.7,8.3,187.1c0.8-0.8,10.8-1.2,30-0.8
		c9.6,0.4,19.2,0.4,28.3,0.8l145.8-187.1h-54.2l-104.2,145.4V226.4z"/>
	<path id="path515" class="st1" d="M1712.3,198.9l14.2-35.4h-55.8l-11.7,35.4H1712.3z"/>
	<path id="path517" class="st1" d="M1487.3,198.9l14.2-35.4h-55.8l-11.7,35.4H1487.3z"/>
	<path id="path519" class="st1" d="M1531.4,226.4h-29.2l-15.8,39.6h27.9l-8.3,22.5c-6.2,17.5-11.7,31.7-16.7,43.3
		c-9.6,24.2-15.4,38.7-16.7,43.7c-4.2,16.2-2.1,28.3,6.7,35.4c6.7,5.4,21.2,7.1,43.7,5.4c11.7-1.2,22.1-2.9,32.1-5l19.6-35.4
		c-7.5,3.3-17.9,6.2-30,7.5c-8.8,1.3-13.3-4.6-14.2-16.7c-1.2-10.8,0.8-23.7,6.2-37.9c3.8-10.4,9.6-24.2,17.1-41.3l10.4-22.5h50
		l12.9-38.7h-50l16.7-41.7l-53.7,12.1L1531.4,226.4z"/>
	<path id="path521" class="st1" d="M1379.8,245.6l2.1-13.3c-4.2-0.8-9.6-1.7-16.7-2.9c-13.3-1.7-27.1-2.5-40.4-2.5
		c-17.9,0-33.7,3.3-46.7,10c-16.2,7.9-28.3,20-35.8,37.1c-5.8,13.3-4.6,27.1,4.6,40.4c4.6,7.1,15.8,18.7,33.7,33.7
		c7.5,7.1,8.8,15.4,3.8,25.4c-5.4,10.8-15,16.7-29.2,17.5c-15,0.8-28.3-1.3-40-6.7l-13.8-7.9l-8.8,35.4l20.4,5.4
		c15.4,3.7,28.3,5.4,39.2,4.6c20.8-1.2,38.7-5.4,53.3-12.1c22.9-10,35.8-25.8,38.3-47.1c2.5-17.1-5.8-32.9-23.7-47.5
		c-9.6-7.5-15.4-12.9-17.5-15.4c-5-6.2-6.2-12.5-4.6-19.2c3.3-13.8,15.4-20.4,35.8-20.4c18.3,0,31.2,3.8,39.2,12.1
		C1375.6,264.7,1377.7,256,1379.8,245.6z"/>
	<path id="path523" class="st1" d="M1421.4,226.4c-1.2,10-10.4,37.9-26.2,82.9c-17.5,49.2-32.1,84.2-42.5,104.2h55.8l68.7-187.1
		L1421.4,226.4z"/>
	<path id="path525" class="st1" d="M1702.3,226.4h-55.8c-1.2,10-10.4,37.9-26.2,82.9c-17.5,49.2-32.1,84.2-42.5,104.2h55.8
		L1702.3,226.4z"/>
	<path id="path527" class="st1" d="M1135.2,226.4c-25.4,0-46.7,2.9-62.9,9.6c-21.7,8.3-41.2,24.2-58.3,47.1
		c-24.2,31.2-33.7,61.2-29.2,89.6c5.4,32.9,30.8,49.2,75.8,49.2s81.2-15,109.6-45c23.3-25,35.4-53.3,36.2-83.7
		C1207.3,248.5,1183.5,226.4,1135.2,226.4z M1086.4,268.1c10-4.6,21.7-7.1,35.4-7.1c12.1,0,21.2,3.3,26.7,9.6
		c5.4,6.7,7.9,18.3,6.7,34.2c-1.7,19.6-10,37.5-24.6,55.4c-17.5,20-37.5,30-60.4,30c-22.5,0-34.2-11.2-35.8-32.9
		c-1.7-19.6,4.2-38.7,17.5-58.7C1061.9,283.9,1073.1,273.9,1086.4,268.1z"/>
	<path id="path529" class="st1" d="M843.9,163.9c-1.2,10.8-17.1,55.8-47.1,134.6c-15,39.6-29.6,77.9-44.6,115h58.3
		c0-2.9,9.2-30.4,27.5-82.9c20.8-59.2,33.7-100.8,39.6-125.8l53.7,0.8c13.8,0,22.5,2.9,25.8,9.6c2.5,5.4,2.1,12.9-2.5,23.3
		c-5,11.2-12.9,20.8-24.6,27.9c-10.8,6.7-21.2,10-32.1,10h-29.2l-4.2,33.3l13.7,2.1c11.2,1.2,23.3,2.1,36.2,2.1
		c24.2,0,46.7-11.7,67.1-35c16.7-18.3,27.1-37.1,32.1-55.8c3.8-14.6,1.2-27.9-7.5-40c-9.2-12.9-21.7-19.2-37.5-19.2L843.9,163.9z"/>
	<path id="path531" class="st1" d="M361,258.1c11.7-32.5,22.5-64.2,32.9-94.2h-59.6c-18.3,56.7-40.8,115-66.2,175.8
		c-12.5,30-23.7,55-32.5,73.8h183.3l16.7-37.5H314.8C322.3,363.1,337.3,323.9,361,258.1z"/>
	<path id="path533" class="st1" d="M576.4,226.8c-20.8,0.8-37.5,3.7-49.2,7.9l-20.8,37.5l29.2-10.8c22.9-6.7,41.7-9.6,56.2-7.9
		c17.5,1.2,26.2,6.7,26.2,16.2c0.4,9.2-7.5,18.3-23.3,26.2c-7.5,3.8-16.2,6.7-27.5,8.3c-12.9,1.7-22.9,3.3-29.6,4.2
		c-26.2,3.8-47.9,12.9-65,27.5c-8.3,7.5-14.6,15.8-19.2,25c-5.4,10.8-6.7,20.4-4.2,29.2c5.4,22.1,33.3,31.7,82.1,27.5l25-29.2
		c-9.2,2.9-17.9,4.2-27.1,4.2c-17.5,0.8-27.1-5-27.1-16.7c-0.4-12.1,5.4-21.7,17.5-28.3c5.4-3.3,17.9-7.9,36.7-12.9
		c16.7-5.4,32.1-9.6,45.8-13.3L586,364.3c-11.7,29.6-20,45.8-25,49.2h55.8c22.9-56.2,38.7-95,47.9-116.2c7.5-18.3,9.6-34.6,5.8-47.5
		c-4.6-15.8-15.8-23.3-35-23.3C604.4,226.4,584.4,226.4,576.4,226.8z"/>
	<path id="path535" class="st1" d="M1600.6,551c4.2-8.3,8.3-16.2,12.5-23.8c-11.2-1.2-25-2.1-40.8-2.5
		c-24.6-0.4-47.1,10.4-67.1,32.9c-10.8,12.1-15.4,25-13.8,38.7c1.2,13.3,7.1,20,17.9,20c19.6,0,35.8-5.8,48.3-17.5
		c-9.2,19.2-16.7,31.2-22.9,35.8c-4.2,3.3-13.3,5-26.2,5.4c-8.8,0-17.1-0.8-23.8-2.9l-7.5-2.9l-2.9,14.6l7.5,2.9
		c6.2,2.1,14.2,3.3,22.9,3.3c10.4,0,17.9-0.4,21.7-1.2c7.5-1.2,15-4.6,22.9-9.6c7.5-5,14.6-13.8,20.8-26.2c5.8-15,10-25,12.5-30.8
		C1586,580.6,1591.4,568.5,1600.6,551z M1564.4,542.6c5.4,0,10.4,0,15.4,0.8c-6.2,15.8-12.5,29.6-20,40.8
		c-5.8,7.9-14.2,12.5-25.8,13.3c-11.2,1.2-17.5-1.7-19.6-8.3c-2.1-5.8,0-13.3,5.4-21.7c5-7.5,11.2-13.8,19.2-19.2
		C1544.4,544.7,1552.7,542.6,1564.4,542.6z"/>
	<path id="path537" class="st1" d="M1666,526h-29.2c-7.1,19.2-15,37.1-24.6,53.7c-6.7,12.1-7.9,22.1-3.3,28.7
		c4.2,6.7,12.5,9.6,25,9.6c10.4,0,20-2.9,30-10c4.6-3.8,8.7-7.1,11.7-10.4l-7.1,17.5l26.2,0.4c1.2-14.6,3.8-27.1,7.1-36.7
		c1.7-6.2,7.1-16.7,15.8-32.1c4.6-7.5,8.3-14.2,12.1-20.8h-25.8l-1.2,7.5c-2.1,7.1-5.4,15.4-11.2,25.8c-8.8,15.8-13.8,25-15.4,27.1
		c-6.7,8.7-15.8,13.3-26.2,13.3c-7.9,0-12.5-2.9-13.8-8.7c-0.8-4.6,0-11.7,3.3-21.2c2.5-7.1,7.9-16.7,15.4-28.3
		C1658.9,535.5,1662.3,530.6,1666,526z"/>
	<path id="path539" class="st1" d="M1453.9,523.9c-25,0-44.2,10-58.3,30.4c-6.2,8.3-9.6,17.1-11.7,25.8c-1.7,9.2-0.8,15.8,2.1,21.7
		c4.2,8.3,12.1,13.3,22.9,15c7.5,0.8,20,0.8,37.5-1.2l14.2-17.9c-7.1,1.7-14.6,2.5-22.5,3.3c-15.4,1.2-25,0-28.3-5
		c-3.7-4.6-4.2-10.4-2.1-17.5l4.2-9.6l69.2,0.8c3.7-7.9,5-15.4,5-22.9C1485.2,531.4,1474.4,523.9,1453.9,523.9z M1426,548.9
		c9.2-6.7,18.3-10.4,26.2-10.4c7.9,0,12.1,3.3,12.9,10.4c0.8,3.3,0,6.7-0.8,10l-49.6,0.4L1426,548.9z"/>
	<path id="path541" class="st1" d="M1385.6,517.6l8.3-20.8c-8.8-2.1-18.8-2.9-29.6-2.1c-20.8,0.8-35.8,7.5-44.2,20.8
		c-6.2,10.4-8.8,18.7-7.1,25.4c1.7,5.4,7.5,12.1,17.1,19.2c7.9,6.2,11.7,12.9,11.2,20.8c0,9.6-7.5,15-22.9,17.5
		c-9.6,1.2-17.9,0.8-25.4-1.7l-8.3-4.6l-8.3,20l17.1,3.8c13.3,2.5,24.6,2.5,34.2,0.8c11.2-2.5,20-7.1,27.1-13.7
		c7.1-7.1,11.2-15.8,12.5-26.2c1.2-7.1-4.2-15.4-15.4-25.8c-10.4-9.6-14.6-17.9-12.1-25c3.3-8.8,10.8-13.3,22.9-13.7
		C1373.1,512.2,1381,513.9,1385.6,517.6z"/>
	<path id="path543" class="st1" d="M1974.8,540.6c7.9,0.8,13.3,2.9,17.5,5.8l7.5-17.5c-7.9-2.5-16.7-4.2-26.2-4.2
		c-19.2-0.8-32.1,4.6-38.7,15.8c-5,8.3-6.2,15.4-4.2,20.8c1.2,3.3,5,7.9,10.8,13.3c6.2,5.8,9.2,10.8,8.8,15
		c-0.4,6.2-6.2,10-18.3,12.5c-7.5,1.7-14.6,0.8-20.4-2.1l-6.7-4.2l-6.7,17.1l14.6,2.5c10.8,1.7,20.4,1.7,28.3,0
		c9.6-2.1,17.1-5.4,22.1-10.4c5.8-4.6,9.2-11.7,10.4-20c0.8-5.8-2.5-12.5-9.6-19.2c-7.1-6.7-9.2-12.5-7.1-18.3
		C1958.9,541.8,1965.2,539.3,1974.8,540.6z"/>
	<path id="path545" class="st1" d="M1778.5,526h-24.6c-0.8,8.3-4.2,18.3-10.4,30c-3.3,6.2-8.3,15.8-15,29.6
		c-7.1,14.6-11.2,23.8-13.8,27.9h29.2c1.2-9.6,2.9-17.5,5.4-24.2c2.5-6.7,6.2-14.2,10.8-21.7c6.2-10.4,12.5-16.7,17.9-19.6
		c5-2.5,11.2-3.3,18.3-2.5c3.8,0.4,6.7,1.2,9.2,2.1l7.5-22.9c-4.2,0-9.2,0.4-15,2.1c-11.2,2.5-20,7.5-25.8,15L1778.5,526z"/>
	<path id="path547" class="st1" d="M1841.4,529.3c-8.3,3.8-17.1,10.4-27.5,20.4c-13.3,13.3-19.2,27.5-16.7,43.3
		c2.1,16.2,12.5,24.6,31.2,24.6c14.6,0,27.1-3.3,37.5-9.6c9.6-5.8,18.8-15.4,27.5-29.2c8.3-13.3,10.8-25.8,6.7-37.1
		c-4.6-11.2-13.7-17.1-27.9-17.1C1859.4,524.7,1849.4,526.4,1841.4,529.3z M1831.9,556.8c7.1-7.1,12.9-12.1,18.3-14.2
		c3.8-1.2,10-2.1,18.7-2.1c5.8,0,8.8,3.8,10,11.2c1.2,7.5,0,15-4.2,22.1c-10.4,18.7-23.3,27.9-38.7,27.9c-11.2,0-16.7-5.8-16.2-17.1
		C1820.2,574.7,1824.4,565.6,1831.9,556.8z"/>
</g>
</svg>
