<?xml version="1.0" encoding="UTF-8" standalone="no"?>
<svg
   xmlns:dc="http://purl.org/dc/elements/1.1/"
   xmlns:cc="http://creativecommons.org/ns#"
   xmlns:rdf="http://www.w3.org/1999/02/22-rdf-syntax-ns#"
   xmlns:svg="http://www.w3.org/2000/svg"
   xmlns="http://www.w3.org/2000/svg"
   xmlns:sodipodi="http://sodipodi.sourceforge.net/DTD/sodipodi-0.dtd"
   xmlns:inkscape="http://www.inkscape.org/namespaces/inkscape"
   version="1.1"
   id="svg1519"
   xml:space="preserve"
   width="353.72928"
   height="80"
   viewBox="0 0 353.72928 79.999999"
   sodipodi:docname="pacifico.svg"
   inkscape:version="1.0.1 (3bc2e813f5, 2020-09-07)"><metadata
     id="metadata1525"><rdf:RDF><cc:Work
         rdf:about=""><dc:format>image/svg+xml</dc:format><dc:type
           rdf:resource="http://purl.org/dc/dcmitype/StillImage" /><dc:title></dc:title></cc:Work></rdf:RDF></metadata><defs
     id="defs1523"><clipPath
       clipPathUnits="userSpaceOnUse"
       id="clipPath1535"><path
         d="m 258.781,737.378 c -0.102,-0.074 -0.201,-0.149 -0.301,-0.226 v 0 c -0.095,-0.074 -0.194,-0.142 -0.289,-0.219 v 0 h 0.015 c -4.307,-3.441 -7.033,-8.504 -7.033,-14.153 v 0 c 0,-5.422 2.51,-10.303 6.516,-13.728 v 0 h -0.019 c 4.193,-3.628 9.256,-6.275 14.839,-7.578 v 0 c -2.65,0.877 -4.572,3.28 -4.792,6.119 v 0 l -0.01,0.035 c -0.223,1.597 -0.333,3.205 -0.333,4.782 v 0 c 0,7.648 2.437,14.916 7.049,21.019 v 0 l 0.046,0.058 c 0.017,0.026 0.035,0.05 0.052,0.074 v 0 c 0.021,0.03 0.044,0.059 0.066,0.089 v 0 l 0.11,0.143 v -0.01 c 3.609,4.618 9.02,7.264 14.879,7.264 v 0 c 3.562,0 6.897,-0.991 9.742,-2.712 v 0 c -5.584,3.811 -12.326,6.052 -19.599,6.052 v 0 c -7.862,0 -15.11,-2.614 -20.938,-7.009"
         id="path1533" /></clipPath><clipPath
       clipPathUnits="userSpaceOnUse"
       id="clipPath1545"><path
         d="m 251.17273,744.38671 h 48.14543 v -42.9138 h -48.14543 z"
         id="path1543" /></clipPath><radialGradient
       fx="-0.04039"
       fy="-0.0123749"
       cx="0"
       cy="0"
       r="1"
       gradientUnits="userSpaceOnUse"
       gradientTransform="matrix(45.928726,0,0,-45.928726,282.34717,746.83887)"
       spreadMethod="pad"
       id="radialGradient1553"><stop
         style="stop-opacity:1;stop-color:#00b05a"
         offset="0"
         id="stop1547" /><stop
         style="stop-opacity:1;stop-color:#00b05a"
         offset="0.5"
         id="stop1549" /><stop
         style="stop-opacity:1;stop-color:#004e21"
         offset="1"
         id="stop1551" /></radialGradient><clipPath
       clipPathUnits="userSpaceOnUse"
       id="clipPath1563"><path
         d="M 0,841.89 H 595.28 V 0 H 0 Z"
         id="path1561" /></clipPath><radialGradient
       fx="0"
       fy="0"
       cx="0"
       cy="0"
       r="1"
       gradientUnits="userSpaceOnUse"
       gradientTransform="matrix(18.760864,0,0,18.760864,291.37598,724.65576)"
       spreadMethod="pad"
       id="radialGradient1589"><stop
         style="stop-opacity:1;stop-color:#f36c21"
         offset="0"
         id="stop1581" /><stop
         style="stop-opacity:1;stop-color:#f36c21"
         offset="0.680984"
         id="stop1583" /><stop
         style="stop-opacity:1;stop-color:#f36c21"
         offset="0.83513981"
         id="stop1585" /><stop
         style="stop-opacity:1;stop-color:#692700"
         offset="1"
         id="stop1587" /></radialGradient><radialGradient
       fx="0"
       fy="0"
       cx="0"
       cy="0"
       r="1"
       gradientUnits="userSpaceOnUse"
       gradientTransform="matrix(48.192078,0,0,48.192078,290.42529,721.80518)"
       spreadMethod="pad"
       id="radialGradient1613"><stop
         style="stop-opacity:1;stop-color:#088ac4"
         offset="0"
         id="stop1605" /><stop
         style="stop-opacity:1;stop-color:#088ac4"
         offset="0.456039"
         id="stop1607" /><stop
         style="stop-opacity:1;stop-color:#088ac4"
         offset="0.65151034"
         id="stop1609" /><stop
         style="stop-opacity:1;stop-color:#053451"
         offset="1"
         id="stop1611" /></radialGradient><radialGradient
       fx="0"
       fy="0"
       cx="0"
       cy="0"
       r="1"
       gradientUnits="userSpaceOnUse"
       gradientTransform="matrix(48.39003,0,0,48.39003,290.59082,721.85205)"
       spreadMethod="pad"
       id="radialGradient1637"><stop
         style="stop-opacity:1;stop-color:#007db4"
         offset="0"
         id="stop1629" /><stop
         style="stop-opacity:1;stop-color:#007db4"
         offset="0.456039"
         id="stop1631" /><stop
         style="stop-opacity:1;stop-color:#007db4"
         offset="0.7840542"
         id="stop1633" /><stop
         style="stop-opacity:1;stop-color:#003351"
         offset="1"
         id="stop1635" /></radialGradient><clipPath
       clipPathUnits="userSpaceOnUse"
       id="clipPath1647"><path
         d="M 0,841.89 H 595.28 V 0 H 0 Z"
         id="path1645" /></clipPath><clipPath
       clipPathUnits="userSpaceOnUse"
       id="clipPath1691"><path
         d="m 258.781,485.487 c -0.102,-0.074 -0.201,-0.149 -0.301,-0.225 v 0 c -0.095,-0.075 -0.194,-0.144 -0.289,-0.22 v 0 h 0.015 c -4.307,-3.441 -7.033,-8.504 -7.033,-14.153 v 0 c 0,-5.423 2.51,-10.303 6.516,-13.729 v 0 h -0.019 c 4.193,-3.627 9.256,-6.274 14.839,-7.579 v 0 c -2.65,0.879 -4.572,3.282 -4.792,6.121 v 0 l -0.01,0.035 c -0.223,1.596 -0.333,3.204 -0.333,4.781 v 0 c 0,7.649 2.437,14.917 7.049,21.019 v 0 l 0.046,0.059 c 0.017,0.025 0.035,0.049 0.052,0.074 v 0 c 0.021,0.03 0.044,0.059 0.066,0.087 v 0 l 0.11,0.143 v -0.008 c 3.609,4.62 9.02,7.267 14.879,7.267 v 0 c 3.562,0 6.897,-0.994 9.742,-2.715 v 0 c -5.584,3.811 -12.326,6.052 -19.599,6.052 v 0 c -7.862,0 -15.11,-2.614 -20.938,-7.009"
         id="path1689" /></clipPath><clipPath
       clipPathUnits="userSpaceOnUse"
       id="clipPath1701"><path
         d="m 251.17273,492.4963 h 48.14543 v -42.9152 h -48.14543 z"
         id="path1699" /></clipPath><radialGradient
       fx="-0.04039"
       fy="-0.0123749"
       cx="0"
       cy="0"
       r="1"
       gradientUnits="userSpaceOnUse"
       gradientTransform="matrix(45.928726,0,0,-45.928726,282.34717,494.94775)"
       spreadMethod="pad"
       id="radialGradient1709"><stop
         style="stop-opacity:1;stop-color:#00b05a"
         offset="0"
         id="stop1703" /><stop
         style="stop-opacity:1;stop-color:#00b05a"
         offset="0.5"
         id="stop1705" /><stop
         style="stop-opacity:1;stop-color:#004e21"
         offset="1"
         id="stop1707" /></radialGradient><clipPath
       clipPathUnits="userSpaceOnUse"
       id="clipPath1719"><path
         d="M 0,841.89 H 595.28 V 0 H 0 Z"
         id="path1717" /></clipPath><radialGradient
       fx="0"
       fy="0"
       cx="0"
       cy="0"
       r="1"
       gradientUnits="userSpaceOnUse"
       gradientTransform="matrix(18.761124,0,0,18.761124,291.37695,472.76514)"
       spreadMethod="pad"
       id="radialGradient1745"><stop
         style="stop-opacity:1;stop-color:#f36c21"
         offset="0"
         id="stop1737" /><stop
         style="stop-opacity:1;stop-color:#f36c21"
         offset="0.680984"
         id="stop1739" /><stop
         style="stop-opacity:1;stop-color:#f36c21"
         offset="0.83513981"
         id="stop1741" /><stop
         style="stop-opacity:1;stop-color:#692700"
         offset="1"
         id="stop1743" /></radialGradient><radialGradient
       fx="0"
       fy="0"
       cx="0"
       cy="0"
       r="1"
       gradientUnits="userSpaceOnUse"
       gradientTransform="matrix(48.149704,0,0,48.149704,290.42871,469.99609)"
       spreadMethod="pad"
       id="radialGradient1769"><stop
         style="stop-opacity:1;stop-color:#088ac4"
         offset="0"
         id="stop1761" /><stop
         style="stop-opacity:1;stop-color:#088ac4"
         offset="0.456039"
         id="stop1763" /><stop
         style="stop-opacity:1;stop-color:#088ac4"
         offset="0.65151034"
         id="stop1765" /><stop
         style="stop-opacity:1;stop-color:#053451"
         offset="1"
         id="stop1767" /></radialGradient><radialGradient
       fx="0"
       fy="0"
       cx="0"
       cy="0"
       r="1"
       gradientUnits="userSpaceOnUse"
       gradientTransform="matrix(48.39003,0,0,48.39003,290.59082,469.9458)"
       spreadMethod="pad"
       id="radialGradient1793"><stop
         style="stop-opacity:1;stop-color:#007db4"
         offset="0"
         id="stop1785" /><stop
         style="stop-opacity:1;stop-color:#007db4"
         offset="0.456039"
         id="stop1787" /><stop
         style="stop-opacity:1;stop-color:#007db4"
         offset="0.7840542"
         id="stop1789" /><stop
         style="stop-opacity:1;stop-color:#003351"
         offset="1"
         id="stop1791" /></radialGradient><clipPath
       clipPathUnits="userSpaceOnUse"
       id="clipPath1803"><path
         d="M 0,841.89 H 595.28 V 0 H 0 Z"
         id="path1801" /></clipPath></defs><sodipodi:namedview
     pagecolor="#ffffff"
     bordercolor="#666666"
     borderopacity="1"
     objecttolerance="10"
     gridtolerance="10"
     guidetolerance="10"
     inkscape:pageopacity="0"
     inkscape:pageshadow="2"
     inkscape:window-width="1317"
     inkscape:window-height="712"
     id="namedview1521"
     showgrid="false"
     showguides="true"
     inkscape:guide-bbox="true"
     inkscape:zoom="0.70047993"
     inkscape:cx="-106.4092"
     inkscape:cy="89.485146"
     inkscape:window-x="49"
     inkscape:window-y="28"
     inkscape:window-maximized="1"
     inkscape:current-layer="g1527"><sodipodi:guide
       position="1.7295707e-07,32.967999"
       orientation="0,-1"
       id="guide1874" /></sodipodi:namedview><g
     id="g1527"
     inkscape:groupmode="layer"
     inkscape:label="logo_cyan_y_blanco"
     transform="matrix(1.3333333,0,0,-1.3333333,-326.50399,993.0933)"><g
       id="g1936"
       transform="matrix(0.85572494,0,0,0.85572494,35.329788,107.45895)"><g
         id="g1529"><g
           id="g1531"
           clip-path="url(#clipPath1535)"><g
             id="g1537"><g
               id="g1539"><g
                 id="g1541"
                 clip-path="url(#clipPath1545)"><path
                   d="m 258.781,737.378 c -0.102,-0.074 -0.201,-0.149 -0.301,-0.226 v 0 c -0.095,-0.074 -0.194,-0.142 -0.289,-0.219 v 0 h 0.015 c -4.307,-3.441 -7.033,-8.504 -7.033,-14.153 v 0 c 0,-5.422 2.51,-10.303 6.516,-13.728 v 0 h -0.019 c 4.193,-3.628 9.256,-6.275 14.839,-7.578 v 0 c -2.65,0.877 -4.572,3.28 -4.792,6.119 v 0 l -0.01,0.035 c -0.223,1.597 -0.333,3.205 -0.333,4.782 v 0 c 0,7.648 2.437,14.916 7.049,21.019 v 0 l 0.046,0.058 c 0.017,0.026 0.035,0.05 0.052,0.074 v 0 c 0.021,0.03 0.044,0.059 0.066,0.089 v 0 l 0.11,0.143 v -0.01 c 3.609,4.618 9.02,7.264 14.879,7.264 v 0 c 3.562,0 6.897,-0.991 9.742,-2.712 v 0 c -5.584,3.811 -12.326,6.052 -19.599,6.052 v 0 c -7.862,0 -15.11,-2.614 -20.938,-7.009"
                   style="fill:url(#radialGradient1553);stroke:none"
                   id="path1555" /></g></g></g></g></g><g
         id="g1557"><g
           id="g1559"
           clip-path="url(#clipPath1563)"><g
             id="g1565"
             transform="translate(289.5757,741.0483)"><path
               d="m 0,0 c -5.858,0 -11.27,-2.646 -14.879,-7.267 v 0.012 l -0.109,-0.143 c -0.023,-0.03 -0.045,-0.059 -0.067,-0.089 -0.017,-0.024 -0.035,-0.049 -0.052,-0.074 l -0.045,-0.059 c -4.613,-6.103 -7.05,-13.37 -7.05,-21.018 0,-1.577 0.112,-3.185 0.333,-4.783 l 0.01,-0.035 c 0.24,-3.111 2.525,-5.706 5.576,-6.335 l 0.049,-0.016 c 2.345,-0.487 4.74,-0.735 7.114,-0.735 6.414,0 12.684,1.755 18.135,5.075 l 0.034,0.022 c 6.063,3.318 9.828,9.661 9.828,16.57 C 18.877,-8.467 10.408,0 0,0"
               style="fill:#ffffff;fill-opacity:1;fill-rule:nonzero;stroke:none"
               id="path1567" /></g></g></g><g
         id="g1569"><g
           id="g1571"><g
             id="g1577"><g
               id="g1579"><path
                 d="m 274.697,733.783 v 0.01 c 0,0 -0.956,-1.304 -1.042,-1.423 v 0 c 3.06,3.301 7.956,4.745 12.442,4.745 v 0 c 8.697,0 18.418,-7.579 18.418,-18.549 v 0 c 0,-3.412 -0.635,-9.465 -5.797,-12.911 v 0 c 6.211,3.341 9.734,10.054 9.734,16.518 v 0 c 0,6.86 -3.672,12.852 -9.149,16.171 v 0 c 0.005,-0.003 0.011,-0.007 0.015,-0.009 v 0 c -0.005,0.003 -0.01,0.006 -0.016,0.01 v 0 c -2.841,1.715 -6.171,2.702 -9.726,2.702 v 0 c -5.859,0 -11.27,-2.646 -14.879,-7.264 m 24.605,4.562 c -0.002,10e-4 -0.003,0.002 -0.005,0.003 v 0 c 0.002,-10e-4 0.003,-0.002 0.005,-0.003"
                 style="fill:url(#radialGradient1589);stroke:none"
                 id="path1591" /></g></g></g></g><g
         id="g1593"><g
           id="g1595"><g
             id="g1601"><g
               id="g1603"><path
                 d="m 258.367,737.066 c 0.037,0.029 0.076,0.057 0.113,0.086 v 0 c 0.002,0.002 0.004,0.002 0.004,0.003 v 0 c 0.004,0.004 0.009,0.008 0.011,0.01 v 0 0.004 c -0.042,-0.033 -0.085,-0.069 -0.128,-0.103"
                 style="fill:url(#radialGradient1613);stroke:none"
                 id="path1615" /></g></g></g></g><g
         id="g1617"><g
           id="g1619"><g
             id="g1625"><g
               id="g1627"><path
                 d="m 258.198,736.933 c -8.107,-6.379 -13.32,-16.271 -13.32,-27.387 v 0 c 0,-19.241 15.6,-34.842 34.841,-34.842 v 0 c 19.242,0 34.841,15.601 34.841,34.842 v 0 c 0,10.459 -4.614,19.832 -11.913,26.218 v 0 c 3.573,-3.434 5.805,-8.254 5.805,-13.591 v 0 c 0,-0.418 -0.016,-0.834 -0.043,-1.247 v 0 c -0.008,-0.14 -0.028,-0.277 -0.038,-0.417 v 0 c -0.026,-0.272 -0.048,-0.546 -0.084,-0.816 v 0 c -0.023,-0.166 -0.052,-0.327 -0.078,-0.49 v 0 c -0.04,-0.242 -0.077,-0.482 -0.124,-0.722 v 0 c -0.035,-0.175 -0.078,-0.347 -0.118,-0.52 v 0 c -0.051,-0.224 -0.1,-0.449 -0.162,-0.671 v 0 c -0.046,-0.175 -0.099,-0.352 -0.153,-0.526 v 0 c -0.063,-0.216 -0.127,-0.429 -0.199,-0.639 v 0 c -0.061,-0.176 -0.126,-0.352 -0.189,-0.526 v 0 c -0.078,-0.204 -0.153,-0.408 -0.237,-0.607 v 0 c -0.072,-0.178 -0.149,-0.351 -0.227,-0.524 v 0 c -0.086,-0.195 -0.175,-0.388 -0.269,-0.579 v 0 c -0.085,-0.175 -0.173,-0.346 -0.263,-0.516 v 0 c -0.097,-0.187 -0.198,-0.37 -0.301,-0.55 v 0 c -0.097,-0.172 -0.197,-0.34 -0.297,-0.505 v 0 c -0.11,-0.178 -0.222,-0.352 -0.337,-0.525 v 0 c -0.107,-0.166 -0.216,-0.329 -0.329,-0.491 v 0 c -0.12,-0.167 -0.242,-0.33 -0.367,-0.496 v 0 c -0.12,-0.159 -0.239,-0.315 -0.363,-0.473 v 0 c -0.131,-0.159 -0.263,-0.313 -0.396,-0.468 v 0 c -0.132,-0.154 -0.261,-0.305 -0.396,-0.454 v 0 c -0.139,-0.149 -0.284,-0.295 -0.426,-0.44 v 0 c -0.142,-0.145 -0.28,-0.291 -0.427,-0.432 v 0 c -0.146,-0.142 -0.304,-0.276 -0.457,-0.414 v 0 c -0.148,-0.135 -0.298,-0.273 -0.452,-0.403 v 0 c -0.161,-0.136 -0.333,-0.264 -0.498,-0.394 v 0 c -0.156,-0.123 -0.309,-0.249 -0.469,-0.366 v 0 c -0.321,-0.237 -0.652,-0.465 -0.99,-0.682 v 0 c -0.371,-0.237 -0.75,-0.463 -1.139,-0.676 v 0 l -0.035,-0.023 c -5.449,-3.319 -11.719,-5.075 -18.134,-5.075 v 0 c -2.374,0 -4.768,0.247 -7.113,0.735 v 0 l -0.05,0.017 c -0.269,0.055 -0.531,0.131 -0.786,0.216 v 0 c 0,0 0,0 0,0 v 0 c -0.35,0.082 -0.7,0.169 -1.05,0.26 v 0 c -0.112,0.033 -0.226,0.068 -0.339,0.098 v 0 c -0.309,0.086 -0.618,0.176 -0.924,0.269 v 0 c -0.162,0.051 -0.326,0.104 -0.49,0.155 v 0 c -0.278,0.092 -0.552,0.186 -0.825,0.282 v 0 c -0.142,0.05 -0.286,0.097 -0.424,0.15 v 0 c -0.375,0.137 -0.745,0.28 -1.114,0.431 v 0 c -0.166,0.066 -0.329,0.136 -0.493,0.209 v 0 c -0.236,0.099 -0.472,0.203 -0.707,0.309 v 0 c -0.17,0.076 -0.339,0.152 -0.509,0.231 v 0 c -0.296,0.142 -0.592,0.286 -0.883,0.435 v 0 c -0.202,0.104 -0.401,0.207 -0.6,0.312 v 0 c -0.228,0.12 -0.455,0.242 -0.679,0.368 v 0 c -0.177,0.098 -0.349,0.198 -0.522,0.299 v 0 c -0.206,0.12 -0.41,0.244 -0.613,0.367 v 0 c -0.16,0.098 -0.325,0.196 -0.485,0.297 v 0 c -0.314,0.199 -0.625,0.406 -0.934,0.614 v 0 c -0.172,0.115 -0.339,0.235 -0.509,0.355 v 0 c -0.176,0.123 -0.352,0.25 -0.527,0.378 v 0 c -0.171,0.127 -0.341,0.252 -0.511,0.381 v 0 c -0.195,0.149 -0.386,0.299 -0.577,0.451 v 0 c -0.124,0.099 -0.251,0.193 -0.372,0.293 v 0 h 0.005 c -0.255,0.208 -0.506,0.419 -0.754,0.634 v 0 h 0.019 c -0.004,0.003 -0.005,0.004 -0.009,0.007 v 0 c -0.131,0.109 -0.255,0.227 -0.38,0.342 v 0 c -0.125,0.113 -0.252,0.221 -0.373,0.338 v 0 c -0.126,0.121 -0.248,0.244 -0.371,0.366 v 0 c -0.115,0.116 -0.234,0.231 -0.346,0.351 v 0 c -0.12,0.125 -0.234,0.254 -0.349,0.383 v 0 c -0.11,0.12 -0.22,0.241 -0.327,0.365 v 0 c -0.11,0.132 -0.218,0.266 -0.326,0.398 v 0 c -0.103,0.128 -0.207,0.255 -0.308,0.383 v 0 c -0.103,0.137 -0.204,0.274 -0.301,0.412 v 0 c -0.098,0.133 -0.195,0.265 -0.287,0.402 v 0 c -0.095,0.14 -0.187,0.28 -0.279,0.42 v 0 c -0.09,0.142 -0.181,0.28 -0.268,0.423 v 0 c -0.086,0.143 -0.167,0.288 -0.252,0.431 v 0 c -0.084,0.144 -0.166,0.293 -0.246,0.441 v 0 c -0.076,0.145 -0.152,0.29 -0.227,0.437 v 0 c -0.076,0.153 -0.15,0.307 -0.222,0.462 v 0 c -0.068,0.147 -0.135,0.293 -0.2,0.442 v 0 c -0.07,0.16 -0.134,0.322 -0.199,0.483 v 0 c -0.059,0.147 -0.118,0.296 -0.173,0.444 v 0 c -0.061,0.169 -0.117,0.336 -0.174,0.506 v 0 c -0.051,0.148 -0.1,0.297 -0.145,0.447 v 0 c -0.054,0.174 -0.102,0.352 -0.149,0.528 v 0 c -0.04,0.148 -0.081,0.294 -0.115,0.444 v 0 c -0.046,0.183 -0.085,0.371 -0.123,0.557 v 0 c -0.031,0.146 -0.063,0.291 -0.089,0.435 v 0 c -0.035,0.198 -0.063,0.398 -0.092,0.599 v 0 c -0.02,0.137 -0.043,0.273 -0.06,0.411 v 0 c -0.027,0.225 -0.044,0.454 -0.063,0.682 v 0 c -0.009,0.115 -0.024,0.23 -0.03,0.345 v 0 c -0.02,0.347 -0.033,0.694 -0.033,1.044 v 0 c 0,0.357 0.013,0.712 0.033,1.063 v 0 c 0.008,0.127 0.024,0.252 0.034,0.375 v 0 c 0.018,0.225 0.035,0.451 0.063,0.672 v 0 c 0.017,0.154 0.046,0.306 0.07,0.457 v 0 c 0.027,0.192 0.052,0.383 0.087,0.572 v 0 c 0.032,0.166 0.071,0.329 0.106,0.493 v 0 c 0.036,0.173 0.07,0.347 0.112,0.518 v 0 c 0.042,0.174 0.094,0.343 0.142,0.513 v 0 c 0.045,0.159 0.086,0.32 0.132,0.476 v 0 c 0.057,0.179 0.121,0.354 0.181,0.532 v 0 c 0.051,0.145 0.097,0.292 0.15,0.433 v 0 c 0.07,0.184 0.147,0.365 0.223,0.545 v 0 c 0.054,0.134 0.106,0.267 0.164,0.397 v 0 c 0.081,0.187 0.171,0.372 0.262,0.552 v 0 c 0.058,0.121 0.114,0.245 0.175,0.366 v 0 c 0.095,0.188 0.199,0.371 0.302,0.556 v 0 c 0.062,0.11 0.122,0.224 0.186,0.333 v 0 c 0.111,0.188 0.225,0.37 0.342,0.554 v 0 c 0.065,0.102 0.129,0.208 0.195,0.309 v 0 c 0.123,0.186 0.252,0.369 0.381,0.548 v 0 c 0.068,0.095 0.134,0.19 0.203,0.284 v 0 c 0.136,0.183 0.277,0.361 0.421,0.54 v 0 c 0.07,0.086 0.138,0.176 0.209,0.262 v 0 c 0.149,0.179 0.302,0.352 0.457,0.526 v 0 c 0.072,0.081 0.144,0.162 0.218,0.243 v 0 c 0.159,0.171 0.324,0.343 0.49,0.51 v 0 c 0.074,0.075 0.149,0.152 0.227,0.226 v 0 c 0.171,0.164 0.343,0.326 0.519,0.487 v 0 c 0.08,0.072 0.158,0.146 0.24,0.216 v 0 c 0.177,0.155 0.361,0.307 0.546,0.459 v 0 c 0.055,0.045 0.107,0.092 0.163,0.136 v 0 z m 14.307,-35.459 h 10e-4 z"
                 style="fill:url(#radialGradient1637);stroke:none"
                 id="path1639" /></g></g></g></g><g
         id="g1892"
         transform="translate(-7.8441438,-7.9573)"><g
           id="g1649"
           transform="translate(345.85304,734.27749)"><path
             d="m 0,0 c -1.676,-0.961 -2.908,-1.916 -3.695,-2.854 -0.299,1.285 -1.024,2.198 -2.17,2.744 -1.146,0.542 -2.54,0.813 -4.185,0.813 -0.546,0 -1.018,-0.013 -1.421,-0.036 -0.396,-0.026 -0.744,-0.061 -1.045,-0.108 -0.349,-0.057 -0.646,-0.102 -0.897,-0.152 v -51.243 c 0,0 10.089,-1.145 10.089,5.187 v 13.429 c 0.096,-0.149 0.344,-0.421 0.734,-0.815 0.397,-0.398 0.963,-0.791 1.7,-1.187 0.744,-0.397 1.641,-0.753 2.703,-1.074 1.06,-0.323 2.302,-0.485 3.732,-0.485 1.723,0 3.447,0.298 5.174,0.892 1.726,0.594 3.291,1.616 4.691,3.08 1.408,1.455 2.554,3.434 3.438,5.93 0.89,2.497 1.336,5.672 1.336,9.525 0,3.311 -0.385,6.109 -1.15,8.381 -0.764,2.273 -1.786,4.104 -3.065,5.49 -1.282,1.379 -2.749,2.384 -4.401,3.002 C 9.918,1.139 8.182,1.447 6.356,1.447 3.795,1.447 1.676,0.966 0,0 m -1.152,-27.03 c -1.005,0.546 -1.706,1.017 -2.099,1.407 v 15.722 c 0,0.94 0.401,1.804 1.216,2.595 0.81,0.792 2.246,1.184 4.312,1.184 1.377,0 2.543,-0.253 3.5,-0.775 0.961,-0.52 1.723,-1.249 2.288,-2.186 0.566,-0.941 0.971,-2.05 1.217,-3.334 0.247,-1.29 0.372,-2.67 0.372,-4.157 0,-3.56 -0.595,-6.327 -1.769,-8.305 -1.182,-1.975 -3.026,-2.966 -5.533,-2.966 -1.328,0 -2.497,0.272 -3.504,0.815"
             style="fill:#00a3d8;fill-opacity:1;fill-rule:nonzero;stroke:none"
             id="path1651" /></g><g
           id="g1653"
           transform="translate(381.01514,735.24329)"><path
             d="M 0,0 C -1.736,-0.325 -3.268,-0.742 -4.602,-1.261 -5.938,-1.783 -6.986,-2.363 -7.751,-3 c -0.767,-0.648 -1.148,-1.317 -1.148,-2.005 0,-0.498 0.206,-1.252 0.629,-2.263 0.42,-1.015 1.489,-2.325 2.693,-1.759 1.79,0.841 1.143,0.624 3.038,1.309 2.174,0.791 4.344,1.081 6.469,1.081 2.273,0 3.914,-0.399 4.93,-1.204 1.012,-0.796 1.519,-2.149 1.519,-4.049 v -1.35 H 8.783 c -0.568,0 -1.144,-0.024 -1.74,-0.073 -1.779,-0.098 -3.733,-0.321 -5.859,-0.666 -2.126,-0.347 -4.105,-0.97 -5.932,-1.884 -1.83,-0.91 -3.35,-2.156 -4.561,-3.732 -1.212,-1.578 -1.819,-3.622 -1.819,-6.135 0,-2.02 0.346,-3.737 1.038,-5.138 0.694,-1.404 1.582,-2.529 2.672,-3.365 1.084,-0.837 2.299,-1.441 3.632,-1.807 1.339,-0.376 2.675,-0.556 4.005,-0.556 2.571,0 4.748,0.396 6.529,1.184 1.775,0.793 3.211,1.757 4.297,2.895 0.248,-1.289 0.827,-2.275 1.743,-2.965 0.916,-0.696 2.261,-1.039 4.043,-1.039 0.839,0 1.642,0.072 2.409,0.22 0.767,0.146 1.596,0.397 2.486,0.741 -1.14,1.781 -1.706,4.622 -1.706,8.53 v 13.943 c 0,2.27 -0.249,4.262 -0.745,5.965 -0.494,1.706 -1.322,3.131 -2.482,4.268 -1.161,1.134 -2.669,1.973 -4.52,2.518 C 10.414,0.208 8.153,0.481 5.484,0.481 3.557,0.481 1.727,0.32 0,0 m -0.447,-28.48 c -0.791,0.966 -1.188,2.141 -1.188,3.528 0,1.23 0.297,2.251 0.893,3.037 0.59,0.789 1.357,1.434 2.299,1.928 0.939,0.493 2.012,0.841 3.222,1.038 1.213,0.196 2.436,0.344 3.672,0.443 0.345,0.052 0.692,0.076 1.041,0.076 h 1.039 v -7.562 c 0,-0.394 -0.185,-0.829 -0.56,-1.298 -0.369,-0.473 -0.875,-0.903 -1.52,-1.3 -0.643,-0.396 -1.385,-0.713 -2.225,-0.959 -0.839,-0.252 -1.732,-0.376 -2.669,-0.376 -1.881,0 -3.211,0.484 -4.004,1.445"
             style="fill:#00a3d8;fill-opacity:1;fill-rule:nonzero;stroke:none"
             id="path1655" /></g><g
           id="g1657"
           transform="translate(417.78084,734.94399)"><path
             d="m 0,0 c -2.049,-0.519 -3.993,-1.47 -5.818,-2.856 -1.83,-1.381 -3.362,-3.261 -4.6,-5.633 -1.234,-2.373 -1.855,-5.437 -1.855,-9.198 0,-3.952 0.596,-7.153 1.781,-9.6 1.185,-2.452 2.671,-4.366 4.448,-5.748 1.78,-1.385 3.71,-2.325 5.788,-2.821 2.073,-0.489 4.004,-0.737 5.781,-0.737 2.672,0 4.87,0.296 6.601,0.891 1.729,0.589 3.065,1.232 4.005,1.923 0.64,0.492 1.06,0.978 1.259,1.447 0.198,0.471 0.298,0.954 0.298,1.443 0,0.799 -0.286,1.756 -0.852,2.896 -0.572,1.136 -1.125,2.004 -1.67,2.595 -0.247,-0.295 -0.617,-0.655 -1.112,-1.074 -0.491,-0.424 -1.089,-0.815 -1.781,-1.19 -0.69,-0.367 -1.483,-0.675 -2.373,-0.926 -0.887,-0.245 -1.879,-0.367 -2.964,-0.367 -1.683,0 -3.091,0.294 -4.229,0.889 -1.137,0.592 -2.065,1.408 -2.776,2.447 -0.721,1.035 -1.228,2.251 -1.523,3.632 -0.297,1.388 -0.443,2.868 -0.443,4.449 0,3.114 0.689,5.673 2.07,7.671 1.389,2.006 3.713,3.007 6.973,3.007 1.881,0 3.586,-0.419 5.118,-1.257 1.532,-0.846 2.697,-1.685 3.485,-2.522 0.694,0.837 1.262,1.764 1.703,2.778 0.449,1.016 0.67,1.867 0.67,2.558 0,0.741 -0.185,1.387 -0.558,1.929 -0.369,0.542 -1.026,1.111 -1.964,1.707 -1.135,0.743 -2.569,1.331 -4.298,1.778 C 9.433,0.556 7.553,0.781 5.525,0.781 3.895,0.781 2.054,0.521 0,0"
             style="fill:#00a3d8;fill-opacity:1;fill-rule:nonzero;stroke:none"
             id="path1659" /></g><g
           id="g1661"
           transform="translate(441.25154,734.87019)"><path
             d="m 0,0 c -0.744,-0.074 -1.114,-0.136 -1.114,-0.186 v -29.662 c 0,-1.236 0.161,-2.249 0.481,-3.04 0.321,-0.792 0.768,-1.419 1.336,-1.892 0.568,-0.467 1.25,-0.788 2.043,-0.958 0.789,-0.176 1.68,-0.265 2.668,-0.265 0.787,0 1.531,0.023 2.225,0.075 0.694,0.046 1.134,0.123 1.333,0.224 v 29.955 c 0,1.235 -0.199,2.24 -0.593,3.007 C 7.986,-1.978 7.461,-1.381 6.825,-0.96 6.18,-0.542 5.463,-0.262 4.67,-0.109 3.881,0.037 3.088,0.11 2.299,0.11 1.506,0.11 0.741,0.074 0,0"
             style="fill:#00a3d8;fill-opacity:1;fill-rule:nonzero;stroke:none"
             id="path1663" /></g><g
           id="g1665"
           transform="translate(463.49764,750.03529)"><path
             d="m 0,0 c -2.762,-1.83 -4.494,-4.423 -5.186,-7.786 -0.304,-1.581 -0.451,-3.338 -0.451,-5.261 v -37.822 c 0,0 10.086,-0.82 10.086,5.856 v 22.25 h 2.502 c 8.592,0 9.067,6.417 9.067,6.417 v -28.667 c 0,-1.237 0.195,-2.249 0.593,-3.04 0.393,-0.792 0.912,-1.419 1.557,-1.892 0.641,-0.467 1.359,-0.788 2.149,-0.958 0.793,-0.176 1.581,-0.265 2.374,-0.265 0.788,0 1.559,0.038 2.297,0.114 0.744,0.074 1.113,0.134 1.113,0.185 v 35.741 H 4.449 v 2.45 c 0,2.914 0.625,4.904 1.891,5.968 1.258,1.06 3.076,1.596 5.446,1.596 2.082,0 3.974,-0.334 5.679,-1.002 1.707,-0.667 2.98,-1.422 3.818,-2.261 0.69,0.783 1.285,1.703 1.776,2.743 0.499,1.039 0.746,1.978 0.746,2.815 0,1.387 -0.889,2.547 -2.672,3.482 -1.283,0.699 -2.866,1.22 -4.744,1.563 -1.878,0.345 -3.76,0.516 -5.638,0.516 C 6.35,2.742 2.768,1.827 0,0"
             style="fill:#00a3d8;fill-opacity:1;fill-rule:nonzero;stroke:none"
             id="path1667" /></g><g
           id="g1669"
           transform="translate(507.02004,734.94399)"><path
             d="m 0,0 c -2.051,-0.519 -3.992,-1.47 -5.823,-2.856 -1.828,-1.381 -3.36,-3.261 -4.596,-5.633 -1.236,-2.373 -1.853,-5.437 -1.853,-9.198 0,-3.952 0.591,-7.153 1.777,-9.6 1.187,-2.452 2.67,-4.366 4.451,-5.748 1.777,-1.385 3.705,-2.325 5.784,-2.821 2.077,-0.489 4.002,-0.737 5.786,-0.737 2.666,0 4.866,0.296 6.601,0.891 1.727,0.589 3.06,1.232 4.002,1.923 0.642,0.492 1.065,0.978 1.261,1.447 0.197,0.471 0.293,0.954 0.293,1.443 0,0.799 -0.283,1.756 -0.854,2.896 -0.566,1.136 -1.12,2.004 -1.666,2.595 -0.247,-0.295 -0.617,-0.655 -1.113,-1.074 -0.492,-0.424 -1.086,-0.815 -1.777,-1.19 -0.694,-0.367 -1.487,-0.675 -2.375,-0.926 -0.891,-0.245 -1.874,-0.367 -2.961,-0.367 -1.684,0 -3.096,0.294 -4.23,0.889 -1.142,0.592 -2.065,1.408 -2.784,2.447 -0.717,1.035 -1.221,2.251 -1.518,3.632 -0.296,1.388 -0.447,2.868 -0.447,4.449 0,3.114 0.697,5.673 2.08,7.671 1.383,2.006 3.704,3.007 6.971,3.007 1.875,0 3.582,-0.419 5.118,-1.257 1.528,-0.846 2.689,-1.685 3.482,-2.522 0.693,0.837 1.261,1.764 1.704,2.778 0.447,1.016 0.668,1.867 0.668,2.558 0,0.741 -0.184,1.387 -0.558,1.929 -0.369,0.542 -1.022,1.111 -1.961,1.707 -1.138,0.743 -2.57,1.331 -4.301,1.778 C 9.427,0.556 7.554,0.781 5.526,0.781 3.892,0.781 2.051,0.521 0,0"
             style="fill:#00a3d8;fill-opacity:1;fill-rule:nonzero;stroke:none"
             id="path1671" /></g><g
           id="g1673"
           transform="translate(537.81014,734.24329)"><path
             d="m 0,0 c -2.221,-0.992 -4.059,-2.339 -5.512,-4.046 -1.455,-1.706 -2.554,-3.681 -3.295,-5.933 -0.738,-2.245 -1.111,-4.631 -1.111,-7.151 0,-2.476 0.324,-4.835 0.965,-7.085 0.639,-2.25 1.65,-4.226 3.033,-5.931 1.377,-1.706 3.17,-3.069 5.363,-4.08 2.194,-1.015 4.871,-1.521 8.028,-1.521 3.16,0 5.847,0.52 8.068,1.559 2.219,1.034 4.029,2.425 5.436,4.152 1.405,1.733 2.418,3.731 3.037,6.007 0.619,2.274 0.926,4.646 0.926,7.118 0,2.471 -0.307,4.824 -0.926,7.044 -0.619,2.228 -1.605,4.179 -2.961,5.862 C 19.695,-2.326 17.918,-0.992 15.725,0 13.525,0.988 10.875,1.481 7.773,1.481 4.811,1.481 2.219,0.988 0,0 m 3.914,-27.214 c -0.967,0.638 -1.719,1.491 -2.265,2.555 -0.54,1.062 -0.924,2.262 -1.147,3.598 -0.225,1.333 -0.338,2.666 -0.338,4.003 0,1.335 0.129,2.646 0.375,3.929 0.246,1.288 0.654,2.433 1.224,3.446 0.565,1.016 1.333,1.844 2.296,2.485 0.964,0.645 2.166,0.965 3.601,0.965 1.432,0 2.613,-0.306 3.559,-0.927 0.935,-0.617 1.677,-1.42 2.224,-2.407 0.542,-0.992 0.911,-2.141 1.113,-3.449 0.195,-1.311 0.291,-2.634 0.291,-3.97 0,-1.38 -0.096,-2.742 -0.291,-4.075 -0.202,-1.336 -0.571,-2.536 -1.113,-3.598 -0.547,-1.064 -1.298,-1.917 -2.261,-2.555 -0.967,-0.649 -2.192,-0.965 -3.672,-0.965 -1.436,0 -2.633,0.316 -3.596,0.965"
             style="fill:#00a3d8;fill-opacity:1;fill-rule:nonzero;stroke:none"
             id="path1675" /></g><g
           id="g1677"
           transform="translate(447.21044,751.89709)"><path
             d="m 0,0 c -1.764,0 -3.391,-0.796 -4.477,-2.186 v 0.002 L -4.51,-2.227 c -0.008,-0.009 -0.013,-0.018 -0.02,-0.025 -0.005,-0.009 -0.011,-0.017 -0.017,-0.023 l -0.012,-0.018 c -1.388,-1.837 -2.122,-4.022 -2.122,-6.323 0,-0.476 0.034,-0.96 0.1,-1.44 l 0.003,-0.011 c 0.073,-0.935 0.76,-1.716 1.678,-1.906 l 0.014,-0.004 c 0.707,-0.148 1.427,-0.222 2.142,-0.222 1.93,0 3.816,0.529 5.456,1.528 l 0.009,0.006 C 4.547,-9.666 5.679,-7.759 5.679,-5.68 5.679,-2.548 3.131,0 0,0"
             style="fill:#00a3d8;fill-opacity:1;fill-rule:nonzero;stroke:none"
             id="path1679" /></g></g></g></g></svg>
