<?xml version="1.0" standalone="no"?>
<!DOCTYPE svg PUBLIC "-//W3C//DTD SVG 20010904//EN"
 "http://www.w3.org/TR/2001/REC-SVG-20010904/DTD/svg10.dtd">
<svg version="1.0" xmlns="http://www.w3.org/2000/svg"
 width="1184.000000pt" height="1184.000000pt" viewBox="0 0 1184.000000 1184.000000"
 preserveAspectRatio="xMidYMid meet">
<metadata>
Created by potrace 1.11, written by Peter Selinger 2001-2013
</metadata>
<g transform="translate(0.000000,1184.000000) scale(0.100000,-0.100000)"
fill="#000000" stroke="none">
<path d="M5537 10132 c-15 -3 -17 -11 -13 -53 3 -27 9 -73 12 -101 3 -29 7
-64 9 -78 2 -14 6 -50 10 -80 4 -30 8 -66 10 -80 2 -14 7 -47 10 -75 9 -78 16
-138 20 -163 2 -13 7 -53 11 -90 3 -37 8 -69 9 -72 2 -3 6 -41 10 -85 4 -44 9
-89 12 -100 2 -11 6 -38 9 -60 8 -72 23 -199 29 -240 3 -22 8 -58 10 -80 5
-52 13 -121 19 -165 3 -19 8 -55 11 -80 3 -25 7 -61 10 -80 2 -19 7 -57 10
-85 3 -27 8 -61 10 -75 2 -14 7 -50 9 -80 3 -30 8 -73 11 -95 3 -22 7 -53 9
-70 l3 -30 142 -1 141 -1 1 36 c0 20 2 45 4 56 2 11 7 49 10 85 3 36 7 81 9
100 3 19 7 62 10 95 4 33 8 80 11 105 5 41 8 76 20 191 6 63 16 162 21 209 3
25 7 70 10 100 2 30 6 71 8 90 6 44 15 129 21 200 3 30 8 78 11 105 11 94 15
140 18 180 2 22 6 65 10 95 8 66 15 137 21 205 2 28 6 71 9 95 3 25 8 73 11
106 l7 62 -39 4 c-45 6 -669 6 -696 0z"/>
<path d="M8949 9338 c-20 -24 -44 -56 -55 -73 -10 -16 -21 -32 -25 -35 -3 -3
-54 -70 -113 -150 -59 -80 -118 -158 -131 -175 -33 -43 -263 -352 -299 -402
-16 -24 -34 -43 -39 -43 -4 0 -5 -4 -2 -10 3 -5 3 -10 -2 -10 -4 -1 -24 -24
-43 -51 -19 -28 -48 -68 -65 -89 -16 -21 -39 -50 -50 -65 -11 -16 -31 -43 -45
-61 -14 -18 -58 -77 -98 -131 -40 -54 -134 -179 -208 -277 -74 -98 -134 -181
-134 -185 0 -3 41 -46 91 -97 l92 -92 105 102 c58 55 142 137 188 181 71 68
320 310 655 635 79 77 369 357 593 573 l88 86 -59 58 c-125 121 -390 353 -404
353 -3 0 -21 -19 -40 -42z"/>
<path d="M2748 9293 c-1 -5 -19 -16 -38 -25 -19 -10 -66 -36 -105 -58 -38 -22
-81 -45 -95 -52 -14 -7 -58 -32 -98 -55 -40 -24 -76 -43 -80 -43 -5 0 -13 -5
-20 -12 -8 -8 13 -36 88 -112 54 -56 131 -135 171 -176 39 -41 175 -182 303
-314 127 -131 260 -269 296 -306 36 -38 156 -162 267 -277 111 -114 257 -266
326 -337 l124 -129 89 73 c49 39 88 76 86 82 -2 9 -107 154 -204 283 -21 28
-44 59 -53 70 -75 100 -115 157 -115 165 0 4 -4 10 -8 12 -5 2 -35 39 -67 83
-32 44 -61 82 -64 85 -3 3 -10 13 -16 22 -8 13 -161 222 -255 348 -18 24 -152
206 -195 264 -11 15 -27 36 -35 46 -8 10 -22 28 -30 40 -8 12 -61 84 -117 161
-57 76 -103 143 -103 148 0 16 -45 28 -52 14z"/>
<path d="M7171 9193 c-47 -154 -75 -248 -76 -253 0 -3 -4 -11 -8 -17 -5 -7 -6
-13 -3 -13 3 0 -6 -33 -20 -72 -13 -40 -24 -74 -24 -75 0 -2 0 -4 -1 -5 0 -2
-2 -10 -4 -18 -2 -8 -10 -35 -18 -60 -8 -25 -25 -79 -37 -120 -12 -41 -34
-115 -50 -165 -15 -49 -33 -110 -40 -135 -7 -25 -19 -65 -27 -90 -8 -25 -16
-52 -18 -60 -2 -8 -13 -46 -25 -83 -21 -66 -22 -69 -4 -82 11 -8 26 -15 35
-15 9 0 19 -3 23 -7 4 -5 11 -8 14 -9 12 -1 66 -23 85 -34 27 -16 31 -10 173
262 13 27 24 51 23 54 0 4 3 10 8 13 5 3 22 31 37 61 16 30 43 82 61 115 35
65 91 169 156 293 23 42 59 111 81 152 115 215 138 259 138 268 0 10 -118 72
-134 71 -5 0 -12 3 -15 9 -9 13 -270 112 -298 112 -1 0 -15 -44 -32 -97z"/>
<path d="M4457 9240 c-21 -10 -55 -24 -75 -31 -20 -6 -41 -15 -47 -19 -5 -4
-21 -11 -35 -15 -14 -4 -52 -20 -85 -35 -33 -14 -75 -32 -92 -39 -30 -12 -46
-41 -23 -41 6 0 10 -4 10 -9 0 -5 68 -127 150 -271 83 -144 150 -266 150 -271
0 -5 4 -9 9 -9 5 0 11 -8 14 -17 4 -10 19 -40 34 -68 16 -27 46 -81 68 -120
21 -38 41 -72 44 -75 3 -3 16 -23 28 -45 103 -193 177 -315 183 -305 4 6 17
12 28 13 12 1 22 4 22 7 0 4 22 12 49 19 28 7 54 18 60 25 8 10 -24 118 -112
366 -3 8 -15 44 -27 80 -12 36 -25 72 -28 80 -3 8 -6 20 -8 25 -2 6 -13 37
-24 70 -12 33 -23 65 -24 70 -2 6 -6 17 -9 25 -3 8 -15 44 -27 80 -11 36 -25
73 -31 83 -5 10 -7 22 -4 27 4 6 2 10 -3 10 -5 0 -9 6 -9 13 -1 11 -45 146
-64 192 -23 59 -57 164 -53 168 2 2 -4 11 -13 20 -16 14 -21 14 -56 -3z"/>
<path d="M9490 7793 c-14 -10 -29 -21 -35 -25 -5 -5 -37 -29 -70 -53 -33 -25
-73 -55 -88 -67 -16 -12 -122 -91 -235 -175 -114 -84 -217 -161 -228 -170 -12
-10 -28 -22 -36 -28 -19 -13 -100 -72 -113 -83 -5 -4 -37 -28 -69 -52 -33 -24
-67 -49 -75 -56 -38 -32 -266 -200 -282 -209 -11 -5 -19 -13 -19 -18 0 -7 94
-169 121 -208 10 -15 25 -10 133 43 66 33 128 64 136 69 8 4 34 18 58 29 23
11 61 29 85 40 23 11 49 25 57 30 8 6 26 14 40 20 14 5 32 14 40 19 8 5 155
78 325 162 504 248 650 320 658 328 4 4 -2 19 -13 33 -11 15 -20 29 -20 33 0
23 -316 355 -338 355 -4 0 -19 -8 -32 -17z"/>
<path d="M2200 7743 c-24 -27 -91 -100 -150 -163 -150 -161 -160 -172 -160
-180 0 -4 57 -36 128 -71 70 -35 130 -67 133 -72 3 -5 9 -8 13 -7 9 2 394
-189 431 -214 17 -12 31 -20 33 -18 2 3 395 -192 442 -219 8 -4 63 -32 122
-61 59 -29 125 -61 145 -72 35 -17 38 -17 48 -1 5 9 36 53 68 97 33 45 55 83
49 87 -5 3 -22 16 -38 29 -16 12 -119 90 -229 173 -110 82 -211 158 -225 169
-14 10 -79 59 -145 108 -66 50 -128 97 -137 106 -10 9 -20 16 -23 16 -6 0
-162 118 -195 148 -13 12 -28 22 -31 22 -3 0 -22 13 -40 30 -19 16 -37 30 -41
30 -4 0 -13 6 -20 13 -19 19 -124 97 -130 97 -3 0 -24 -21 -48 -47z"/>
<path d="M5898 7396 c-1 -2 -57 -6 -123 -10 -66 -3 -131 -8 -145 -10 -14 -3
-43 -7 -65 -11 -108 -16 -327 -80 -435 -127 -143 -62 -368 -194 -435 -255 -11
-10 -40 -34 -65 -54 -101 -82 -214 -203 -307 -328 -35 -47 -70 -95 -78 -106
-8 -10 -15 -24 -15 -31 0 -6 -7 -17 -15 -24 -26 -22 -156 -300 -179 -385 -2
-5 -5 -17 -8 -25 -26 -72 -38 -108 -41 -125 -24 -131 -31 -150 -59 -146 -3 0
-66 3 -140 6 -126 5 -223 9 -488 20 -267 11 -391 16 -490 20 -241 9 -382 15
-495 20 -66 3 -174 8 -240 10 -280 11 -367 15 -495 19 -74 3 -182 7 -240 10
-58 4 -168 9 -245 11 -204 8 -366 15 -480 20 -55 2 -188 7 -296 10 l-195 7 -2
-44 c0 -24 -3 -74 -6 -113 -4 -67 -8 -225 -7 -291 l1 -31 5785 -1 c4369 0
5785 3 5786 11 0 7 2 24 3 40 1 15 -2 27 -7 27 -4 0 -3 8 2 19 6 10 8 21 5 24
-3 3 -8 63 -10 134 -6 175 -9 207 -18 221 -4 7 -11 10 -15 8 -4 -3 -92 -8
-196 -11 -263 -10 -327 -12 -505 -20 -85 -3 -202 -8 -260 -10 -58 -3 -157 -7
-220 -10 -108 -5 -284 -12 -515 -20 -55 -2 -100 -4 -100 -4 0 -1 -59 -3 -132
-6 -164 -6 -329 -13 -498 -21 -71 -3 -182 -8 -245 -10 -63 -2 -162 -6 -220 -8
-58 -3 -172 -7 -255 -11 -82 -3 -202 -8 -265 -11 -63 -3 -168 -7 -233 -9 -64
-2 -122 -7 -127 -10 -6 -3 -10 -2 -10 4 0 6 -7 8 -15 5 -8 -4 -15 -2 -15 2 -1
40 -58 250 -89 329 -83 209 -189 401 -298 540 -91 116 -276 300 -356 354 -13
9 -66 44 -117 79 -77 51 -273 156 -365 193 -20 8 -153 52 -167 55 -5 1 -9 2
-10 4 -3 2 -11 4 -103 25 -38 8 -90 18 -115 21 -25 3 -52 7 -60 10 -8 3 -62 7
-120 10 -58 3 -110 7 -117 9 -6 2 -13 2 -15 1z"/>
<path d="M675 4916 c-63 -30 -92 -58 -117 -113 -25 -56 -28 -72 -28 -158 -1
-118 23 -189 82 -241 52 -46 99 -59 208 -58 77 1 103 5 137 22 73 38 98 70
129 167 18 54 8 211 -16 264 -48 101 -102 132 -245 136 -88 3 -106 1 -150 -19z
m208 -90 c38 -15 61 -46 73 -96 10 -41 13 -131 5 -145 -3 -5 -5 -20 -6 -32 0
-31 -42 -83 -80 -99 -40 -17 -118 -11 -151 11 -42 27 -58 73 -61 169 -1 49 1
94 5 100 4 6 7 14 7 18 0 15 48 70 68 78 34 13 104 12 140 -4z"/>
<path d="M3707 4929 c-129 -31 -187 -130 -181 -306 1 -45 8 -91 14 -103 6 -11
8 -20 5 -20 -9 0 21 -53 47 -81 45 -51 108 -73 213 -73 141 0 220 41 259 135
35 84 37 218 5 305 -19 50 -34 71 -85 113 -41 34 -193 50 -277 30z m205 -126
c28 -26 52 -103 50 -158 -5 -147 -56 -207 -169 -199 -47 3 -62 9 -89 35 -35
33 -46 73 -49 164 -1 57 20 133 44 155 59 55 156 56 213 3z"/>
<path d="M10840 4927 c-59 -14 -133 -87 -151 -148 -14 -47 -18 -193 -7 -248
13 -66 58 -124 122 -155 50 -25 71 -30 140 -30 112 -1 171 18 223 72 54 55 67
100 67 232 0 90 -4 112 -24 155 -45 93 -117 132 -245 132 -44 0 -100 -5 -125
-10z m172 -91 c3 3 21 -10 41 -28 43 -41 60 -98 54 -187 -6 -98 -25 -136 -83
-166 -60 -31 -194 6 -194 54 0 9 -5 22 -12 29 -13 13 -17 161 -5 204 15 55 91
110 132 95 8 -4 17 -2 20 3 4 7 13 7 24 0 10 -5 21 -7 23 -4z"/>
<path d="M170 4916 c-60 -17 -86 -34 -116 -78 -40 -57 -54 -118 -50 -221 4
-117 30 -174 103 -225 44 -31 59 -34 203 -37 163 -4 162 -4 158 53 l-3 46
-128 1 c-149 2 -173 12 -195 86 -19 64 -10 184 17 231 29 48 61 58 197 58
l112 0 0 50 1 50 -127 -1 c-70 0 -147 -6 -172 -13z"/>
<path d="M1189 4908 c-3 -60 -4 -534 -1 -544 2 -8 74 -12 111 -6 4 1 8 50 7
110 l-1 107 73 3 c70 3 72 2 84 -25 7 -15 15 -30 19 -33 3 -3 25 -41 49 -85
l43 -80 63 -2 c35 0 64 3 64 8 0 5 -29 58 -65 118 -36 60 -65 112 -65 115 0 3
6 6 14 6 23 0 66 40 81 77 18 43 19 111 3 150 -6 15 -12 31 -12 35 -2 12 -50
45 -83 56 -17 5 -110 11 -207 12 l-176 1 -1 -23z m348 -100 c25 -26 27 -81 2
-104 -18 -16 -38 -19 -125 -20 -90 -2 -104 0 -105 15 -4 41 -4 107 -1 117 2 7
39 10 108 9 81 -1 108 -5 121 -17z"/>
<path d="M1792 4643 l3 -288 58 -1 57 -1 0 114 0 114 73 -3 72 -3 50 -90 c28
-49 55 -99 62 -110 9 -15 24 -20 65 -22 29 -1 58 0 65 2 8 3 -2 29 -30 77 -23
40 -44 75 -47 78 -3 3 -15 24 -28 48 -22 39 -22 42 -5 42 27 0 79 58 90 100
18 66 -1 152 -40 186 -39 34 -92 42 -272 44 l-175 1 2 -288z m335 173 c43 -14
47 -103 5 -122 -9 -4 -63 -8 -119 -10 l-103 -2 0 72 0 73 98 -2 c53 -1 107 -5
119 -9z"/>
<path d="M2513 4912 c-88 -29 -140 -105 -150 -217 -12 -139 9 -216 73 -279 50
-48 95 -59 254 -60 l134 -1 1 50 0 49 -126 1 c-159 1 -186 14 -202 103 -5 22
-3 32 6 33 6 1 82 2 167 3 l155 1 1 48 c1 28 -3 48 -10 49 -6 0 -81 2 -166 2
l-155 1 3 29 c5 36 28 73 56 88 25 14 49 16 177 17 l96 1 -1 50 0 51 -135 -2
c-85 -2 -152 -8 -178 -17z"/>
<path d="M2940 4878 c-1 -29 -2 -158 -3 -285 -1 -148 2 -234 8 -236 27 -10
354 0 368 11 7 7 16 10 19 7 11 -12 97 78 113 117 35 87 29 241 -11 318 -50
96 -109 117 -331 119 l-163 2 0 -53z m316 -56 c14 -2 37 -20 51 -39 24 -31 27
-44 28 -126 1 -51 -3 -105 -8 -122 -11 -32 -50 -74 -70 -76 -7 -1 -53 -2 -104
-4 l-92 -2 -3 99 c-2 55 0 105 4 111 4 6 4 15 1 21 -4 5 -6 24 -5 43 0 18 1
49 1 69 l1 35 85 -2 c47 -1 97 -4 111 -7z"/>
<path d="M4183 4836 c1 -53 -1 -96 -6 -96 -4 0 -5 -5 -1 -11 9 -16 11 -109 1
-109 -5 0 -5 -5 -1 -11 9 -16 11 -109 1 -109 -5 0 -5 -5 -1 -11 10 -17 10
-109 0 -109 -4 0 -3 -6 3 -14 8 -9 31 -14 66 -13 48 1 55 4 56 22 0 11 1 61 2
110 l2 90 32 1 c18 0 35 2 37 5 3 3 20 3 39 1 29 -3 37 -11 67 -70 19 -37 38
-69 42 -72 4 -3 14 -22 23 -43 8 -20 19 -38 23 -38 21 -5 118 -6 125 -2 4 3 1
15 -7 28 -9 13 -24 39 -35 58 -10 19 -25 45 -33 58 -7 13 -21 35 -30 48 -25
33 -22 47 10 60 33 15 57 46 69 92 18 63 4 146 -30 177 -46 42 -84 49 -275 51
l-182 2 3 -95z m335 -20 c34 -11 45 -49 27 -91 -7 -19 -20 -36 -27 -36 -7 -1
-59 -3 -115 -4 l-103 -2 1 66 c1 36 3 69 5 72 5 9 184 4 212 -5z"/>
<path d="M4908 4912 c-109 -39 -155 -120 -155 -278 0 -49 4 -95 10 -101 5 -7
7 -13 3 -13 -13 0 36 -82 65 -108 50 -44 92 -54 244 -57 l141 -2 2 48 c1 32
-3 49 -11 50 -7 1 -61 2 -122 3 -60 1 -120 6 -132 10 -39 13 -70 71 -64 121 1
7 57 11 161 10 176 -1 170 -3 167 65 l-2 35 -162 0 -163 0 1 25 c1 40 32 84
70 97 19 7 84 12 144 12 l111 1 1 50 2 51 -132 -2 c-95 -1 -146 -6 -179 -17z"/>
<path d="M5403 4915 c-23 -7 -49 -20 -58 -28 -44 -45 -58 -157 -27 -223 28
-60 71 -73 241 -75 105 -2 116 -4 137 -24 23 -23 25 -68 5 -88 -16 -17 -78
-22 -227 -22 l-152 1 2 -51 1 -50 190 -1 c201 0 236 6 283 49 12 11 22 26 22
34 0 7 4 13 8 13 4 0 8 10 8 23 1 12 2 31 4 42 10 60 -35 155 -73 155 -9 0
-18 4 -21 8 -3 5 -67 10 -142 11 -76 1 -145 6 -155 11 -21 12 -30 57 -17 86
16 35 49 41 221 40 143 -1 157 1 158 17 2 22 2 64 0 77 -2 16 -355 11 -408 -5z"/>
<path d="M6257 4923 c-2 -4 -4 -134 -3 -288 l1 -280 175 1 c112 1 186 5 205
13 17 7 31 12 33 11 2 0 21 18 42 40 72 75 91 189 56 347 -15 69 -77 131 -151
150 -52 13 -351 18 -358 6z m316 -104 c54 -15 78 -66 77 -167 0 -120 -15 -163
-62 -183 -32 -13 -190 -21 -206 -10 -4 3 -8 88 -8 189 l0 182 81 0 c44 0 97
-5 118 -11z"/>
<path d="M7000 4914 c-69 -20 -130 -83 -144 -149 -14 -65 -22 -157 -16 -175 1
-3 3 -18 5 -35 5 -47 31 -100 66 -134 54 -55 88 -63 249 -65 l145 -1 1 50 2
50 -128 1 c-104 0 -133 4 -154 18 -38 24 -69 109 -44 118 7 2 81 4 163 3 94 0
153 3 157 10 10 13 10 85 1 86 -5 1 -77 2 -160 3 -84 1 -157 6 -162 11 -7 7
-3 25 9 53 14 31 29 47 55 57 19 9 38 15 42 14 5 -1 56 -1 115 0 l106 1 -1 50
0 51 -131 -2 c-76 -1 -150 -7 -176 -15z"/>
<path d="M7820 4921 c-42 -10 -82 -43 -100 -84 -24 -53 -18 -148 11 -189 35
-49 73 -59 241 -61 74 -1 121 -6 129 -14 21 -21 21 -78 -1 -98 -17 -15 -41
-18 -195 -18 -96 -1 -175 -3 -176 -6 0 -4 -1 -26 -2 -51 l-1 -45 194 0 c177 0
199 2 240 21 59 28 82 69 82 143 0 71 -3 84 -30 120 -29 40 -66 48 -213 50
-144 2 -169 12 -169 65 0 21 8 40 21 52 18 17 39 19 187 21 92 0 170 2 174 2
4 1 6 24 5 51 l-1 51 -185 -2 c-102 -1 -197 -5 -211 -8z"/>
<path d="M8451 4908 c-34 -13 -60 -31 -78 -56 -16 -20 -31 -39 -34 -42 -3 -3
-9 -16 -12 -30 -3 -14 -8 -36 -11 -50 -12 -50 -8 -159 8 -214 11 -37 29 -68
53 -92 57 -58 90 -67 251 -69 78 -2 143 0 143 4 7 30 3 91 -6 92 -5 1 -55 3
-110 4 -145 3 -142 3 -175 33 -22 20 -30 37 -32 67 l-3 40 160 0 c88 -1 163 3
166 8 3 5 5 27 5 50 l-2 42 -149 1 c-203 2 -184 -2 -175 39 17 77 58 95 213
95 l114 0 -2 43 c-2 23 -3 46 -4 50 -1 5 -61 7 -135 6 -103 -2 -146 -7 -185
-21z"/>
<path d="M9047 4924 c-2 -3 -13 -6 -23 -8 -63 -13 -110 -51 -141 -116 -20 -41
-22 -52 -27 -149 -7 -144 38 -234 139 -277 32 -14 74 -18 212 -19 l172 -1 -1
98 c0 54 2 101 5 104 3 3 3 12 0 20 -3 8 -6 38 -7 67 l-1 52 -137 1 c-76 0
-138 -2 -139 -5 -4 -20 -5 -78 -1 -88 2 -7 29 -11 80 -10 l77 2 1 -63 c0 -35
-3 -65 -8 -68 -17 -11 -169 -4 -191 8 -54 29 -67 62 -67 175 -1 78 15 127 50
158 20 18 39 20 181 23 l159 4 0 49 0 50 -164 -1 c-91 -1 -166 -4 -169 -6z"/>
<path d="M9488 4923 c-4 -7 -3 -338 1 -429 2 -48 59 -108 124 -128 51 -16 155
-22 203 -12 38 8 89 33 114 57 43 41 48 76 50 304 l1 215 -60 0 -60 0 -3 -212
c-3 -225 -8 -248 -53 -264 -37 -13 -110 -12 -142 1 -53 22 -57 40 -58 265 l-1
205 -56 3 c-31 2 -58 -1 -60 -5z"/>
<path d="M10108 4923 c-4 -7 -3 -547 1 -564 0 -4 27 -6 58 -5 l57 2 0 112 0
112 71 0 c56 0 72 -4 81 -17 6 -10 30 -54 54 -98 24 -44 47 -87 53 -95 6 -11
27 -16 73 -16 35 0 64 2 64 4 0 3 -29 55 -65 117 -36 61 -65 115 -65 118 0 4
6 7 13 7 18 1 62 41 77 70 8 14 15 49 16 79 4 74 -19 123 -71 153 -37 21 -53
23 -226 26 -103 2 -189 0 -191 -5z m349 -115 c22 -23 23 -71 2 -99 -17 -23
-24 -24 -126 -24 l-108 0 -1 65 c0 36 1 68 3 71 1 4 50 6 108 4 81 -1 110 -6
122 -17z"/>
<path d="M11405 4916 c-64 -24 -93 -57 -101 -117 -3 -24 -6 -46 -7 -49 -3 -16
16 -87 26 -101 17 -22 60 -49 88 -55 13 -2 77 -5 142 -6 129 -1 152 -9 161
-60 5 -29 -24 -67 -52 -69 -9 0 -89 -1 -177 -2 l-160 -2 0 -50 0 -50 200 1
c220 1 243 6 289 68 27 35 31 134 9 189 -24 59 -64 73 -219 76 -71 1 -137 4
-147 7 -40 12 -42 95 -3 116 13 8 78 13 181 13 88 0 165 4 170 7 6 4 10 19 9
35 -1 15 -3 36 -3 46 -1 16 -15 18 -188 16 -112 -1 -200 -6 -218 -13z"/>
<path d="M101 3963 c17 -22 15 -19 119 -133 136 -149 298 -307 440 -430 34
-30 70 -62 79 -70 9 -9 55 -46 101 -84 47 -37 92 -73 100 -79 8 -7 31 -23 50
-37 19 -13 46 -35 60 -47 14 -13 28 -23 31 -23 3 0 26 -16 50 -35 24 -19 48
-35 52 -35 4 0 20 -11 35 -25 15 -14 32 -25 39 -25 7 0 13 -3 13 -7 0 -5 27
-24 60 -43 33 -19 60 -38 60 -42 0 -5 4 -8 10 -8 5 0 36 -16 67 -36 32 -20 68
-43 80 -50 13 -8 26 -15 30 -15 5 0 15 -6 23 -12 8 -7 29 -20 45 -29 17 -9 55
-30 85 -47 85 -48 393 -201 405 -201 6 0 16 -5 23 -12 6 -6 17 -13 24 -14 7
-2 69 -27 138 -57 137 -60 411 -165 449 -173 14 -3 29 -8 35 -12 6 -3 16 -7
21 -8 6 -1 29 -9 53 -18 23 -8 42 -13 42 -9 0 3 6 1 13 -5 10 -8 96 -37 142
-48 6 -1 60 -16 120 -34 61 -18 119 -34 130 -36 11 -2 36 -8 55 -13 52 -14
323 -79 356 -85 62 -11 91 -17 134 -26 25 -5 59 -12 75 -15 17 -3 41 -7 55
-10 54 -11 137 -25 174 -30 21 -2 46 -7 55 -9 9 -3 34 -7 56 -10 22 -3 56 -7
75 -10 19 -3 51 -8 70 -10 104 -14 187 -24 200 -25 8 0 31 -3 50 -5 19 -3 60
-7 90 -10 30 -3 73 -8 95 -10 22 -2 72 -7 110 -10 39 -3 99 -9 135 -12 36 -3
101 -7 145 -10 44 -2 134 -7 200 -10 210 -12 980 -7 980 6 0 1 27 3 60 5 64 2
198 13 280 21 28 3 82 7 120 9 39 2 70 5 70 6 0 0 11 2 25 4 162 17 316 37
470 61 143 22 189 29 250 38 14 2 25 5 25 6 0 1 11 3 25 6 14 2 50 9 80 15 30
6 66 12 80 15 14 2 66 13 115 24 92 21 122 27 164 36 231 48 744 203 976 295
17 7 35 13 40 14 12 3 173 69 230 94 22 10 61 26 87 37 27 10 48 23 48 27 0 5
5 5 10 2 6 -3 23 3 39 14 16 12 33 21 37 21 12 0 422 208 434 220 3 3 16 11
29 18 13 8 40 23 59 34 20 11 58 34 86 51 28 18 63 39 79 46 15 8 27 18 27 23
0 4 6 8 14 8 8 0 21 6 28 13 7 7 54 39 103 72 50 33 92 62 95 65 3 4 28 22 55
40 28 19 55 38 60 42 6 5 62 49 125 100 224 178 282 230 505 453 189 189 295
303 295 318 0 5 -7 4 -15 -3 -8 -7 -15 -9 -15 -6 0 4 -17 -2 -37 -13 -40 -21
-212 -101 -219 -101 -2 0 -29 -12 -61 -26 -66 -30 -66 -30 -193 -83 -52 -21
-133 -53 -180 -71 -47 -17 -98 -38 -115 -45 -16 -7 -41 -16 -55 -20 -14 -4
-38 -13 -55 -20 -39 -17 -292 -104 -420 -145 -55 -17 -118 -37 -140 -45 -22
-7 -74 -23 -115 -35 -41 -12 -86 -26 -100 -31 -14 -5 -34 -11 -45 -13 -11 -2
-40 -10 -65 -17 -25 -7 -48 -13 -52 -15 -5 -1 -9 -2 -10 -4 -2 -1 -11 -3 -20
-5 -9 -2 -72 -17 -140 -35 -68 -18 -130 -33 -138 -35 -8 -2 -35 -8 -60 -15
-46 -12 -63 -16 -114 -26 -16 -2 -32 -7 -36 -9 -4 -2 -20 -7 -36 -9 -46 -9
-109 -24 -109 -26 0 -1 -13 -3 -30 -5 -16 -2 -50 -9 -75 -15 -55 -13 -85 -19
-130 -26 -19 -3 -44 -8 -55 -11 -26 -9 -44 -12 -77 -15 -16 -1 -28 -6 -28 -11
0 -4 -4 -6 -9 -3 -5 4 -31 2 -58 -4 -26 -5 -64 -12 -83 -14 -19 -3 -46 -8 -60
-11 -14 -3 -41 -8 -60 -10 -19 -3 -60 -9 -90 -15 -84 -14 -132 -21 -170 -26
-57 -7 -95 -13 -95 -14 0 -1 -15 -3 -34 -5 -19 -2 -53 -6 -75 -9 -70 -10 -278
-35 -340 -41 -33 -3 -71 -7 -85 -9 -14 -3 -55 -7 -91 -10 -36 -4 -92 -9 -125
-12 -33 -2 -85 -7 -115 -9 -30 -2 -84 -6 -120 -9 -159 -14 -359 -26 -523 -30
-53 -2 -100 -6 -103 -9 -3 -3 -17 -2 -30 3 -13 5 -24 6 -24 1 0 -11 -1038 -11
-1067 0 -13 5 -23 5 -23 1 0 -4 -17 -6 -37 -5 -21 2 -86 5 -144 7 -58 3 -146
7 -195 10 -279 18 -280 18 -419 30 -33 3 -91 8 -130 11 -77 6 -161 14 -215 21
-19 2 -62 6 -95 10 -33 3 -73 7 -90 9 -52 5 -229 29 -315 41 -25 3 -56 8 -70
9 -14 2 -43 6 -65 9 -22 3 -56 8 -75 11 -19 3 -45 7 -57 9 -11 3 -43 8 -70 12
-26 3 -57 8 -68 10 -11 2 -60 11 -110 20 -49 8 -101 17 -115 20 -229 44 -242
46 -320 64 -25 5 -56 12 -70 14 -56 10 -136 29 -200 46 -25 7 -56 14 -70 16
-14 1 -50 10 -80 18 -30 8 -66 17 -80 20 -44 9 -281 73 -410 111 -69 20 -129
37 -135 39 -54 12 -424 135 -595 196 -63 23 -133 48 -155 56 -22 8 -49 18 -60
23 -17 8 -109 44 -235 93 -14 5 -27 9 -30 10 -3 0 -16 6 -30 13 -14 7 -95 43
-180 81 -85 37 -192 84 -236 105 -92 44 -102 46 -83 22z"/>
</g>
</svg>
