<?xml version="1.0" encoding="UTF-8" standalone="no"?><!DOCTYPE svg PUBLIC "-//W3C//DTD SVG 1.1//EN" "http://www.w3.org/Graphics/SVG/1.1/DTD/svg11.dtd"><svg width="100%" height="100%" viewBox="0 0 120 120" version="1.1" xmlns="http://www.w3.org/2000/svg" xmlns:xlink="http://www.w3.org/1999/xlink" xml:space="preserve" xmlns:serif="http://www.serif.com/" style="fill-rule:evenodd;clip-rule:evenodd;stroke-linejoin:round;stroke-miterlimit:2;"><g><path d="M81.935,51.142l12.162,-9.079c0,0 2.703,2.193 3.618,4.026l-14.514,7.164c-0.387,-0.724 -0.81,-1.428 -1.266,-2.111Z" style="fill:#848688;"/><path d="M37.172,51.273c-0.492,0.693 -0.845,1.115 -1.303,1.828l-14.14,-7.096l3.471,-3.747l11.972,9.015Z" style="fill:#848688;"/><path d="M76.245,44.308l12.797,-17.14c1.548,1.235 3.026,2.552 4.43,3.944l-15.43,14.939c-0.564,-0.532 -1.186,-1.261 -1.797,-1.743Z" style="fill:#848688;"/><path d="M42.49,44.618c-0.601,0.442 -1.181,0.907 -1.74,1.394l-15.064,-15.578l4.508,-2.499l12.296,16.683Z" style="fill:#848688;"/><path d="M68.31,40.774l3.827,-12.715c2.159,0.683 2.441,0.801 4.324,1.797l-6.214,11.665c-0.633,-0.272 -1.279,-0.521 -1.937,-0.747Z" style="fill:#848688;"/><path d="M50.927,40.927c-0.656,0.199 -1.098,0.378 -1.732,0.623l-6.575,-11.544l4.003,-1.65l4.304,12.571Z" style="fill:#848688;"/><path d="M58.67,40.207l-2.487,-20.076c1.181,-0.076 2.373,-0.115 3.574,-0.115c1.202,0 2.394,0.039 3.574,0.115l-2.04,20.038c-0.713,0.002 -2.382,0.031 -2.621,0.038Z" style="fill:#848688;"/><path d="M114.598,64.629l-109.682,0c0,-1.538 0.064,-3.061 0.188,-4.569l36.298,1.476c0.108,-0.648 0.25,-1.284 0.424,-1.908l0.035,0c2.186,-7.827 9.375,-13.577 17.896,-13.577c8.521,0 15.71,5.75 17.895,13.577l0.035,0c0.175,0.624 0.317,1.26 0.425,1.908l36.298,-1.476c0.124,1.508 0.188,3.031 0.188,4.569Z" style="fill:#848688;"/><path d="M59.612,89.673c21.202,-0.063 39.458,-3.954 54.986,-11.393c-12.636,14.803 -31.447,21.317 -54.829,21.699l0,0.005c-0.051,-0.001 -0.103,-0.002 -0.157,-0.002c-0.054,0 -0.106,0.001 -0.158,0.002l0,-0.005c-23.382,-0.382 -42.193,-6.896 -54.828,-21.699c15.527,7.439 33.783,11.33 54.986,11.393Z" style="fill:#465e89;"/><g><path d="M6.465,70.324l1.868,0l0,-0.933l-1.89,0c-1.739,0 -2.544,0.895 -2.544,2.821c0,0.986 0.271,1.698 0.827,2.146c0.527,0.425 1.032,0.478 1.687,0.478l1.92,0l0,-0.948l-1.868,0c-0.956,0 -1.325,-0.41 -1.325,-1.63c0,-1.35 0.369,-1.934 1.325,-1.934Z" style="fill:#fff;fill-rule:nonzero;"/><path d="M11.594,70.21c1.002,0 1.461,0.616 1.461,1.9c0,1.284 -0.459,1.899 -1.461,1.899c-1.017,0 -1.454,-0.615 -1.454,-1.945c0,-1.238 0.475,-1.854 1.454,-1.854Zm-2.695,1.847c0,1.983 0.835,2.893 2.695,2.893c1.837,0 2.695,-0.91 2.695,-2.84c0,-1.93 -0.858,-2.833 -2.695,-2.833c-1.815,0 -2.695,0.903 -2.695,2.78Z" style="fill:#fff;fill-rule:nonzero;"/><path d="M15.141,69.391l0,5.445l1.136,0l0,-2.142l1.341,0l1.19,2.142l1.279,0l-1.347,-2.278c0.7,-0.152 1.091,-0.691 1.091,-1.531c0,-1.143 -0.609,-1.636 -1.889,-1.636l-2.801,0Zm2.53,0.971c0.678,0 1.009,0.121 1.009,0.681c0,0.551 -0.331,0.687 -1.009,0.687l-1.394,0l0,-1.368l1.394,0Z" style="fill:#fff;fill-rule:nonzero;"/><path d="M20.864,69.391l0,5.445l1.136,0l0,-2.142l1.341,0l1.19,2.142l1.279,0l-1.347,-2.278c0.7,-0.152 1.091,-0.691 1.091,-1.531c0,-1.143 -0.61,-1.636 -1.89,-1.636l-2.8,0Zm2.529,0.971c0.678,0 1.01,0.121 1.01,0.681c0,0.551 -0.332,0.687 -1.01,0.687l-1.393,0l0,-1.368l1.393,0Z" style="fill:#fff;fill-rule:nonzero;"/><path d="M28.814,70.34l1.868,0l0,-0.949l-1.89,0c-1.739,0 -2.544,0.895 -2.544,2.817c0,0.988 0.27,1.702 0.827,2.15c0.527,0.425 1.031,0.478 1.687,0.478l1.92,0l0,-0.948l-1.868,0c-0.896,0 -1.28,-0.358 -1.287,-1.338l3.155,0l0,-0.949l-3.148,0c0.045,-0.853 0.46,-1.261 1.28,-1.261Z" style="fill:#fff;fill-rule:nonzero;"/><path d="M31.752,69.391l0,5.445l2.507,0c0.655,0 1.16,-0.053 1.687,-0.478c0.557,-0.448 0.827,-1.16 0.827,-2.146c0,-1.926 -0.805,-2.821 -2.544,-2.821l-2.477,0Zm2.454,0.949c1.01,0 1.326,0.439 1.326,1.774c0,1.341 -0.316,1.774 -1.326,1.774l-1.318,0l0,-3.548l1.318,0Z" style="fill:#fff;fill-rule:nonzero;"/><path d="M39.982,70.21c1.001,0 1.461,0.616 1.461,1.9c0,1.284 -0.46,1.899 -1.461,1.899c-1.017,0 -1.454,-0.615 -1.454,-1.945c0,-1.238 0.474,-1.854 1.454,-1.854Zm-2.696,1.847c0,1.983 0.836,2.893 2.696,2.893c1.837,0 2.695,-0.91 2.695,-2.84c0,-1.93 -0.858,-2.833 -2.695,-2.833c-1.815,0 -2.696,0.903 -2.696,2.78Z" style="fill:#fff;fill-rule:nonzero;"/><path d="M43.529,69.391l0,5.445l1.136,0l0,-2.142l1.341,0l1.19,2.142l1.279,0l-1.347,-2.278c0.7,-0.152 1.091,-0.691 1.091,-1.531c0,-1.143 -0.609,-1.636 -1.889,-1.636l-2.801,0Zm2.529,0.971c0.678,0 1.01,0.121 1.01,0.681c0,0.551 -0.332,0.687 -1.01,0.687l-1.393,0l0,-1.368l1.393,0Z" style="fill:#fff;fill-rule:nonzero;"/><path d="M51.479,70.34l1.868,0l0,-0.949l-1.89,0c-1.739,0 -2.544,0.895 -2.544,2.817c0,0.988 0.271,1.702 0.827,2.15c0.527,0.425 1.032,0.478 1.687,0.478l1.92,0l0,-0.948l-1.868,0c-0.896,0 -1.28,-0.358 -1.287,-1.338l3.155,0l0,-0.949l-3.148,0c0.046,-0.853 0.46,-1.261 1.28,-1.261Z" style="fill:#fff;fill-rule:nonzero;"/><path d="M58.987,70.362l0,-0.971l-2.974,0c-1.288,0 -1.897,0.486 -1.897,1.667c0,1.09 0.564,1.56 1.799,1.56l1.341,0c0.549,0 0.806,0.145 0.806,0.631c0,0.471 -0.279,0.616 -0.882,0.616l-2.846,0l0,0.971l3.027,0c1.28,0 1.889,-0.486 1.889,-1.632c0,-1.14 -0.519,-1.542 -1.723,-1.542l-1.507,0c-0.474,0 -0.715,-0.196 -0.715,-0.589c0,-0.499 0.278,-0.711 0.873,-0.711l2.809,0Z" style="fill:#fff;fill-rule:nonzero;"/><path d="M63.167,69.391l0,5.445l2.507,0c0.655,0 1.16,-0.053 1.687,-0.478c0.556,-0.448 0.827,-1.16 0.827,-2.146c0,-1.926 -0.805,-2.821 -2.544,-2.821l-2.477,0Zm2.454,0.949c1.009,0 1.326,0.439 1.326,1.774c0,1.341 -0.317,1.774 -1.326,1.774l-1.318,0l0,-3.548l1.318,0Z" style="fill:#fff;fill-rule:nonzero;"/><path d="M71.276,70.34l1.867,0l0,-0.949l-1.89,0c-1.739,0 -2.544,0.895 -2.544,2.817c0,0.988 0.271,1.702 0.828,2.15c0.526,0.425 1.031,0.478 1.686,0.478l1.92,0l0,-0.948l-1.867,0c-0.896,0 -1.28,-0.358 -1.288,-1.338l3.155,0l0,-0.949l-3.147,0c0.045,-0.853 0.459,-1.261 1.28,-1.261Z" style="fill:#fff;fill-rule:nonzero;"/><path d="M81.773,70.362l0,-0.971l-2.975,0c-1.287,0 -1.897,0.486 -1.897,1.667c0,1.09 0.565,1.56 1.799,1.56l1.341,0c0.55,0 0.806,0.145 0.806,0.631c0,0.471 -0.279,0.616 -0.881,0.616l-2.846,0l0,0.971l3.027,0c1.279,0 1.889,-0.486 1.889,-1.632c0,-1.14 -0.519,-1.542 -1.724,-1.542l-1.506,0c-0.475,0 -0.716,-0.196 -0.716,-0.589c0,-0.499 0.279,-0.711 0.874,-0.711l2.809,0Z" style="fill:#fff;fill-rule:nonzero;"/><path d="M85.191,70.34l1.867,0l0,-0.949l-1.89,0c-1.739,0 -2.544,0.895 -2.544,2.817c0,0.988 0.271,1.702 0.828,2.15c0.527,0.425 1.031,0.478 1.686,0.478l1.92,0l0,-0.948l-1.867,0c-0.896,0 -1.28,-0.358 -1.288,-1.338l3.155,0l0,-0.949l-3.147,0c0.045,-0.853 0.459,-1.261 1.28,-1.261Z" style="fill:#fff;fill-rule:nonzero;"/><path d="M90.093,72.565l1.522,0l0,1.285l-1.281,0c-0.919,0 -1.28,-0.532 -1.28,-1.695c0,-1.241 0.369,-1.823 1.28,-1.823l2.447,0l0,-0.941l-2.447,0c-1.732,0 -2.544,0.895 -2.544,2.817c0,0.988 0.271,1.702 0.827,2.15c0.542,0.44 1.062,0.478 1.717,0.478l2.447,0l0,-3.235l-2.688,0l0,0.964Z" style="fill:#fff;fill-rule:nonzero;"/><path d="M94.905,69.391l-1.129,0l0,3.291c0,0.69 0.06,1.168 0.308,1.464c0.444,0.531 1.099,0.751 2.041,0.751c0.941,0 1.589,-0.22 2.033,-0.751c0.24,-0.289 0.316,-0.766 0.316,-1.464l0,-3.291l-1.136,0l0,3.261c0,0.963 -0.272,1.365 -1.213,1.365c-0.942,0 -1.22,-0.402 -1.22,-1.365l0,-3.261Z" style="fill:#fff;fill-rule:nonzero;"/><path d="M99.649,69.391l0,5.445l1.136,0l0,-2.142l1.341,0l1.19,2.142l1.28,0l-1.347,-2.278c0.699,-0.152 1.091,-0.691 1.091,-1.531c0,-1.143 -0.61,-1.636 -1.89,-1.636l-2.801,0Zm2.53,0.971c0.678,0 1.009,0.121 1.009,0.681c0,0.551 -0.331,0.687 -1.009,0.687l-1.394,0l0,-1.368l1.394,0Z" style="fill:#fff;fill-rule:nonzero;"/><path d="M107.721,70.21c1.002,0 1.461,0.616 1.461,1.9c0,1.284 -0.459,1.899 -1.461,1.899c-1.017,0 -1.454,-0.615 -1.454,-1.945c0,-1.238 0.475,-1.854 1.454,-1.854Zm-2.695,1.847c0,1.983 0.835,2.893 2.695,2.893c1.837,0 2.695,-0.91 2.695,-2.84c0,-1.93 -0.858,-2.833 -2.695,-2.833c-1.815,0 -2.695,0.903 -2.695,2.78Z" style="fill:#fff;fill-rule:nonzero;"/><path d="M115.838,70.362l0,-0.971l-2.974,0c-1.288,0 -1.897,0.486 -1.897,1.667c0,1.09 0.564,1.56 1.799,1.56l1.341,0c0.549,0 0.806,0.145 0.806,0.631c0,0.471 -0.279,0.616 -0.882,0.616l-2.846,0l0,0.971l3.027,0c1.28,0 1.889,-0.486 1.889,-1.632c0,-1.14 -0.519,-1.542 -1.723,-1.542l-1.507,0c-0.474,0 -0.715,-0.196 -0.715,-0.589c0,-0.499 0.278,-0.711 0.873,-0.711l2.809,0Z" style="fill:#fff;fill-rule:nonzero;"/></g><path d="M71.066,59.193l-11.066,0l0,2.218l11.066,0l0,-2.218Zm0,-7.744l-8.206,0.05c-1.539,-0.028 -2.82,0.664 -2.86,2.167l0,1.613c0.297,1.303 1.081,2.138 2.92,2.252c3.375,0.21 4.667,-0.465 4.859,1.112l3.287,0l0,-0.817c-0.171,-1.548 -1.103,-2.359 -2.778,-2.451l-4.107,-0.02c-1.285,-0.015 -1.16,-1.67 -0.021,-1.689l6.906,0l0,-2.217Z" style="fill:#465e89;"/><path d="M51.791,54.896c0.001,0.155 0.058,0.254 0.119,0.32c0.062,0.068 0.167,0.14 0.351,0.149l6.146,0l0,2.188l-6.188,0c-0.164,0.021 -0.403,0.214 -0.428,0.466l0,3.392l-3.309,0l0,-7.169l3.309,0l0,0.654Zm7.821,-3.397l-11.13,0l0,2.167l11.13,0l0,-2.167Z" style="fill:#465e89;"/></g></svg>