<?xml version="1.0" encoding="UTF-8" standalone="no"?>
<svg
   xmlns:serif="http://www.serif.com/"
   xmlns:dc="http://purl.org/dc/elements/1.1/"
   xmlns:cc="http://creativecommons.org/ns#"
   xmlns:rdf="http://www.w3.org/1999/02/22-rdf-syntax-ns#"
   xmlns:svg="http://www.w3.org/2000/svg"
   xmlns="http://www.w3.org/2000/svg"
   xmlns:sodipodi="http://sodipodi.sourceforge.net/DTD/sodipodi-0.dtd"
   xmlns:inkscape="http://www.inkscape.org/namespaces/inkscape"
   width="380.58398"
   height="80"
   viewBox="0 0 380.58398 80"
   version="1.1"
   xml:space="preserve"
   style="clip-rule:evenodd;fill-rule:evenodd;stroke-linejoin:round;stroke-miterlimit:2"
   id="svg475"
   sodipodi:docname="mapfre.svg"
   inkscape:version="1.0.1 (3bc2e813f5, 2020-09-07)"><metadata
     id="metadata481"><rdf:RDF><cc:Work
         rdf:about=""><dc:format>image/svg+xml</dc:format><dc:type
           rdf:resource="http://purl.org/dc/dcmitype/StillImage" /><dc:title></dc:title></cc:Work></rdf:RDF></metadata><defs
     id="defs479" /><sodipodi:namedview
     pagecolor="#ffffff"
     bordercolor="#666666"
     borderopacity="1"
     objecttolerance="10"
     gridtolerance="10"
     guidetolerance="10"
     inkscape:pageopacity="0"
     inkscape:pageshadow="2"
     inkscape:window-width="1317"
     inkscape:window-height="712"
     id="namedview477"
     showgrid="false"
     inkscape:zoom="0.42580645"
     inkscape:cx="775.60912"
     inkscape:cy="261.59894"
     inkscape:window-x="49"
     inkscape:window-y="28"
     inkscape:window-maximized="1"
     inkscape:current-layer="svg475" /><g
     id="Camada-1"
     serif:id="Camada 1"
     transform="matrix(0.13004789,0,0,0.13004789,-38.075031,-113.45976)"><path
       d="m 600.364,901.742 c -153.696,0 -278.291,124.596 -278.291,278.283 0,153.696 124.595,278.288 278.291,278.288 153.696,0 278.284,-124.592 278.284,-278.288 0,-153.687 -124.588,-278.283 -278.284,-278.283 m 0,-29.296 c 169.871,0 307.575,137.708 307.575,307.579 0,169.879 -137.704,307.579 -307.575,307.579 -169.879,0 -307.587,-137.7 -307.587,-307.579 0,-169.871 137.708,-307.579 307.587,-307.579"
       style="fill:#ed1b2d"
       id="path458" /><path
       d="m 663.658,1067.58 c -0.213,-0.096 -0.451,-0.2 -0.709,-0.296 -19.529,-7.1 -40.608,-10.971 -62.583,-10.971 -21.863,0 -42.842,3.834 -62.292,10.871 -0.692,0.254 -1.229,0.521 -1.633,0.808 -6.396,3.017 -10.821,9.521 -10.821,17.067 0,4.004 1.242,7.713 3.375,10.767 l 62.871,108.254 c 1.492,3.196 4.737,5.412 8.5,5.412 3.675,0 6.862,-2.12 8.396,-5.208 l 62.891,-108.292 c 2.238,-3.104 3.555,-6.908 3.555,-11.025 0,-7.82 -4.767,-14.529 -11.55,-17.387 m -184.917,35.525 c -0.158,0.112 -0.321,0.237 -0.5,0.375 -12.938,10.871 -24.233,24.133 -33.171,39.612 -8.883,15.4 -14.717,31.721 -17.671,48.28 -0.104,0.595 -0.125,1.083 -0.096,1.483 -0.475,5.737 2.313,11.496 7.621,14.571 2.821,1.621 5.942,2.254 8.954,1.987 l 101.796,-0.258 c 2.859,0.254 5.738,-1.133 7.267,-3.779 1.487,-2.596 1.3,-5.692 -0.25,-8.029 l -50.692,-88.33 c -1.283,-2.833 -3.421,-5.308 -6.312,-6.97 -5.513,-3.184 -12.175,-2.555 -16.946,1.058 m 243.246,0 c -4.771,-3.613 -11.442,-4.242 -16.946,-1.058 -2.896,1.662 -5.038,4.137 -6.317,6.97 l -50.691,88.33 c -1.55,2.337 -1.742,5.433 -0.25,8.029 1.529,2.646 4.408,4.033 7.258,3.779 l 101.8,0.258 c 3.021,0.267 6.137,-0.366 8.958,-1.987 5.309,-3.075 8.092,-8.834 7.617,-14.571 0.042,-0.4 0.008,-0.888 -0.096,-1.483 -2.95,-16.559 -8.779,-32.88 -17.667,-48.28 -8.933,-15.479 -20.233,-28.741 -33.175,-39.612 -0.17,-0.138 -0.337,-0.263 -0.491,-0.375 m -106.525,136.554 v 94.263 h -30.175 v -94.263 c -14.417,0 -33.238,-0.062 -40.359,-0.312 l -100.058,0.241 c -8.475,0.429 -17.187,-1.512 -25.033,-6.033 -15.209,-8.788 -23.379,-24.983 -22.721,-41.283 0.017,-2.425 0.283,-4.525 0.575,-6.196 3.562,-19.946 10.579,-39.6 21.25,-58.067 10.717,-18.567 24.308,-34.546 39.9,-47.637 10.467,-7.721 25.117,-11.6 38.6,-9.238 3.808,-12.867 12.75,-23.508 24.387,-29.567 2.209,-1.266 4.28,-2.141 5.992,-2.762 22.679,-8.204 47.121,-12.667 72.546,-12.667 25.546,0 50.108,4.509 72.896,12.796 13.108,5.696 24.796,17.617 29.691,31.838 12.88,-2.955 26.196,-0.084 36.684,7.875 15.591,13.095 31.425,30.795 42.15,49.362 10.666,18.467 17.683,38.121 21.241,58.067 0.296,1.671 0.563,3.771 0.58,6.196 0.666,16.3 -7.517,32.495 -22.725,41.283 -7.846,4.521 -16.546,6.462 -25.025,6.033 l -100.067,-0.241 c -7.117,0.25 -25.917,0.308 -40.329,0.312"
       style="fill:#ed1b2d"
       id="path460" /><path
       d="m 1175.32,1018.96 75.109,153.791 75.116,-153.791 113.58,0.01 v 307.583 h -113.58 v -153.8 l -75.116,153.792 -75.109,-153.792 v 153.788 H 1061.741 V 1018.96 Z"
       style="fill:#ed1b2d"
       id="path462" /><path
       d="m 1475.56,1326.55 88.346,-307.592 h 200.695 l 88.334,307.592 h -113.571 l -14.504,-50.479 h -121.221 l -14.5,50.479 z m 188.687,-261.533 -46.112,160.575 h 92.233 z"
       style="fill:#ed1b2d"
       id="path464" /><path
       d="m 2101.71,1019.1 h -212.563 v 307.45 h 113.555 v -128.116 h 99.008 c 49.521,0 89.662,-40.15 89.662,-89.671 0,-49.517 -40.141,-89.663 -89.662,-89.663 m -72.446,35.225 c 25.6,0 50.479,13.692 50.479,41.563 0,27.875 -21.941,50.471 -50.479,50.471 h -24.633 v -92.034 z"
       style="fill:#ed1b2d"
       id="path466" /><path
       d="m 2230.76,1018.96 h 301.958 v 50.479 h -188.392 v 78.217 h 188.392 v 50.479 h -188.392 v 128.416 H 2230.76 Z"
       style="fill:#ed1b2d"
       id="path468" /><path
       d="m 3030.86,1276.07 h 188.408 v 50.475 H 2917.28 v -307.592 h 301.988 v 50.484 H 3030.86 v 78.216 h 188.408 v 50.48 H 3030.86 Z"
       style="fill:#ed1b2d"
       id="path470" /><path
       d="m 2874.64,1249.67 c 0,-0.842 0.029,-1.684 0,-2.53 -1.337,-41.283 -35.262,-74.337 -76.871,-74.337 42.454,0 76.871,-34.421 76.871,-76.879 0,-42.454 -34.417,-76.871 -76.871,-76.871 h -225.316 v 307.496 l 115.466,-0.01 v -127.333 h 24.621 c 27.833,0 50.475,22.596 50.475,50.463 0,0.829 -0.029,1.65 -0.067,2.475 v 74.395 h 111.692 z m 0,-2.53 v 2.53 c 0,-0.842 0.029,-1.684 0,-2.53 m -162.1,-192.775 c 24.954,0 50.475,13.688 50.475,41.559 0,27.871 -22.587,50.458 -50.475,50.458 h -24.621 v -92.017 z"
       style="fill:#ed1b2d"
       id="path472" /></g></svg>
