<?xml version="1.0" encoding="UTF-8" standalone="no"?>
<svg
   xmlns:dc="http://purl.org/dc/elements/1.1/"
   xmlns:cc="http://creativecommons.org/ns#"
   xmlns:rdf="http://www.w3.org/1999/02/22-rdf-syntax-ns#"
   xmlns:svg="http://www.w3.org/2000/svg"
   xmlns="http://www.w3.org/2000/svg"
   xmlns:sodipodi="http://sodipodi.sourceforge.net/DTD/sodipodi-0.dtd"
   xmlns:inkscape="http://www.inkscape.org/namespaces/inkscape"
   width="1065.021"
   height="605.54901"
   viewBox="0 0 1065.021 605.54901"
   version="1.1"
   xml:space="preserve"
   style="clip-rule:evenodd;fill-rule:evenodd;stroke-linejoin:round;stroke-miterlimit:2"
   id="svg260"
   sodipodi:docname="sbs.svg"
   inkscape:version="1.0.1 (3bc2e813f5, 2020-09-07)"><metadata
     id="metadata266"><rdf:RDF><cc:Work
         rdf:about=""><dc:format>image/svg+xml</dc:format><dc:type
           rdf:resource="http://purl.org/dc/dcmitype/StillImage" /><dc:title></dc:title></cc:Work></rdf:RDF></metadata><defs
     id="defs264" /><sodipodi:namedview
     pagecolor="#ffffff"
     bordercolor="#666666"
     borderopacity="1"
     objecttolerance="10"
     gridtolerance="10"
     guidetolerance="10"
     inkscape:pageopacity="0"
     inkscape:pageshadow="2"
     inkscape:window-width="1317"
     inkscape:window-height="712"
     id="namedview262"
     showgrid="false"
     inkscape:zoom="0.25335893"
     inkscape:cx="670.26876"
     inkscape:cy="524.11327"
     inkscape:window-x="49"
     inkscape:window-y="28"
     inkscape:window-maximized="1"
     inkscape:current-layer="svg260"
     fit-margin-top="0"
     fit-margin-left="0"
     fit-margin-right="0"
     fit-margin-bottom="0"
     showguides="false"
     inkscape:document-rotation="0" /><path
     d="M 703.126,195.571 531.685,367.013 361.893,197.221 534.114,24.996 Z M 526.84,308.332 c 23.696,-23.696 47.396,-47.396 71.092,-71.092 31.979,-31.979 13.213,-80.346 -14.333,-107.892 L 465.24,247.707 c 20.534,20.208 41.067,40.412 61.6,60.625 z m 14.035,-274.817 -71.092,71.091 c -31.979,31.979 -13.213,80.346 14.333,107.892 L 602.475,94.14 C 581.941,73.931 561.408,53.723 540.875,33.515 Z"
     style="fill:#ffffff;fill-rule:nonzero"
     id="path183" /><path
     d="M 534.116,0 361.895,172.221 531.687,342.013 703.128,170.575 Z m -7.276,308.334 c 23.696,-23.696 47.396,-47.396 71.092,-71.092 31.979,-31.979 13.213,-80.346 -14.333,-107.892 L 465.24,247.709 c 20.534,20.208 41.067,40.412 61.6,60.625 z M 540.875,33.517 469.783,104.608 C 437.804,136.587 456.57,184.954 484.116,212.5 L 602.475,94.142 C 581.941,73.933 561.408,53.725 540.875,33.517 Z"
     style="fill:#ffffff"
     id="path185" /><path
     d="M 4.021,496.321 0,479.846 c 8.037,6.746 16.512,10.117 25.412,10.117 4.063,0 7.521,-1.012 10.375,-3.033 2.855,-2.025 4.28,-4.484 4.28,-7.371 0,-2.604 -1.084,-4.867 -3.242,-6.792 -2.163,-1.929 -6.613,-4.433 -13.358,-7.516 -7,-3.18 -11.925,-6.071 -14.78,-8.671 -3.804,-3.471 -5.704,-7.85 -5.704,-13.15 0,-6.167 2.463,-11.104 7.388,-14.813 4.929,-3.708 11.454,-5.562 19.583,-5.562 5.442,0 11.279,0.912 17.5,2.741 v 15.034 c -5.358,-5.588 -11.408,-8.384 -18.15,-8.384 -3.629,0 -6.633,0.892 -9.012,2.675 -2.38,1.784 -3.567,4.071 -3.567,6.863 0,2.312 0.996,4.312 2.983,5.996 1.988,1.687 6.096,3.975 12.317,6.866 7.608,3.563 12.796,6.5 15.562,8.817 3.975,3.275 5.963,7.467 5.963,12.571 0,6.742 -2.829,12.379 -8.492,16.908 -5.662,4.529 -12.687,6.792 -21.071,6.792 -6.483,0 -13.141,-1.204 -19.966,-3.613"
     style="fill:#ffffff;fill-rule:nonzero"
     id="path187" /><path
     d="m 116.565,497.911 v -6.359 c -5.187,5.588 -12.058,8.379 -20.616,8.379 -5.359,0 -10.2,-1.25 -14.521,-3.754 -4.929,-2.891 -8.258,-6.887 -9.988,-11.996 -0.862,-2.695 -1.295,-7.029 -1.295,-13.008 v -31.358 c 0,-4.625 -0.259,-7.704 -0.775,-9.25 -0.521,-1.538 -1.946,-3.371 -4.28,-5.488 h 22.692 c -2.337,2.117 -3.762,3.95 -4.283,5.488 -0.517,1.546 -0.775,4.625 -0.775,9.25 v 31.358 c 0,5.879 1.166,10.167 3.5,12.863 3.283,3.858 7.65,5.783 13.096,5.783 2.937,0 5.983,-0.796 9.141,-2.388 3.154,-1.587 5.379,-3.729 6.679,-6.429 0.688,-1.446 1.038,-3.516 1.038,-6.212 v -34.975 c 0,-4.625 -0.263,-7.704 -0.779,-9.25 -0.521,-1.538 -1.946,-3.371 -4.279,-5.488 h 22.691 c -2.333,2.117 -3.762,3.95 -4.279,5.488 -0.521,1.546 -0.779,4.625 -0.779,9.25 v 43.354 c 0,4.625 0.258,7.712 0.779,9.25 0.517,1.542 1.946,3.375 4.279,5.492 z"
     style="fill:#ffffff;fill-rule:nonzero"
     id="path189" /><path
     d="m 163.632,435.191 v 47.979 c 0,4.721 0.258,7.829 0.779,9.321 0.521,1.495 1.946,3.3 4.279,5.42 h -22.692 c 2.421,-2.216 3.867,-4.045 4.346,-5.491 0.471,-1.446 0.708,-4.529 0.708,-9.25 v -43.354 c 0,-4.625 -0.258,-7.705 -0.775,-9.25 -0.52,-1.538 -1.945,-3.371 -4.279,-5.492 h 11.409 c 0.862,0 2.679,-0.046 5.445,-0.142 h 10.634 c 5.791,0 10.525,0.817 14.196,2.454 3.675,1.642 6.616,4.05 8.82,7.225 2.2,3.184 3.305,6.6 3.305,10.263 0,5.683 -2.421,10.646 -7.263,14.883 -4.842,4.242 -10.458,6.359 -16.854,6.359 -3.371,0 -6.571,-1.009 -9.596,-3.034 5.792,-0.866 9.725,-1.879 11.8,-3.033 5.358,-2.892 8.042,-7.275 8.042,-13.15 0,-8.288 -5.146,-12.429 -15.434,-12.429 -2.42,0 -4.708,0.241 -6.87,0.721"
     style="fill:#ffffff;fill-rule:nonzero"
     id="path191" /><path
     d="m 226.777,463.221 v 23.7 c 4.15,0.675 8.6,1.013 13.358,1.013 8.208,0 15.554,-1.496 22.042,-4.484 l -5.45,14.454 h -47.584 c 2.334,-2.216 3.759,-4.07 4.279,-5.566 0.517,-1.492 0.775,-4.596 0.775,-9.321 v -43.208 c 0,-4.625 -0.258,-7.705 -0.775,-9.25 -0.52,-1.538 -1.945,-3.371 -4.279,-5.492 h 37.734 c 1.812,0 3.454,-0.333 4.925,-1.008 v 13.295 c -3.113,-1.737 -7.78,-2.604 -14.005,-2.604 -4.841,0 -8.512,0.196 -11.02,0.579 v 18.209 h 14.133 c 1.383,0 2.896,-0.338 4.537,-1.013 v 12.863 c -2.162,-1.446 -5.312,-2.167 -9.466,-2.167 z"
     style="fill:#ffffff;fill-rule:nonzero"
     id="path193" /><path
     d="m 286.032,434.461 v 48.7 c 0,4.625 0.258,7.712 0.779,9.25 0.521,1.541 1.946,3.375 4.279,5.491 h -22.692 c 2.421,-2.216 3.867,-4.046 4.346,-5.491 0.471,-1.442 0.708,-4.525 0.708,-9.25 v -43.355 c 0,-4.625 -0.258,-7.704 -0.775,-9.25 -0.52,-1.537 -1.945,-3.37 -4.279,-5.487 h 22.042 c 0.779,0 1.687,-0.05 2.721,-0.146 h 2.075 c 7.087,0 12.666,1.446 16.729,4.333 5.1,3.567 7.65,8.434 7.65,14.596 0,4.625 -2.163,9.013 -6.483,13.154 -2.334,2.217 -5.705,4.096 -10.113,5.634 8.038,11.179 14.279,19.104 18.733,23.775 4.455,4.671 9.271,8.404 14.459,11.2 -6.225,0.575 -10.2,0.866 -11.929,0.866 -3.113,0 -5.75,-0.675 -7.909,-2.025 -2.162,-1.345 -5.012,-4.141 -8.558,-8.379 -6.658,-7.996 -13.225,-17.583 -19.708,-28.758 11.754,-2.117 17.633,-6.983 17.633,-14.596 0,-3.275 -1.188,-5.925 -3.563,-7.95 -2.379,-2.025 -5.512,-3.033 -9.404,-3.033 -2.246,0 -4.491,0.241 -6.741,0.721"
     style="fill:#ffffff;fill-rule:nonzero"
     id="path195" /><path
     d="m 364.476,497.911 h -22.691 c 2.42,-2.217 3.866,-4.046 4.341,-5.492 0.471,-1.446 0.717,-4.525 0.717,-9.25 v -43.354 c 0,-4.625 -0.263,-7.704 -0.783,-9.25 -0.513,-1.538 -1.946,-3.371 -4.275,-5.488 h 22.691 c -2.337,2.117 -3.758,3.95 -4.279,5.488 -0.521,1.546 -0.783,4.625 -0.783,9.25 v 43.354 c 0,4.625 0.262,7.712 0.783,9.25 0.521,1.542 1.942,3.375 4.279,5.492"
     style="fill:#ffffff;fill-rule:nonzero"
     id="path197" /><path
     d="m 391.832,442.991 v 40.175 c 0,4.625 0.258,7.709 0.779,9.25 0.521,1.542 1.942,3.371 4.279,5.492 h -19.712 c 2.421,-2.217 3.871,-4.05 4.346,-5.492 0.475,-1.446 0.712,-4.529 0.712,-9.25 v -43.354 c 0,-4.625 -0.258,-7.704 -0.775,-9.25 -0.516,-1.537 -1.946,-3.371 -4.283,-5.492 h 16.992 c 0.258,0.484 0.645,1.159 1.166,2.025 l 0.388,0.58 1.296,1.733 36.695,49.567 v -39.163 c 0,-4.625 -0.262,-7.704 -0.779,-9.25 -0.521,-1.537 -1.946,-3.371 -4.279,-5.492 h 19.708 c -2.333,2.121 -3.762,3.955 -4.279,5.492 -0.516,1.546 -0.779,4.625 -0.779,9.25 v 61.854 c -6.654,-2.121 -12.187,-6.121 -16.596,-11.996 z"
     style="fill:#ffffff;fill-rule:nonzero"
     id="path199" /><path
     d="m 514.366,423.921 -4.279,14.741 c -1.554,-1.733 -3.329,-2.795 -5.321,-3.179 -1.121,-0.291 -3.154,-0.437 -6.092,-0.437 l -2.204,0.146 c -1.9,0 -3.933,0.05 -6.096,0.145 v 47.692 c 0,4.721 0.263,7.85 0.784,9.392 0.516,1.541 1.941,3.375 4.275,5.491 h -22.688 c 2.329,-2.216 3.759,-4.07 4.275,-5.566 0.521,-1.492 0.779,-4.596 0.779,-9.317 v -47.692 c -2.07,-0.191 -4.8,-0.291 -8.166,-0.291 -6.05,0 -10.979,1.4 -14.784,4.191 l 4.021,-15.029 c 1.467,0.579 3.5,0.867 6.096,0.867 h 41.746 c 0.867,0 1.775,-0.046 2.725,-0.142 h 1.296 c 0.95,-0.096 2.158,-0.433 3.633,-1.012"
     style="fill:#ffffff;fill-rule:nonzero"
     id="path201" /><path
     d="m 539.776,463.221 v 23.7 c 4.15,0.675 8.6,1.013 13.354,1.013 8.213,0 15.559,-1.496 22.042,-4.484 l -5.446,14.454 h -47.583 c 2.333,-2.216 3.762,-4.07 4.279,-5.566 0.517,-1.492 0.775,-4.596 0.775,-9.321 v -43.208 c 0,-4.625 -0.258,-7.705 -0.775,-9.25 -0.517,-1.538 -1.946,-3.371 -4.279,-5.492 h 37.729 c 1.817,0 3.458,-0.333 4.929,-1.008 v 13.295 c -3.112,-1.737 -7.779,-2.604 -14,-2.604 -4.846,0 -8.516,0.196 -11.025,0.579 v 18.209 h 14.134 c 1.383,0 2.895,-0.338 4.537,-1.013 v 12.863 c -2.162,-1.446 -5.317,-2.167 -9.462,-2.167 z"
     style="fill:#ffffff;fill-rule:nonzero"
     id="path203" /><path
     d="m 596.046,442.991 v 40.175 c 0,4.625 0.259,7.709 0.779,9.25 0.521,1.542 1.942,3.371 4.28,5.492 h -19.713 c 2.421,-2.217 3.871,-4.05 4.346,-5.492 0.475,-1.446 0.712,-4.529 0.712,-9.25 v -43.354 c 0,-4.625 -0.258,-7.704 -0.775,-9.25 -0.516,-1.537 -1.945,-3.371 -4.283,-5.492 h 16.992 c 0.258,0.484 0.646,1.159 1.166,2.025 l 0.388,0.58 1.296,1.733 36.696,49.567 v -39.163 c 0,-4.625 -0.263,-7.704 -0.78,-9.25 -0.52,-1.537 -1.945,-3.371 -4.279,-5.492 h 19.709 c -2.334,2.121 -3.763,3.955 -4.28,5.492 -0.516,1.546 -0.779,4.625 -0.779,9.25 v 61.854 c -6.654,-2.121 -12.187,-6.121 -16.596,-11.996 z"
     style="fill:#ffffff;fill-rule:nonzero"
     id="path205" /><path
     d="m 682.136,435.191 v 52.025 c 2.508,0.483 4.966,0.725 7.387,0.725 8.042,0 14.179,-1.542 18.413,-4.625 6.745,-4.913 10.116,-12.042 10.116,-21.388 0,-8.479 -2.4,-15.221 -7.196,-20.233 -4.8,-5.009 -11.262,-7.517 -19.387,-7.517 -2.504,0 -5.617,0.342 -9.333,1.013 m 1.037,62.72 h -18.671 c 2.421,-2.216 3.867,-4.045 4.346,-5.491 0.471,-1.446 0.708,-4.529 0.708,-9.25 v -43.354 c 0,-4.625 -0.258,-7.705 -0.775,-9.25 -0.516,-1.538 -1.945,-3.371 -4.279,-5.492 h 19.317 c 1.383,0 3.029,-0.046 4.929,-0.142 h 3.371 c 11.325,0 20.487,2.842 27.487,8.525 8.388,6.842 12.58,15.946 12.58,27.313 0,7.321 -1.88,14.041 -5.642,20.162 -3.758,6.117 -8.75,10.571 -14.975,13.367 -5.271,2.408 -14.742,3.612 -28.396,3.612"
     style="fill:#ffffff;fill-rule:nonzero"
     id="path207" /><path
     d="m 760.326,463.221 v 23.7 c 4.15,0.675 8.6,1.013 13.354,1.013 8.212,0 15.558,-1.496 22.042,-4.484 l -5.446,14.454 h -47.584 c 2.334,-2.216 3.763,-4.07 4.28,-5.566 0.516,-1.492 0.775,-4.596 0.775,-9.321 v -43.208 c 0,-4.625 -0.259,-7.705 -0.775,-9.25 -0.517,-1.538 -1.946,-3.371 -4.28,-5.492 h 37.73 c 1.816,0 3.458,-0.333 4.929,-1.008 v 13.295 c -3.113,-1.737 -7.779,-2.604 -14,-2.604 -4.846,0 -8.517,0.196 -11.025,0.579 v 18.209 h 14.133 c 1.383,0 2.896,-0.338 4.538,-1.013 v 12.863 c -2.163,-1.446 -5.317,-2.167 -9.463,-2.167 z"
     style="fill:#ffffff;fill-rule:nonzero"
     id="path209" /><path
     d="m 816.596,442.991 v 40.175 c 0,4.625 0.258,7.709 0.779,9.25 0.521,1.542 1.942,3.371 4.279,5.492 h -19.712 c 2.421,-2.217 3.871,-4.05 4.346,-5.492 0.475,-1.446 0.712,-4.529 0.712,-9.25 v -43.354 c 0,-4.625 -0.258,-7.704 -0.775,-9.25 -0.517,-1.537 -1.946,-3.371 -4.283,-5.492 h 16.991 c 0.259,0.484 0.646,1.159 1.167,2.025 l 0.388,0.58 1.295,1.733 36.696,49.567 v -39.163 c 0,-4.625 -0.262,-7.704 -0.779,-9.25 -0.521,-1.537 -1.946,-3.371 -4.279,-5.492 h 19.708 c -2.333,2.121 -3.762,3.955 -4.279,5.492 -0.517,1.546 -0.779,4.625 -0.779,9.25 v 61.854 c -6.654,-2.121 -12.188,-6.121 -16.596,-11.996 z"
     style="fill:#ffffff;fill-rule:nonzero"
     id="path211" /><path
     d="m 948.856,481.001 -6.87,15.321 c -5.538,2.404 -11.371,3.608 -17.509,3.608 -13.396,0 -23.812,-4.237 -31.25,-12.712 -6.566,-7.517 -9.854,-16.234 -9.854,-26.159 0,-10.787 3.675,-19.821 11.025,-27.096 7.342,-7.275 16.467,-10.912 27.358,-10.912 5.792,0 12.617,1.062 20.484,3.179 v 14.742 c -7.434,-4.625 -14.304,-6.938 -20.613,-6.938 -7.004,0 -12.883,2.604 -17.637,7.804 -4.15,4.53 -6.221,10.55 -6.221,18.067 0,8.092 2.483,15.025 7.454,20.808 4.971,5.78 11,8.671 18.088,8.671 6.912,0 15.429,-2.796 25.545,-8.383"
     style="fill:#ffffff;fill-rule:nonzero"
     id="path213" /><path
     d="m 979.326,497.911 h -22.692 c 2.421,-2.217 3.867,-4.046 4.346,-5.492 0.471,-1.446 0.713,-4.525 0.713,-9.25 v -43.354 c 0,-4.625 -0.263,-7.704 -0.779,-9.25 -0.517,-1.538 -1.946,-3.371 -4.28,-5.488 h 22.692 c -2.337,2.117 -3.758,3.95 -4.279,5.488 -0.517,1.546 -0.779,4.625 -0.779,9.25 v 43.354 c 0,4.625 0.262,7.712 0.779,9.25 0.521,1.542 1.942,3.375 4.279,5.492"
     style="fill:#ffffff;fill-rule:nonzero"
     id="path215" /><path
     d="m 1033.776,462.791 -9.334,-27.604 -9.6,27.604 z m 2.854,8.525 h -24.379 l -6.096,15.754 c -0.775,2.021 -1.163,3.663 -1.163,4.913 0,1.541 1.338,3.521 4.021,5.925 h -21.525 c 3.629,-2.217 7,-7.463 10.108,-15.75 l 18.03,-47.259 c 0.775,-2.02 1.162,-3.516 1.162,-4.479 0,-1.446 -1.254,-3.225 -3.758,-5.346 h 19.316 l 22.175,57.084 c 1.9,4.912 3.475,8.308 4.73,10.187 1.254,1.879 3.179,3.734 5.77,5.563 h -23.987 c 0.692,-0.767 1.125,-1.204 1.3,-1.3 1.637,-1.538 2.462,-2.838 2.462,-3.9 0,-0.771 -0.604,-2.65 -1.816,-5.638 z"
     style="fill:#ffffff;fill-rule:nonzero"
     id="path217" /><path
     d="m 65.742,552.681 v 35.05 c 1.687,0.325 3.35,0.487 4.979,0.487 5.416,0 9.55,-1.037 12.404,-3.117 4.546,-3.308 6.817,-8.112 6.817,-14.408 0,-5.712 -1.617,-10.258 -4.85,-13.633 -3.234,-3.375 -7.588,-5.063 -13.059,-5.063 -1.691,0 -3.787,0.229 -6.291,0.684 m 0.695,42.258 H 53.858 c 1.634,-1.496 2.609,-2.729 2.929,-3.7 0.321,-0.975 0.48,-3.054 0.48,-6.233 v -29.213 c 0,-3.112 -0.175,-5.192 -0.525,-6.229 -0.35,-1.038 -1.309,-2.271 -2.884,-3.7 h 13.017 c 0.933,0 2.042,-0.033 3.321,-0.096 h 2.271 c 7.629,0 13.804,1.913 18.525,5.742 5.645,4.608 8.47,10.746 8.47,18.404 0,4.933 -1.266,9.458 -3.8,13.583 -2.533,4.125 -5.895,7.121 -10.091,9.009 -3.55,1.62 -9.929,2.433 -19.134,2.433"
     style="fill:#ffffff;fill-rule:nonzero"
     id="path219" /><path
     d="m 118.423,571.571 v 15.967 c 2.796,0.454 5.796,0.683 9,0.683 5.529,0 10.483,-1.004 14.85,-3.021 l -3.671,9.738 H 106.54 c 1.575,-1.492 2.533,-2.742 2.883,-3.746 0.35,-1.004 0.525,-3.1 0.525,-6.284 v -29.112 c 0,-3.113 -0.175,-5.192 -0.525,-6.229 -0.35,-1.038 -1.308,-2.271 -2.883,-3.7 h 25.425 c 1.22,0 2.329,-0.229 3.316,-0.684 v 8.959 c -2.096,-1.171 -5.237,-1.754 -9.433,-1.754 -3.263,0 -5.738,0.133 -7.425,0.391 v 12.271 h 9.521 c 0.933,0 1.95,-0.229 3.058,-0.683 v 8.666 c -1.458,-0.975 -3.579,-1.462 -6.375,-1.462 z"
     style="fill:#ffffff;fill-rule:nonzero"
     id="path221" /><path
     d="m 181.407,570.881 v 17.333 c 2.271,0.459 4.28,0.68 6.03,0.68 7.22,0 10.833,-2.921 10.833,-8.759 0,-6.366 -4.021,-9.541 -12.058,-9.541 -1.338,0 -2.942,0.095 -4.805,0.287 m 0,-5.454 h 1.921 c 3.204,0 5.767,-0.646 7.692,-1.942 1.921,-1.3 2.883,-3.054 2.883,-5.258 0,-2.079 -0.746,-3.738 -2.229,-4.967 -1.487,-1.233 -3.508,-1.85 -6.075,-1.85 -1.046,0 -2.446,0.096 -4.192,0.288 z m -0.525,29.504 h -11.183 c 1.633,-1.492 2.608,-2.725 2.929,-3.696 0.321,-0.979 0.479,-3.054 0.479,-6.233 v -29.213 c 0,-3.112 -0.175,-5.191 -0.525,-6.229 -0.35,-1.037 -1.308,-2.271 -2.883,-3.7 h 11.183 c 5.825,0 9.35,0.067 10.571,0.192 3.379,0.325 6.1,1.508 8.171,3.558 2.067,2.042 3.1,4.525 3.1,7.446 0,3.896 -2.154,6.975 -6.467,9.25 3.555,1.171 6.088,2.533 7.605,4.092 2.383,2.466 3.579,5.45 3.579,8.954 0,2.858 -0.871,5.537 -2.621,8.033 -1.746,2.504 -4.104,4.4 -7.075,5.696 -1.925,0.846 -3.729,1.363 -5.417,1.558 -1.866,0.196 -5.679,0.292 -11.446,0.292"
     style="fill:#ffffff;fill-rule:nonzero"
     id="path223" /><path
     d="m 242.562,571.271 -6.291,-18.596 -6.467,18.596 z m 1.921,5.746 h -16.421 l -4.108,10.612 c -0.525,1.363 -0.787,2.471 -0.787,3.313 0,1.037 0.904,2.366 2.708,3.991 h -14.5 c 2.446,-1.495 4.717,-5.029 6.812,-10.612 l 12.142,-31.842 c 0.525,-1.362 0.788,-2.366 0.788,-3.016 0,-0.975 -0.846,-2.175 -2.534,-3.605 H 241.6 l 14.937,38.463 c 1.284,3.308 2.346,5.6 3.192,6.862 0.842,1.267 2.138,2.517 3.888,3.75 h -16.163 c 0.467,-0.516 0.754,-0.812 0.875,-0.875 1.104,-1.037 1.658,-1.916 1.658,-2.629 0,-0.521 -0.408,-1.787 -1.225,-3.8 z"
     style="fill:#ffffff;fill-rule:nonzero"
     id="path225" /><path
     d="m 277.33,557.941 v 27.066 c 0,3.117 0.175,5.196 0.525,6.234 0.35,1.037 1.308,2.27 2.883,3.7 h -13.279 c 1.629,-1.496 2.604,-2.725 2.925,-3.7 0.321,-0.975 0.483,-3.05 0.483,-6.234 v -29.212 c 0,-3.113 -0.175,-5.192 -0.525,-6.229 -0.35,-1.038 -1.312,-2.271 -2.883,-3.696 h 11.442 c 0.175,0.325 0.437,0.775 0.787,1.362 l 0.263,0.384 0.875,1.17 24.721,33.396 v -26.387 c 0,-3.113 -0.175,-5.192 -0.525,-6.229 -0.346,-1.038 -1.309,-2.271 -2.88,-3.696 h 13.28 c -1.575,1.425 -2.534,2.658 -2.884,3.696 -0.35,1.037 -0.525,3.116 -0.525,6.229 v 41.675 c -4.483,-1.425 -8.212,-4.121 -11.183,-8.079 z"
     style="fill:#ffffff;fill-rule:nonzero"
     id="path227" /><path
     d="m 366.442,583.541 -4.63,10.325 c -3.729,1.617 -7.662,2.433 -11.795,2.433 -9.025,0 -16.046,-2.858 -21.055,-8.571 -4.429,-5.062 -6.637,-10.937 -6.637,-17.625 0,-7.27 2.471,-13.354 7.421,-18.254 4.95,-4.9 11.096,-7.35 18.433,-7.35 3.904,0 8.504,0.713 13.808,2.142 v 9.929 c -5.008,-3.117 -9.641,-4.675 -13.891,-4.675 -4.717,0 -8.679,1.754 -11.884,5.258 -2.795,3.05 -4.191,7.109 -4.191,12.175 0,5.45 1.675,10.125 5.021,14.017 3.35,3.9 7.412,5.842 12.187,5.842 4.658,0 10.396,-1.879 17.213,-5.646"
     style="fill:#ffffff;fill-rule:nonzero"
     id="path229" /><path
     d="m 398.676,571.271 -6.291,-18.596 -6.463,18.596 z m 1.925,5.746 h -16.425 l -4.108,10.612 c -0.525,1.363 -0.783,2.471 -0.783,3.313 0,1.037 0.904,2.366 2.708,3.991 h -14.504 c 2.45,-1.495 4.716,-5.029 6.812,-10.612 l 12.142,-31.842 c 0.525,-1.362 0.792,-2.366 0.792,-3.016 0,-0.975 -0.846,-2.175 -2.534,-3.605 h 13.017 l 14.937,38.463 c 1.28,3.308 2.346,5.6 3.188,6.862 0.846,1.267 2.142,2.517 3.892,3.75 h -16.163 c 0.463,-0.516 0.754,-0.812 0.871,-0.875 1.104,-1.037 1.658,-1.916 1.658,-2.629 0,-0.521 -0.404,-1.787 -1.221,-3.8 z"
     style="fill:#ffffff;fill-rule:nonzero"
     id="path231" /><path
     d="m 424.71,605.261 c 4.541,-4.608 6.812,-7.792 6.812,-9.546 0,-0.583 -0.642,-1.037 -1.921,-1.362 -2.508,-0.713 -3.758,-2.534 -3.758,-5.454 0,-1.684 0.537,-3.096 1.617,-4.234 1.079,-1.133 2.4,-1.704 3.975,-1.704 1.691,0 3.075,0.683 4.15,2.046 1.075,1.362 1.616,3.083 1.616,5.158 0,4.546 -2.066,9.092 -6.204,13.634 -1.046,1.17 -2.008,1.75 -2.883,1.75 -1.104,0 -2.242,-0.096 -3.404,-0.288"
     style="fill:#ffffff;fill-rule:nonzero"
     id="path233" /><path
     d="m 471.271,593.871 -2.708,-11.1 c 5.412,4.546 11.125,6.816 17.121,6.816 2.737,0 5.066,-0.683 6.991,-2.05 1.921,-1.362 2.88,-3.012 2.88,-4.962 0,-1.754 -0.73,-3.275 -2.18,-4.579 -1.458,-1.296 -4.458,-2.979 -9,-5.059 -4.716,-2.145 -8.037,-4.091 -9.962,-5.845 -2.563,-2.334 -3.842,-5.288 -3.842,-8.859 0,-4.154 1.659,-7.483 4.979,-9.979 3.317,-2.5 7.717,-3.75 13.192,-3.75 3.667,0 7.604,0.617 11.792,1.85 v 10.125 c -3.613,-3.762 -7.684,-5.646 -12.229,-5.646 -2.446,0 -4.467,0.6 -6.071,1.804 -1.604,1.2 -2.4,2.742 -2.4,4.621 0,1.559 0.666,2.904 2.004,4.042 1.342,1.137 4.108,2.675 8.3,4.625 5.125,2.4 8.621,4.383 10.487,5.942 2.675,2.204 4.017,5.029 4.017,8.47 0,4.542 -1.908,8.342 -5.721,11.388 -3.816,3.054 -8.55,4.579 -14.196,4.579 -4.37,0 -8.854,-0.812 -13.454,-2.433"
     style="fill:#ffffff;fill-rule:nonzero"
     id="path235" /><path
     d="m 523.686,571.571 v 15.967 c 2.796,0.454 5.796,0.683 8.996,0.683 5.533,0 10.488,-1.004 14.854,-3.021 l -3.666,9.738 h -32.067 c 1.575,-1.492 2.537,-2.742 2.887,-3.746 0.346,-1.004 0.521,-3.1 0.521,-6.284 v -29.112 c 0,-3.113 -0.175,-5.192 -0.521,-6.229 -0.35,-1.038 -1.312,-2.271 -2.887,-3.7 h 25.425 c 1.221,0 2.329,-0.229 3.321,-0.684 v 8.959 c -2.1,-1.171 -5.242,-1.754 -9.438,-1.754 -3.262,0 -5.737,0.133 -7.425,0.391 v 12.271 h 9.521 c 0.933,0 1.954,-0.229 3.063,-0.683 v 8.666 c -1.459,-0.975 -3.588,-1.462 -6.384,-1.462 z"
     style="fill:#ffffff;fill-rule:nonzero"
     id="path237" /><path
     d="m 592.266,546.051 v 10.129 c -3.612,-3.312 -8.008,-4.967 -13.191,-4.967 -5.242,0 -9.567,1.738 -12.971,5.209 -3.413,3.471 -5.113,7.904 -5.113,13.291 0,5.392 1.859,10.046 5.592,13.971 3.721,3.934 8.179,5.892 13.367,5.892 3.258,0 6.287,-0.421 9.083,-1.263 v -9.058 c 0,-3.308 -0.158,-5.417 -0.483,-6.329 -0.317,-0.908 -1.292,-2.075 -2.925,-3.508 l 12.491,-0.192 c -0.404,1.367 -0.608,3.017 -0.608,4.967 v 15.383 c 0,1.883 0.229,3.308 0.7,4.287 -0.758,0.063 -1.604,0.192 -2.537,0.384 -0.175,0 -1.163,0.196 -2.971,0.587 -4.484,0.971 -8.679,1.463 -12.579,1.463 -8.5,0 -15.405,-2.371 -20.705,-7.109 -5.3,-4.737 -7.95,-10.908 -7.95,-18.5 0,-7.533 2.721,-13.779 8.171,-18.745 5.446,-4.963 12.329,-7.446 20.659,-7.446 3.145,0 7.137,0.516 11.97,1.554"
     style="fill:#ffffff;fill-rule:nonzero"
     id="path239" /><path
     d="m 641.626,594.941 v -4.283 c -3.496,3.767 -8.121,5.646 -13.888,5.646 -3.612,0 -6.875,-0.846 -9.787,-2.529 -3.321,-1.95 -5.563,-4.646 -6.725,-8.084 -0.588,-1.816 -0.875,-4.737 -0.875,-8.762 v -21.134 c 0,-3.112 -0.175,-5.191 -0.525,-6.229 -0.35,-1.037 -1.309,-2.271 -2.88,-3.696 h 15.288 c -1.575,1.425 -2.538,2.659 -2.888,3.696 -0.345,1.038 -0.52,3.117 -0.52,6.229 v 21.134 c 0,3.958 0.787,6.846 2.358,8.666 2.212,2.596 5.154,3.892 8.825,3.892 1.979,0 4.033,-0.533 6.154,-1.604 2.129,-1.071 3.629,-2.517 4.504,-4.333 0.467,-0.975 0.7,-2.371 0.7,-4.188 v -23.567 c 0,-3.112 -0.175,-5.191 -0.525,-6.229 -0.35,-1.037 -1.312,-2.271 -2.883,-3.696 h 15.287 c -1.575,1.425 -2.533,2.659 -2.883,3.696 -0.35,1.038 -0.525,3.117 -0.525,6.229 v 29.213 c 0,3.117 0.175,5.196 0.525,6.233 0.35,1.038 1.308,2.271 2.883,3.7 z"
     style="fill:#ffffff;fill-rule:nonzero"
     id="path241" /><path
     d="m 673.776,552.191 v 32.813 c 0,3.116 0.175,5.196 0.525,6.233 0.35,1.038 1.308,2.271 2.879,3.7 h -15.288 c 1.634,-1.496 2.605,-2.729 2.93,-3.7 0.32,-0.975 0.479,-3.05 0.479,-6.233 v -29.213 c 0,-3.112 -0.175,-5.191 -0.521,-6.229 -0.35,-1.037 -1.313,-2.271 -2.888,-3.7 h 14.855 c 0.525,0 1.133,-0.029 1.833,-0.096 h 1.396 c 4.779,0 8.533,0.971 11.271,2.917 3.437,2.404 5.158,5.683 5.158,9.837 0,3.117 -1.458,6.071 -4.371,8.863 -1.571,1.492 -3.842,2.758 -6.812,3.796 5.416,7.529 9.625,12.871 12.62,16.016 3,3.15 6.246,5.667 9.742,7.546 -4.196,0.392 -6.871,0.588 -8.033,0.588 -2.1,0 -3.875,-0.459 -5.334,-1.367 -1.454,-0.908 -3.375,-2.792 -5.766,-5.646 -4.484,-5.387 -8.909,-11.846 -13.275,-19.375 7.916,-1.429 11.879,-4.708 11.879,-9.837 0,-2.204 -0.8,-3.992 -2.404,-5.354 -1.6,-1.363 -3.709,-2.046 -6.334,-2.046 -1.512,0 -3.029,0.162 -4.541,0.487"
     style="fill:#ffffff;fill-rule:nonzero"
     id="path243" /><path
     d="m 731.786,551.221 c -4.892,0 -8.855,1.687 -11.884,5.062 -3.025,3.375 -4.537,7.788 -4.537,13.242 0,5.712 1.716,10.646 5.15,14.8 2.912,3.504 6.641,5.258 11.183,5.258 4.775,0 8.663,-1.704 11.663,-5.112 3,-3.409 4.495,-7.838 4.495,-13.292 0,-5.583 -1.558,-10.304 -4.67,-14.167 -3.117,-3.862 -6.917,-5.791 -11.4,-5.791 m 0.433,-6.817 c 7.108,0 13.075,2.467 17.912,7.4 4.834,4.933 7.255,11.033 7.255,18.304 0,7.338 -2.525,13.534 -7.559,18.6 -5.041,5.063 -11.171,7.592 -18.391,7.592 -7.167,0 -13.221,-2.479 -18.171,-7.45 -4.954,-4.963 -7.429,-11.05 -7.429,-18.254 0,-7.467 2.537,-13.696 7.604,-18.696 5.062,-4.996 11.325,-7.496 18.779,-7.496"
     style="fill:#ffffff;fill-rule:nonzero"
     id="path245" /><path
     d="m 766.206,593.871 -2.708,-11.1 c 5.413,4.546 11.125,6.816 17.121,6.816 2.737,0 5.067,-0.683 6.992,-2.05 1.92,-1.362 2.879,-3.012 2.879,-4.962 0,-1.754 -0.729,-3.275 -2.179,-4.579 -1.459,-1.296 -4.459,-2.979 -9,-5.059 -4.717,-2.145 -8.038,-4.091 -9.963,-5.845 -2.562,-2.334 -3.842,-5.288 -3.842,-8.859 0,-4.154 1.659,-7.483 4.98,-9.979 3.316,-2.5 7.716,-3.75 13.191,-3.75 3.667,0 7.604,0.617 11.792,1.85 v 10.125 c -3.613,-3.762 -7.683,-5.646 -12.229,-5.646 -2.446,0 -4.467,0.6 -6.071,1.804 -1.604,1.2 -2.4,2.742 -2.4,4.621 0,1.559 0.667,2.904 2.004,4.042 1.342,1.137 4.108,2.675 8.3,4.625 5.125,2.4 8.621,4.383 10.488,5.942 2.675,2.204 4.016,5.029 4.016,8.47 0,4.542 -1.908,8.342 -5.721,11.388 -3.816,3.054 -8.55,4.579 -14.195,4.579 -4.371,0 -8.855,-0.812 -13.455,-2.433"
     style="fill:#ffffff;fill-rule:nonzero"
     id="path247" /><path
     d="m 853.746,573.611 v 11.392 c 0,3.117 0.175,5.196 0.521,6.233 0.35,1.038 1.308,2.271 2.883,3.7 h -15.287 c 1.571,-1.491 2.533,-2.725 2.883,-3.7 0.35,-0.975 0.525,-3.05 0.525,-6.233 v -11.392 l -12.842,-19.958 c -2.158,-3.375 -4.575,-5.942 -7.25,-7.696 l 9.434,-0.383 c 1.279,0 2.154,0.175 2.621,0.529 0.462,0.358 1.279,1.45 2.445,3.267 l 10.834,17.137 9,-13.246 c 0.925,-1.362 1.396,-2.366 1.396,-3.016 0,-1.3 -0.992,-2.763 -2.971,-4.379 h 14.766 z"
     style="fill:#ffffff;fill-rule:nonzero"
     id="path249" /><path
     d="m 926.596,571.271 -6.292,-18.596 -6.462,18.596 z m 1.925,5.746 h -16.425 l -4.108,10.612 c -0.525,1.363 -0.784,2.471 -0.784,3.313 0,1.037 0.904,2.366 2.709,3.991 h -14.505 c 2.45,-1.495 4.717,-5.029 6.813,-10.612 l 12.142,-31.842 c 0.525,-1.362 0.791,-2.366 0.791,-3.016 0,-0.975 -0.846,-2.175 -2.533,-3.605 h 13.017 l 14.937,38.463 c 1.279,3.308 2.346,5.6 3.188,6.862 0.845,1.267 2.141,2.517 3.891,3.75 h -16.162 c 0.462,-0.516 0.754,-0.812 0.871,-0.875 1.104,-1.037 1.658,-1.916 1.658,-2.629 0,-0.521 -0.404,-1.787 -1.221,-3.8 z"
     style="fill:#ffffff;fill-rule:nonzero"
     id="path251" /><path
     d="m 963.376,571.571 v 13.337 c 0,3.184 0.175,5.296 0.525,6.334 0.35,1.037 1.309,2.271 2.88,3.696 h -15.288 c 1.575,-1.492 2.538,-2.742 2.888,-3.746 0.345,-1.004 0.52,-3.1 0.52,-6.284 v -29.112 c 0,-3.113 -0.175,-5.192 -0.52,-6.229 -0.35,-1.038 -1.313,-2.271 -2.888,-3.7 h 25.425 c 1.283,0 2.388,-0.229 3.321,-0.684 v 8.959 c -2.683,-1.171 -5.854,-1.754 -9.525,-1.754 -3.204,0 -5.65,0.133 -7.338,0.391 v 12.271 h 9.521 c 1.05,0 2.067,-0.229 3.063,-0.683 v 8.762 c -1.346,-1.037 -3.467,-1.558 -6.384,-1.558 z"
     style="fill:#ffffff;fill-rule:nonzero"
     id="path253" /><path
     d="m 998.406,552.681 v 32.325 c 0,3.179 0.175,5.27 0.525,6.283 0.35,1.004 1.309,2.221 2.88,3.65 h -15.288 c 1.633,-1.496 2.604,-2.729 2.929,-3.7 0.321,-0.975 0.479,-3.054 0.479,-6.233 v -29.213 c 0,-3.112 -0.175,-5.192 -0.52,-6.229 -0.35,-1.038 -1.313,-2.271 -2.888,-3.7 h 7.688 c 0.583,0 1.808,-0.033 3.67,-0.096 h 7.167 c 3.896,0 7.088,0.55 9.567,1.65 2.471,1.108 4.454,2.729 5.937,4.871 1.488,2.142 2.229,4.45 2.229,6.912 0,3.83 -1.633,7.175 -4.891,10.034 -3.263,2.854 -7.05,4.283 -11.359,4.283 -2.275,0 -4.425,-0.683 -6.466,-2.046 3.904,-0.587 6.554,-1.266 7.954,-2.046 3.608,-1.945 5.412,-4.9 5.412,-8.858 0,-5.583 -3.466,-8.375 -10.395,-8.375 -1.63,0 -3.171,0.163 -4.63,0.488"
     style="fill:#ffffff;fill-rule:nonzero"
     id="path255" /><path
     d="m 61.902,522.331 c 0,0 15.409,-0.35 42.371,-0.954 26.967,-0.392 65.484,-1.413 111.709,-1.805 46.225,-0.42 100.154,-1.329 157.929,-1.541 28.891,-0.125 58.746,-0.254 89.079,-0.388 30.337,-0.041 61.15,-0.083 91.967,-0.121 61.633,0.05 123.266,0.2 181.045,0.575 28.888,0.255 56.813,0.5 83.3,0.738 26.48,0.271 51.517,0.521 74.63,0.758 46.225,0.463 84.745,1.329 111.712,1.709 26.958,0.575 42.371,0.9 42.371,0.9 v 0.308 c 0,0 -15.413,0.325 -42.371,0.9 -26.967,0.379 -65.487,1.246 -111.712,1.708 -23.113,0.238 -48.15,0.488 -74.63,0.759 -26.487,0.233 -54.412,0.483 -83.3,0.733 -57.779,0.379 -119.412,0.525 -181.045,0.579 -30.817,-0.042 -61.63,-0.083 -91.967,-0.121 -30.333,-0.137 -60.188,-0.262 -89.079,-0.387 -57.775,-0.213 -111.704,-1.125 -157.929,-1.542 -46.225,-0.392 -84.742,-1.412 -111.709,-1.804 -26.962,-0.604 -42.371,-0.954 -42.371,-0.954 z"
     style="fill:#ffffff;fill-rule:nonzero"
     id="path257" /></svg>
